<svg xmlns="http://www.w3.org/2000/svg" width="345" height="345" fill="none" viewBox="0 0 345 345">
  <path fill="#fff" d="M172.79 345C267.899 345 345 267.899 345 172.79 345 77.681 267.899.58 172.79.58 77.681.58.58 77.681.58 172.79.58 267.899 77.681 345 172.79 345z"/>
  <path fill="#333" d="M106.451 116.469c2.256-6.317 4.394-11.976 6.356-16.841 6.611.47 12.879 1.206 18.632 2.187 5.978 1.025 10.941 1.545 14.757 1.545 4.688 0 9.548-1.467 14.458-4.36 4.85-2.864 11.142-8.548 18.7-16.895a.85.85 0 00-.849-1.388c-4.649 1.24-8.823 2.148-12.403 2.692-3.541.54-7.307.814-11.187.814-7.165 0-14.982-.554-23.226-1.643a193.06 193.06 0 00-25.096-1.657c-12.918 0-24.713 1.839-35.05 5.468-10.373 3.644-18.735 8.71-24.846 15.061-6.18 6.42-9.313 13.914-9.313 22.275 0 5.537 1.657 10.206 4.928 13.88 3.262 3.668 8.74 6.179 16.288 7.459a.834.834 0 00.804-.309.84.84 0 00.118-.853c-1.55-3.713-2.727-7.2-3.497-10.363-.765-3.129-1.152-6.67-1.152-10.525 0-5.341.96-9.887 2.849-13.516 1.854-3.565 5.355-6.366 10.397-8.323 5.145-1.996 12.54-3.006 21.966-3.006 2.149 0 3.875.04 5.13.118.75.049 1.442.108 2.08.186-4.213 8.651-8.45 18.264-12.594 28.587a1004.607 1004.607 0 00-12.428 32.604c-5.792.191-11.246.907-16.219 2.129-5.213 1.285-9.534 3.369-12.84 6.189-3.378 2.884-5.34 6.92-5.83 11.996a.865.865 0 00.274.711c.201.181.471.255.736.201 2.31-.461 5.42-.893 9.23-1.285 3.825-.387 7.631-.745 11.3-1.059 2.805-.241 5.046-.432 6.718-.579a458.55 458.55 0 00-10.304 26.322c-3.3 9.278-6.007 18.111-8.038 26.242-2.05 8.196-3.09 15.326-3.09 21.187 0 5.346 1.364 9.882 4.061 13.472 2.776 3.698 8.333 5.812 16.999 6.464h.063a.86.86 0 00.58-.225.859.859 0 00.269-.623c0-6.994.829-15.312 2.462-24.723 1.638-9.436 4.678-21.805 9.043-36.758.329-.834.986-2.928 2.016-6.4 1.02-3.457 2.241-7.621 3.654-12.496a699.157 699.157 0 003.845-13.776c8.636-.152 15.767-.388 21.196-.697 5.591-.314 10.069-.794 13.315-1.427 3.335-.647 6.067-1.77 8.132-3.34 2.02-1.535 4.016-3.614 5.939-6.179a.851.851 0 00.088-.873.842.842 0 00-.731-.481c-7.969-.309-15.321-.863-21.853-1.643-6.288-.745-13.394-1.432-21.128-2.04 2.393-7.631 4.782-15.13 7.101-22.314a773.17 773.17 0 017.19-21.192z"/>
  <path fill="#333" d="M306.228 91.418c-3.923-5.557-8.2-8.372-12.712-8.372-2.673 0-5.723 1.118-9.068 3.32-3.34 2.198-6.179 5.768-8.435 10.603a.83.83 0 00-.01.692c.093.22.275.392.505.47 4.355 1.506 8.019 4.41 10.888 8.632 2.874 4.243 4.33 10.505 4.33 18.617 0 8.205-1.378 17.327-4.095 27.116-2.727 9.823-6.479 19.848-11.147 29.804a272.318 272.318 0 01-15.743 28.901c-5.768 9.2-11.776 17.533-17.847 24.771-6.057 7.22-11.996 13.002-17.651 17.19-5.561 4.115-10.588 6.199-14.933 6.199-2.026 0-3.281-.539-3.84-1.653-.643-1.29-.971-3.143-.971-5.512 0-5.567.98-12.197 2.918-19.706 1.956-7.592 4.409-15.944 7.292-24.816a1193.37 1193.37 0 008.612-27.714 353.538 353.538 0 007.21-28.474c1.966-9.451 2.962-18.627 2.962-27.278 0-13.629-2.83-24.541-8.406-32.427-5.645-7.98-14.046-12.026-24.973-12.026-6.385 0-12.491 1.334-18.156 3.968-5.64 2.624-10.642 6.091-14.855 10.304-4.213 4.213-7.562 8.936-9.951 14.031-2.398 5.12-3.614 10.157-3.614 14.973 0 5.547 1.824 10.265 5.419 14.021 3.605 3.772 9.441 5.685 17.352 5.685a.849.849 0 00.755-1.227c-1.221-2.432-2.109-4.904-2.639-7.346a35.429 35.429 0 01-.804-7.597c0-3.541.432-7.366 1.28-11.373a51.313 51.313 0 013.943-11.594c1.741-3.639 4.007-6.635 6.734-8.906 2.658-2.217 5.963-3.34 9.828-3.34 3.703 0 6.425 1.06 8.318 3.242 1.932 2.231 3.295 5.429 4.051 9.499.774 4.179 1.162 9.044 1.162 14.458 0 10.903-.947 21.756-2.815 32.261-1.874 10.534-4.247 20.814-7.053 30.559-2.81 9.754-5.659 18.984-8.474 27.429-2.815 8.451-5.199 16.239-7.087 23.144-1.898 6.959-2.859 12.982-2.859 17.901 0 6.003 1.461 10.676 4.34 13.884 2.84 3.168 6.145 5.311 9.824 6.375 3.599 1.04 6.733 1.565 9.308 1.565 7.204 0 14.899-2.707 22.864-8.038 7.876-5.282 15.904-12.467 23.849-21.354 7.921-8.862 15.562-18.97 22.707-30.039 7.141-11.069 13.625-22.599 19.265-34.271 5.644-11.682 10.147-23.148 13.369-34.075 3.227-10.956 4.865-20.829 4.865-29.352.005-9.883-1.952-17.66-5.812-23.124z"/>
</svg>
