<svg xmlns="http://www.w3.org/2000/svg" width="28" height="28" fill="none" viewBox="0 0 28 28">
  <path fill="#F2A679" d="M0 14c0 7.733 6.268 14 14 14s14-6.268 14-14S21.732 0 14 0 0 6.268 0 14Zm14.147-9.47a.86.86 0 0 1 .095.007 1.823 1.823 0 0 1 .519.121.745.745 0 0 1 .084.035 1.371 1.371 0 0 1 .14.068l.074.041a1.463 1.463 0 0 1 .165.11l.079.06a1.905 1.905 0 0 1 .15.136l5.798 5.797a1.983 1.983 0 1 1-2.804 2.805l-2.412-2.413V21.49a1.982 1.982 0 1 1-3.966 0V11.297l-2.412 2.412a1.983 1.983 0 0 1-2.803-2.804l5.796-5.797c.024-.024.049-.048.074-.07l.076-.065c.027-.021.053-.043.08-.062a1.494 1.494 0 0 1 .165-.109c.023-.013.049-.028.074-.04.025-.014.053-.03.08-.042a1.316 1.316 0 0 1 .145-.061 1.025 1.025 0 0 1 .134-.046.286.286 0 0 1 .037-.011l.053-.015c.018-.004.035-.009.056-.012a1.5 1.5 0 0 1 .238-.038 1.728 1.728 0 0 1 .285-.007Z"/>
</svg>
