<svg xmlns="http://www.w3.org/2000/svg" width="49" height="60" fill="none" viewBox="0 0 49 60">
  <ellipse cx="22.5" cy="37" fill="#F2A679" fill-opacity=".15" rx="22.5" ry="23"/>
  <path stroke="#333" stroke-linecap="round" stroke-linejoin="round" d="M34.685 52.375a22.79 22.79 0 0 0 11.683-14.071M4.848 43.46c2.7 4.64 6.95 8.178 12.004 9.991M8.995 15.429A22.763 22.763 0 0 1 30.06 9.996"/>
  <path stroke="#172C1A" stroke-linecap="round" stroke-linejoin="round" d="M5.61 16.926a.514.514 0 0 1 .908.036c1.242 2.615 5.462 10.42 14.04 16.388 10.463 7.28 3.528 20.358 3.528 20.358s-2.035-17.552-11.941-20.925c0 0 7.438 3.07 9.894 22.86C13.832 42.15-8.603 41.55 5.61 16.925Z"/>
  <path fill="#70B52C" stroke="#70B52D" stroke-linecap="round" stroke-linejoin="round" d="M38.42 19.374c.376 4.798.766 21.091-9.986 30.585C30.242 37.65 18.246 13.992 47.427 1.035a.42.42 0 0 1 .535.591c-6.768 12.057 13.415 32.236-23.306 55.422.113 0 20.43-12.622 13.992-37.71a.116.116 0 0 0-.229.036v0Z"/>
</svg>
