<svg xmlns="http://www.w3.org/2000/svg" fill="none" viewBox="0 0 33 34">
  <ellipse cx="16.5" cy="16.857" fill="#F8F1EC" rx="16.5" ry="16.422"/>
  <path fill="#333" d="M16.596 18.649c-1.718-1.404-2.866-3.136-3.47-4.121l-.45-.843c.158-.167 1.358-1.443 1.878-2.136.654-.87-.294-1.654-.294-1.654s-2.666-2.648-3.273-3.174c-.608-.526-1.307-.233-1.307-.233-1.277.819-2.6 1.531-2.68 4.958-.003 3.207 2.449 6.516 5.1 9.077 2.656 2.893 6.302 5.792 9.827 5.789 3.45-.078 4.166-1.393 4.991-2.66 0 0 .295-.695-.234-1.299-.53-.604-3.196-3.252-3.196-3.252s-.79-.94-1.666-.291c-.652.484-1.824 1.562-2.106 1.823 0 0-1.96-1.037-3.12-1.984Z"/>
</svg>
