<svg xmlns="http://www.w3.org/2000/svg" fill="none" viewBox="0 0 66 54">
  <path stroke="#333" stroke-linecap="round" stroke-linejoin="round" d="M13.867 42.297a26.186 26.186 0 0 0 9.359 8.14 26.243 26.243 0 0 0 12.062 2.926c8.892 0 16.75-4.414 21.495-11.168M11.835 15.44C16.148 6.878 25.031 1 35.288 1 45.316 1 54.03 6.614 58.445 14.867M10.159 37.979c5.058 0 9.159-4.093 9.159-9.14 0-5.05-4.1-9.141-9.159-9.141C5.101 19.698 1 23.79 1 28.838c0 5.048 4.1 9.14 9.159 9.14Zm23.841 0c5.058 0 9.159-4.093 9.159-9.14 0-5.05-4.1-9.141-9.16-9.141-5.058 0-9.158 4.092-9.158 9.14 0 5.048 4.1 9.14 9.159 9.14Z"/>
  <path fill="#CB9903" d="M10.16 36.4c4.184 0 7.577-3.385 7.577-7.562 0-4.176-3.393-7.562-7.578-7.562-4.185 0-7.577 3.386-7.577 7.562 0 4.177 3.392 7.563 7.577 7.563Zm48-.697c4.184 0 7.577-3.386 7.577-7.562 0-4.177-3.393-7.563-7.578-7.563-4.185 0-7.578 3.386-7.578 7.563 0 4.176 3.393 7.562 7.578 7.562ZM34 36.4c4.185 0 7.578-3.385 7.578-7.562 0-4.176-3.393-7.562-7.578-7.562-4.185 0-7.578 3.386-7.578 7.562 0 4.177 3.393 7.563 7.578 7.563Z"/>
</svg>
