<svg xmlns="http://www.w3.org/2000/svg" fill="none" viewBox="0 0 57 54">
  <path stroke="#333" stroke-linecap="round" stroke-linejoin="round" d="M11.867 42.297a26.186 26.186 0 0 0 9.359 8.14 26.243 26.243 0 0 0 12.062 2.926c8.892 0 16.75-4.414 21.495-11.168M9.834 15.44C14.148 6.878 23.031 1 33.287 1 43.316 1 52.03 6.614 56.444 14.867"/>
  <path fill="#CB9903" d="M8.159 36.4c4.185 0 7.577-3.385 7.577-7.562 0-4.176-3.392-7.562-7.577-7.562-4.185 0-7.578 3.386-7.578 7.562 0 4.177 3.393 7.563 7.578 7.563Z"/>
</svg>
