<svg xmlns="http://www.w3.org/2000/svg" width="67" height="53" fill="none" viewBox="0 0 67 53">
  <ellipse cx="36.5" cy="30" fill="#F2A679" fill-opacity=".15" rx="22.5" ry="23"/>
  <path stroke="#333" stroke-linecap="round" stroke-linejoin="round" d="M47.497 44.848c-.57.408-1.157.79-1.764 1.145M11.07 19.835a23.61 23.61 0 0 0-.74 5.875c0 12.55 9.835 22.804 22.218 23.474M53.257 12.454a23.351 23.351 0 0 1 3.996 11.125"/>
  <path stroke="#333" stroke-linecap="round" stroke-linejoin="round" d="M7.472 6.853s-7.044.424-6.371 2.473c.673 2.05 4 5.378 7.675 6.324 3.677.946 6.313.684 7.478 2.722 1.166 2.038.953 7.285.622 7.886-.332.601-1.823 4.116-1.508 4.727.316.61-.303 2.066-.146 2.657.156.591 1.102 2.435 2.886 2.454 1.783.018 4.222.54 4.907-.253.685-.792 1.673-.079 2.307.176.633.256 4.244.544 5.726-.7 1.481-1.244-5.181 5.977-10.935 1.481M15.505 8.521s2.69-5.043 4.303-4.968c1.614.074 3.49-.543 3.866-.894.376-.35 2.314-1.932 3.232-1.552.919.381 3.716 2.333 3.943 2.447.227.114 2.587.624 3.473.673.886.049 2.8 1.386 3.012 2.147.213.762-.119 4.123 1.302 3.845 1.422-.278 3.316-4.867 5.073-4.693C45.468 5.7 47.59 4.14 51.02 6.6c2.277 1.633-4.374 8.505-6.856 8.309-2.73-.218-11.648 2.688-10.415 10.324 1.173 7.275-.776 8.018-1.776 8.764"/>
  <path stroke="#333" stroke-linecap="round" stroke-linejoin="round" d="M39.994 16.424s2.087 3.474 4.288 3.96c2.201.486 8.678 2.25 10.116 4.084M18.152 30.411c.598.59 1.048.017 1.415-.614.367-.63-1.534-1.367-2.365-1.618-.831-.251.115 1.699.507 2.76.391 1.062 2.034 1.076 2.509.643.474-.433.758-2.674-1.181-3.461-1.94-.787-2.484-.502-1.592-1.285.892-.782 4.303.223 5.934.325 1.631.102 2.125-1.3 4.802-.744 2.678.557.974 2.46.974 2.46s-3.548-1.214-3.862.509c0 0 2.388-1.34 3.63.564.181.277-1.866.765-1.881 1.434-.016.67-.019.983.236 1.068M34.67 11.967s-1.387.938-1.237 1.782c.15.845-.385 1.679-.117 2.038.267.359 1.058.243 1.481-.127.424-.37 1.538-.206 1.277-3.714 0 0-1.86.228-1.808 1.423.052 1.195.056 2.109.742 1.482M21.677 5.81c.358-.212 2.394.489 2.905.428.512-.062 4.78-1.764 5.095-1.418.261.288-1.931 1.334-2.97 2.187-1.038.853-1.678 3.544-1.9 4.333-.223.79-.4.443-.624-1.142-.224-1.585.204-2.938-1.385-3.629-1.589-.69-1.922-.285-1.12-.759ZM47.237 7.438s-5.075-.512-6.157 2.394c-1.081 2.907-3.767 1.583-3.268 1.982.498.399 1.67 1.918 2.312 2.291M6.37 8.082s6.447.716 5.856 5.368M15.639 14.209s.393 2.38.907 2.363c.514-.018 1.2-.328 1.329-.847.129-.519.343-3.598-.598-4.296-.941-.698-.95 0-.57.564.382.565.914 2.319.537 2.356-.376.037-.6.609-1.132.113M27.296 46.23s1.065-5.68-.86-6.81c-1.923-1.128.311-1.104 1.994-.858a14.2 14.2 0 0 1 1.564.282"/>
  <path fill="#70B52C" stroke="#70B52D" stroke-linecap="round" stroke-linejoin="round" d="M43.009 39.428C42.32 35.395 41.922 22.572 66 26.85c-11.615 7.234-6.461 18.954-20.166 15.222a.894.894 0 0 1-.612-1.149c.726-2.143 3.041-7.542 8.415-9.523a.123.123 0 0 0-.049-.24c-6.279.317-9.046 5.896-9.956 8.325a.325.325 0 0 1-.623-.056Z"/>
  <path fill="#172C1A" stroke="#172C1B" stroke-linecap="round" stroke-linejoin="round" stroke-width=".3" d="M43.668 48.318c.418-2.452.66-10.248-13.978-7.648 7.059 4.398 3.928 11.524 12.26 9.254a.544.544 0 0 0 .372-.697c-.441-1.303-1.849-4.586-5.116-5.785a.075.075 0 0 1-.02-.13.075.075 0 0 1 .05-.016c3.818.192 5.503 3.584 6.053 5.06a.197.197 0 0 0 .379-.038Z"/>
</svg>
