<svg xmlns="http://www.w3.org/2000/svg" viewBox="0 0 141.73 76.7"><defs><style>.cls-1{fill:#fff;}.cls-1,.cls-2,.cls-3,.cls-4{fill-rule:evenodd;}.cls-2{fill:#d3e2d1;}.cls-3{fill:#1d1d1b;}.cls-4,.cls-5{fill:#00924e;}</style></defs><g id="Layer_1" data-name="Layer 1"><path class="cls-1" d="M226.09,450.13l.28-3.6.45-3.55.62-3.49.79-3.43,1-3.36,1.11-3.29,1.27-3.22,1.42-3.14,1.56-3.06,1.71-3,1.84-2.87,2-2.78,2.1-2.68,2.23-2.57,2.34-2.47,2.47-2.34,2.57-2.23,2.67-2.1,2.78-2,2.88-1.85,3-1.7,3.05-1.57,3.14-1.42,3.22-1.27,3.29-1.11,3.37-1,3.42-.79,3.49-.62,3.55-.45,3.6-.28,3.65-.09,3.64.09,3.6.28,3.55.45,3.49.62,3.43.79,3.36,1,3.3,1.11,3.21,1.27,3.14,1.42,3.06,1.57,3,1.7,2.87,1.85,2.78,2,2.68,2.1,2.57,2.23,2.46,2.34,2.35,2.47,2.22,2.57,2.11,2.68,2,2.78,1.84,2.87,1.71,3,1.57,3.06,1.42,3.14,1.26,3.22,1.12,3.29.95,3.36.79,3.43.63,3.49.45,3.55.27,3.6.09,4c0,1.24,0,2.47-.11,3.71,0,.59-.08,1.18-.12,1.77H226.23c-.07-.93-.13-1.85-.17-2.78s-.06-2-.06-3l.09-3.64Z" transform="translate(-226 -382.89)"/><path class="cls-2" d="M366.73,445.05H227a70.4,70.4,0,0,1,139.72,0Z" transform="translate(-226 -382.89)"/><path class="cls-3" d="M245.29,405.85Z" transform="translate(-226 -382.89)"/><path class="cls-4" d="M232.61,445.05V426.16l-.18.39-1.25,3.18-1.1,3.25-.94,3.32-.78,3.38-.61,3.44-.45,3.5-.27,3.56-.09,3.6c0,1.63.05,3.25.16,4.87H366.63c.11-1.51.15-3,.16-4.54l-.09-3.93-.27-3.56-.2-1.57h-5.17V426l-1.16-2.58-1.54-3-1.69-2.93-1.82-2.84-.22-.32v30.7h-6.42V406.31l-1.9-2L343.89,402l-2.1-1.81v44.86h-6.42v0h-.12v0h-77V395.44l-.53.34-2.74,2-2.65,2.07-.5.44v44.81h-6.42V406.37l-.36.38-2.19,2.54-2.08,2.64-1.78,2.51v30.61Zm32.11-53.38v38.79l.4-.57,1-1.29,1.05-1.27,1.09-1.21,1.18-1.17,1.19-1.14.52-.44V388.73l-1.51.6-3.1,1.4-1.83.94Zm12.85-5.12v32.32l1.22-.66,1.49-.73,1.53-.68,1.57-.62.61-.2c0-2,0-27.1,0-30.94l-1.21.21-3.38.78-1.82.52Zm12.84-2.41v30.21l1.21-.19,1.73-.18,1.75-.12,1.73,0v-30l-3.56.09-2.86.22Zm12.85,0v30.22l.54.08,1.69.34,1.65.4,1.61.48.93.31V385l-2.16-.38-3.5-.45-.76-.06Zm12.84,2.4v32.31l.3.17,1.41.83,1.39.91,1.33,1,1.29,1,.7.6V388.71l-1.61-.64-3.25-1.1-1.56-.44ZM329,391.64V430.4l.59.84.9,1.4.83,1.43.77,1.47.72,1.51.66,1.53.59,1.57.52,1.61.46,1.62.37,1.57V395.4L333.13,394l-2.93-1.69-1.24-.63ZM226.09,450.13l.28-3.6.45-3.55.62-3.49.79-3.43,1-3.36,1.11-3.29,1.27-3.22,1.42-3.14,1.56-3.06,1.71-3,1.84-2.87,2-2.78,2.1-2.68,2.23-2.57,2.34-2.47,2.47-2.34,2.57-2.23,2.67-2.1,2.78-2,2.88-1.85,3-1.7,3.05-1.57,3.14-1.42,3.22-1.27,3.29-1.11,3.37-1,3.42-.79,3.49-.62,3.55-.45,3.6-.28,3.65-.09,3.64.09,3.6.28,3.55.45,3.49.62,3.43.79,3.36,1,3.3,1.11,3.21,1.27,3.14,1.42,3.06,1.57,3,1.7,2.87,1.85,2.78,2,2.68,2.1,2.57,2.23,2.46,2.34,2.35,2.47,2.22,2.57,2.11,2.68,2,2.78,1.84,2.87,1.71,3,1.57,3.06,1.42,3.14,1.26,3.22,1.12,3.29.95,3.36.79,3.43.63,3.49.45,3.55.27,3.6.09,4c0,1.24,0,2.47-.11,3.71,0,.59-.08,1.18-.12,1.77H226.23c-.07-.93-.13-1.85-.17-2.78s-.06-2-.06-3l.09-3.64Z" transform="translate(-226 -382.89)"/><path class="cls-1" d="M290.21,424.57l.2.06h.24l.06-.06.08,0,.16,0h.15l.14,0,.38-.12.36-.14.28.1.16.06.12.1h.11l.1,0,.2-.06.2-.06.1,0,.1,0,.16-.06.16,0H294l.31,0,.34,0,.06.22.06.12.08.08.14.06.14.06h.16l.14-.06,0,0v0l0-.08,0-.06v0l0,0v-.14l0-.12.06-.1.09-.08.06,0,0-.08,0-.06.08,0,.14,0,.1.06.18.18.08.06.12.06h.12l.16,0,.16-.1.18-.06.13-.1,0-.08v-.08l.1-.08h.1l.24,0,.1.08.12,0,.08.08,0,.14v.12l.08.08.08.08,0,.1.1.08,0,.1,0,.26-.06.2-.1.17-.28.3-.4.12-.18.1-.06.08-.06.1-.13.06-.1.1-.12.24-.1.24-.08.1-.1.09-.08.3-.08.12-.14.1-.1,0-.06-.06-.06-.2,0-.18,0-.08-.1,0-.26.08-.23.1-.22.16-.18.18h-.4l-.22.22-.24.22v.1l0,.06-.06,0h-.27l-.16,0-.2.08-.2.06-.1,0-.06.05-.06.08,0,.1-.06.08-.1,0-.2,0-.17,0-.06.06-.06.1-.26.08-.12.06-.1.08h-.2l-.16.06-.16.1-.14.12-.16.12-.13.12-.18.06-.18,0-.32.1-.32.07-.3.12-.13.08-.12.1-.22.06-.2,0-.4-.1-.2,0-.16,0-.16.08-.13.18-.12.14-.14.1-.32.18-.3.2-.12.1-.12.14.18.23.24.22.3.12.16,0h.16l0,.12.06.12.07.06.14,0,.14,0,.12-.06.1-.06h.14l.26,0,.26,0,.26,0h.25l.08,0h.08l.16,0,.22,0,.2-.08.22,0,.22,0,0,.1v.22l0,.1.15.08.14.1.1.12,0,.18,0,0,0,.06v.1l0,.09.06.1-.08.08,0,.1,0,.16.06.18,0,.08,0,.1-.06.08,0,.1,0,.2v.19l0,.1-.06.08-.14,0-.09.08-.18.2-.2.18-.1.08-.14,0-.16.14-.18.1-.32.22-.08.08-.09.06-.2.1-.18.1-.08.05-.06.1-.22.14-.28.1-.26.1-.12.08-.08.1-.27.18-.1.12-.06.14-.26.26-.26.27-.16.1-.16.08h-.16l-.19-.06-.32.14-.32.12-.66.24,0,.08-.06,0-.11,0-.16,0-.14.06-.14,0-.14.06-.26.18-.58-.1h-.15l-.14,0-.14,0-.14.1-.18.24-.24.17-.24.16-.28.1-.59.16-.6.12-.32.14-.17,0-.18,0-.16,0-.14,0-.14.06-.1.1-.28-.06-.32,0-.13,0-.14.06-.12.06-.12.12-.12.12-.12.06-.3,0-.32,0-.14,0-.14.07-.77.24-.38.08-.41,0-.26.1-.24.14L275,441l-.26.1-.22,0h-.2l-.39.08-.4.14-.38.1-.16.06h-.73l-.16,0-.14.1-.1-.06-.12,0-.18.08-.2.1h-.1l-.11,0-.28,0-.14,0-.16,0-.32.07-.34.09-.33.06h-.18l-.16,0-.68-.08h-.34l-.15,0-.16.06-.26.16-.12.08-.14,0-.08-.06-.1,0-.1,0-.06-.06-.51,0h-.26l-.24,0-.5,0-.24,0-.23.06-.14,0-.12,0-.22-.08-.24-.08h-.14l-.14,0-.42-.29-.23-.12-.14,0h-.14l-.06,0,0-.08v-.08l0-.08-.06-.06-.06,0-.14-.06-.1-.06,0-.06v-.1l-.08,0,0-.08,0-.08-.06-.06.08-.08,0-.06,0-.15,0-.17v-.07l0-.08V440l0-.08.1-.1.12-.1.08-.14.18.06.16.08.16.06h.1l.1,0,.06-.1.07-.1.08-.08.08-.1-.08-.22V439l0-.12.1,0,.08,0,.08.06.1,0,.48,0,.48.06,0,.06,0,.1,0,.18-.07.08v.1l0,.1,0,.1L265,440l0,.26,0,.51.06.08.06.06.15.06.2.06.18.06.18.06.18,0,.2,0,.16.08.45-.08.42-.12.12,0,.08,0,.1,0,.1,0,0,.1.1,0,.12,0,.08.06h.25l.22-.06.12-.22.1-.06h0l.08,0,.12.1.14.08.16,0,.16,0,.1-.08.12,0,.13,0,.12,0,.12.06h.12l.12,0,.1-.06.06-.08,0-.06,0-.16.34-.06.16-.06.14-.1.1,0,.07,0,.14.06.16.06h.08l.08,0,.14-.12.14-.08.16,0,.16-.08.2,0,.1,0,.06-.07v-.12l0-.1V440l.1-.08.29,0,.3,0h.3l.14,0,.14-.06,0-.06,0-.06.12-.08h.18l.07,0,.08-.06,0-.18,0-.16-.1-.16-.11-.1.1,0,.05-.06,0-.08,0-.08,0-.17,0-.06.08,0,.12,0h.12l.1,0,.1-.08.06-.06,0-.06,0-.18,0-.14,0-.06.06,0,0-.08,0-.06.1-.12.06-.12,0-.06-.06-.06.08,0,.1,0,.08,0,.06-.08,0-.07,0-.08-.08-.1-.08-.1v-.06l.06-.08.08-.32.08-.14.06,0,.1,0v-.12l.06-.08v-.08l0-.1.11,0,.08-.06.14-.13.1-.16.08-.08.08-.06h.36l.14,0,.12-.1v-.12l0,0,.18,0h.08l.07,0,0-.06v-.08l-.06-.14v-.24l-.05-.22,0-.21,0-.1.07-.1.1,0,.08,0,.1.12.12.12.06,0h.24l.14,0,.12,0,.06,0,0-.06.06-.34.06-.16.08-.14.08-.18.12-.14.09-.16v-.08l0-.1v-.13l0-.12.08-.1.12-.06.32,0,.14-.06.12-.1-.06-.06v0l.06-.12.06-.1,0,0-.06-.06.2-.1.24-.08.22-.08.21-.12.4-.11.18-.1.16-.15.1,0,.08-.1,0-.08,0-.08,0-.06,0-.08,0-.06v-.06l0-.14.12-.06.16,0,.13,0,.14,0,.32-.3.12-.16.08-.19.1-.14.12-.08.14-.08.12-.12.39,0,.18,0,.16-.12-.12-.26,0-.14,0-.16,0-.12.08-.08.1-.09.1-.08h.08l.06,0,.08.12.1.11.06.06.06,0h.08l.1,0,.18.06.06,0H285l0-.08,0-.12.06,0,0,0,0-.1,0-.11,0,0,.06,0,.08,0h.08l.14-.08.14-.08.16,0,.12-.18.14-.14,0-.06-.06-.06-.06-.06v-.08l.36-.08.13-.08,0-.08,0-.08,0-.08v-.06l0-.11.06-.12v-.06l0-.06-.08-.08-.09-.08-.06-.06,0-.1-.1-.1-.12-.06-.28-.06-.3,0-.28.06-.16,0-.14,0-.29.12-.14.06-.16,0h-.16l-.16-.06-.14,0-.12.1-.1.08-.14,0-.16.23-.17.22-.24.16-.14.06-.14,0-.18,0-.16,0-.16,0-.16-.08h-.1l-.07,0-.18.1-.12,0-.14,0h-.28l-.26,0h-.14l-.1,0V427l0-.1,0-.1,0-.08-.16-.06-.15,0h-.14l-.16,0,.14-.25.06-.13,0-.16.08-.08,0,0v-.08l-.08-.38.21-.06.16-.12.24-.28h.1l.06.06v.1l0,.1,0,.08.08,0,.1,0,.08-.06.08,0,.1,0,.08-.22.08-.06h.18l0,0,0,0h.31l.26,0,.24,0,.26-.08h.1l.1,0,.22.06.27-.08h.14l.08,0,.06,0,.16,0,.18,0h.16l.06,0,.08,0,.14-.08.14,0,.29,0h.3l.14,0,.14-.1.08-.06.14,0H286l.12,0,.24-.18.14,0h.05l.08.06.2.16.18.2.1,0,.12.07h.5l.22,0,.21-.06.1-.08.06-.08.08-.12.12-.06.14,0,.14-.06.1.08.12,0,.14,0,.14,0,.12-.08.12-.08v-.28l.06-.08.2,0,.16.1.28.28Zm-.24.95-.1,0h-.1l-.1,0,0,.1-.14.1-.11.12-.08.14,0,.16,0,.1v.1l-.1.14-.14.13-.1.14-.12.06-.06.08-.08.1-.12,0,0,.08-.06,0-.14,0-.14,0-.06,0-.06,0,0,.12-.08.08-.17.12-.42.14-.14,0,0,.1,0,.09,0,.12-.14.46,0,.12,0,.12,0,.1.08.12.22.1.2.1.12,0h.1l.12,0,.11-.06.1-.1.12,0,.26,0,.26,0,.14,0,.1-.06.2.06.22,0,.39-.12v-.14l.26-.16.12-.08.12-.1,0-.18.06-.15.12-.12.08,0,.1,0,.14-.14.14-.06.15,0,.16,0,.32.08h.18l.18-.08.08-.06,0-.06.1-.18,0-.08.06-.08.1,0h.12l0-.1,0-.1-.08-.14.1-.14.06-.15,0-.14.08-.14,0-.12,0-.12,0-.12,0-.14-.12-.16-.07-.06-.1,0-.14-.08-.14,0h-.3l-.3.06-.28.08-.16,0-.17,0-.32-.1-.32,0h-.16l-.16.08Zm-5.64,7.69-.14.12-.16.06-.36,0-.35.06-.18,0-.14.1-.12,0-.08.06-.16.16-.14.18-.1.06-.12,0-.08-.07h-.1l-.18,0-.17.05h-.2l-.36.17-.36.2-.16.14-.16.14-.12.16-.09.2-.1,0h-.1l-.2,0h-.1l-.08,0-.08,0-.08.1-.24.16-.22.16-.22.13-.25.12-.1.2-.14.18-.1,0-.1,0-.16.12-.14.14-.2.08,0,.08,0,.08-.16.1-.17.08-.16.1-.12.12,0,.15v.16l-.06.14,0,.12,0,.08.08.06.06.1-.22.2-.16.22-.14.1-.08.14-.06.15-.08.14.14.18.16.16.22.12.12,0h.12l.1-.06.12,0h.21l.22,0,.12,0,.08-.08.08-.14v-.06l0-.06.1-.12.12-.1.34-.1.18.08.19,0,.16,0,.14-.08.12-.1.1-.12,0-.1,0-.08.12-.16.2-.08.2-.08.18-.06.1,0,.11,0,.12.1h.16l.1-.08.1-.08.16-.2.18-.18.1-.06.12,0,0-.1.08-.05.16,0h.18l.15,0h.24l.28.07h.12l.12-.05.12-.07L283,437l.1,0,.12,0h.1l0,0,0,0,0-.08,0-.06.07-.12.32-.14.34-.1.34-.06.18,0,.18.06.12-.12.15-.06.32-.12.22,0,.22,0,.42-.12.12-.14.15,0,.16-.05.18,0,0-.08,0-.06.12-.06.14,0,.14,0,.12-.06.06-.12,0-.12.08-.1,0-.08,0-.1,0-.1,0-.1,0-.12,0-.12.1-.22.12-.23,0-.1v-.14l-.08-.14,0-.1v-.08l-.1,0-.08,0-.1,0h-.18l0-.06,0-.12-.12,0-.16.08-.2,0-.36,0-.05-.06-.1,0-.12.08-.14,0-.14,0-.14,0-.08-.06-.1,0-.18,0-.18.08-.18.06-.29-.2-.16-.06-.22,0Z" transform="translate(-226 -382.89)"/><polygon class="cls-1" points="78.75 43.37 78.83 43.37 78.87 43.37 78.87 43.43 78.87 43.45 78.85 43.49 78.79 43.52 78.75 43.7 78.75 43.86 78.72 44.02 78.6 44.14 78.58 44.32 78.56 44.5 78.5 44.64 78.44 44.7 78.36 44.72 78.16 44.78 78 44.88 77.84 45 77.64 45.06 77.36 45.22 77.22 45.27 77.06 45.27 77.01 45.16 76.93 45.06 76.81 45 76.69 44.96 76.57 44.94 76.49 44.96 76.31 45.03 76.15 45.13 76.05 45.18 75.95 45.18 75.85 45.18 75.77 45.2 75.67 45.31 75.58 45.41 75.52 45.47 75.42 45.49 75.32 45.61 75.24 45.75 75.2 45.91 75.22 46.07 75.14 46.17 75.04 46.21 74.8 46.21 74.56 46.21 74.44 46.23 74.32 46.29 74.17 46.43 74.01 46.55 73.91 46.73 73.85 46.92 73.77 47.12 73.71 47.2 73.61 47.26 73.55 47.34 73.45 47.38 73.25 47.42 73.05 47.48 72.97 47.52 72.89 47.62 72.81 47.64 72.75 47.68 72.67 47.78 72.61 47.9 72.5 48 72.46 48.2 72.4 48.4 72.32 48.57 72.2 48.75 71.78 48.85 71.58 48.91 71.4 49.03 71.36 49.11 71.34 49.19 71.32 49.35 71.2 49.45 71.08 49.57 70.89 49.82 70.69 50.06 70.55 50.14 70.39 50.2 70.15 50.46 69.93 50.76 69.71 51.04 69.46 51.3 69.44 51.41 69.38 51.53 69.22 51.73 69.04 51.93 68.9 52.15 68.74 52.25 68.56 52.33 68.5 52.27 68.44 52.29 68.38 52.33 68.32 52.33 68.1 52.49 67.95 52.67 67.77 52.8 67.67 52.84 67.53 52.87 67.37 53.14 67.27 53.28 67.15 53.4 67.13 53.62 67.07 53.84 66.85 54.26 66.59 54.63 66.5 54.83 66.42 55.05 66 55.51 65.56 55.97 65.48 56.18 65.34 56.4 65.22 56.64 65.16 56.88 65.14 56.96 65.08 57.04 64.94 57.14 64.81 57.27 64.77 57.36 64.77 57.45 64.61 57.71 64.51 57.99 64.39 58.27 64.23 58.55 64.23 58.61 64.19 58.65 64.13 58.75 64.13 58.88 64.09 59 63.97 59.2 63.83 59.4 63.69 59.62 63.44 59.82 63.34 59.94 63.26 60.1 63.22 60.2 63.14 60.3 63.02 60.38 62.88 60.45 62.66 60.45 62.56 60.41 62.5 60.34 62.52 60.22 62.56 60.12 62.7 59.94 62.88 59.76 63.04 59.58 63.08 59.42 63.18 59.24 63.36 58.92 63.34 58.73 63.38 58.55 63.48 58.39 63.59 58.25 63.85 57.95 63.97 57.79 64.03 57.63 64.17 57.55 64.29 57.45 64.37 57.32 64.41 57.18 64.49 56.86 64.55 56.56 64.61 56.5 64.61 56.42 64.63 56.36 64.67 56.28 64.89 56.16 64.98 56.06 65.08 55.97 65.12 55.87 65.12 55.78 65.05 55.65 64.94 55.53 64.85 55.39 64.85 55.29 64.89 55.23 65.03 55.19 65.18 55.15 65.32 55.09 65.44 55.05 65.56 54.95 65.66 54.85 65.78 54.79 65.84 54.65 65.94 54.55 66.04 54.43 66.06 54.36 66.06 54.27 66.2 54.16 66.3 54.02 66.48 53.68 66.48 53.58 66.52 53.52 66.58 53.44 66.61 53.36 66.61 53.18 66.65 53 66.75 52.69 66.71 52.65 66.69 52.59 66.73 52.47 66.79 52.37 66.81 52.25 66.91 52.23 66.99 52.17 67.05 52.01 67.09 51.83 67.13 51.75 67.17 51.67 67.19 51.59 67.19 51.51 67.19 51.45 67.27 51.43 67.29 51.33 67.35 51.26 67.47 51.06 67.53 50.98 67.53 50.9 67.47 50.82 67.35 50.76 67.39 50.7 67.45 50.72 67.53 50.72 67.61 50.7 67.67 50.62 67.75 50.58 67.95 50.58 68.12 50.58 68.22 50.56 68.3 50.5 68.36 50.5 68.42 50.46 68.36 50.42 68.34 50.38 68.38 50.28 68.46 50.2 68.52 50.1 68.58 50.08 68.62 50.02 68.58 49.9 68.5 49.8 68.64 49.67 68.72 49.51 68.82 49.15 69.26 48.93 69.48 48.83 69.71 48.77 69.79 48.71 69.85 48.65 69.77 48.55 69.75 48.43 69.73 48.31 69.71 48.27 69.65 48.23 69.69 48.13 69.77 48.06 70.01 48 70.11 47.96 70.19 47.92 70.19 47.82 70.09 47.7 70.11 47.56 70.19 47.48 70.43 47.38 70.51 47.38 70.59 47.38 70.71 47.3 70.85 47.2 70.91 47.18 70.98 47.16 71.05 47.06 71 46.94 71.06 46.8 71.17 46.67 71.26 46.57 71.32 46.43 71.7 46.21 71.88 46.09 72.04 45.97 72.04 45.89 72.06 45.85 72.16 45.77 72.26 45.69 72.32 45.59 72.36 45.49 72.38 45.35 72.42 45.25 72.48 45.23 72.56 45.23 72.67 45.23 72.77 45.18 72.95 45.02 73.11 44.84 73.21 44.78 73.33 44.74 73.41 44.76 73.49 44.8 73.57 44.92 73.67 45.03 73.73 45.08 73.81 45.12 73.87 45.22 73.95 45.3 74.06 45.25 74.17 45.2 74.32 45.03 74.52 44.9 74.76 44.78 74.94 44.64 75.02 44.54 75.04 44.4 75.14 44.4 75.22 44.34 75.36 44.24 75.48 44.12 75.56 44.08 75.66 44.06 75.99 44.08 76.15 44.06 76.29 44 76.27 43.92 76.27 43.86 76.31 43.78 76.29 43.73 76.39 43.63 76.51 43.57 76.79 43.51 77.06 43.45 77.32 43.39 77.5 43.39 77.7 43.43 78.08 43.52 78.26 43.57 78.44 43.55 78.6 43.49 78.75 43.37 78.75 43.37"/><path class="cls-1" d="M307.91,430.49H308l.1,0,.2-.08.12,0h.1l.1,0,.1.08.32,0,.29,0,.3,0,.12.06.14.08.22.08.26.06.08.12.08.08.23.09.22.1.1.08.08.14.1.32.1.16.16.12.22.08.26,0,.1,0,.1.06.07.1,0,.14v.24l.06.12.1.09.12.06.14,0,.12,0,.06.06,0,.08h.18l.08,0,0,.08v.3l0,.14-.06.12,0,.16,0,.15.12.32v.16l0,.14,0,.12,0,.06.08.06.18.12.08.06.06.08,0,.14v.1l-.05.22-.06.21,0,.12v.12l-.08.16,0,.18,0,.34v.1l0,.1-.1.16-.06.15,0,.1.06.08,0,.08,0,0-.06,0v.08l-.1.08-.06.1-.1.2-.1.46-.18.21-.06.14,0,.14,0,0-.06,0-.12,0h-.1l0,0,0,.06-.13.12-.1.16-.1.16-.12.14-.16,0h-.08l-.06,0-.08,0-.08,0-.08,0-.1,0,0,.08-.06.08-.16.1-.18.1-.15.11-.18.14-.14.18-.16.18-.1.08-.08,0-.12.08-.06.08-.08.1-.14,0h-.14l-.12,0-.21.14-.22.14-.14,0-.14,0-.1,0h-.1l-.14.08-.14.08-.1,0H308l-.16.07-.19,0-.2,0-.16,0-.12,0H307l-.24,0-.22,0-.12,0-.08.08-.1-.06h-.09l-.18.08-.16.06h-.08l-.08-.08-.38,0-.38,0-.71.16-.1,0H304l-.2,0-.24,0-.24-.08-.22-.06-.11,0-.1.06-.16-.06-.16,0-.14-.06,0-.06,0-.1-.06,0-.06,0h-.16l-.14,0-.06,0-.06-.06-.12,0h-.1l-.07,0-.08,0-.14-.14-.14-.12,0-.08,0-.06-.12-.1-.18-.06-.2-.08-.38,0-.17,0-.06,0-.08-.06v-.34l0,0-.06,0-.16,0-.12-.06-.24-.15v-.22l-.14,0-.08-.06,0-.08v-.28l-.06-.08-.1-.06v-.12l0-.12-.1-.22-.15-.06-.06-.06,0-.08,0-.1,0-.09,0-.1.08-.1-.16-.06-.14-.08-.14-.06-.14,0-.1,0,0-.06,0-.06,0-.08.06-.14v-.08l0-.06,0-.06,0-.06,0-.06v-.08l.08-.08.06-.1V437l-.08,0-.08-.08,0-.08v-.1l.12-.06.06-.08,0-.1v-.12l0-.12,0-.1.06-.08.12-.08h.1l.08,0,.06-.06,0-.08-.1-.15v-.08l0-.08.37-.16.16-.12.06-.08,0-.1,0-.16v-.18l-.06-.16-.06,0-.08,0,.06-.06.1,0,.2-.06.08,0,.08-.06.06-.07V434l.14-.2,0-.1,0-.14-.1-.08,0-.06v-.06l.08,0h.1l.22,0,.2,0,.1,0,.09-.06.12-.34.1-.16.14-.12,0-.27,0-.14,0-.16.12-.12.08,0,.08,0,.24.16.12,0,.06,0,.06,0,.14-.06.08-.1.1-.3,0-.14.06-.1.12,0,.2,0,.12.12h.06l.06,0,.08-.08,0-.1.06-.1h.12l.08,0,.08.07.14.15.14.16.1,0,.09,0,0,0h.06l.12,0h.12l.06,0,0-.06.32,0,.28.1.16-.22.06-.14,0-.12.08-.1.11,0,.26,0,.14.1.14,0h.16l.14,0,.16-.18.18-.14.22-.1.21,0,.12.06.22-.06.22,0,.2-.1.08-.08,0-.1.08-.14.08-.06h.08l.1,0,.17.14.18.14Zm-1.27,2-.2.09-.16.15-.31.29-.14.08-.16,0-.14-.06-.06,0,0-.08-.12-.06-.08,0-.14.1-.16.1-.08,0-.12,0-.06,0,0,0,0,.1v.12l-.06.1-.38.28-.2.08-.1,0-.12,0-.08.08-.08.06-.22.07-.1,0-.05.05-.06.1v.12l-.14.06h-.08l-.06-.06,0-.14.08-.1,0-.09,0-.08-.08-.16h-.12l-.12,0-.08.06-.06.06-.1.16-.06.05-.06,0h-.08l-.1-.07V434l0-.08v-.08l-.1,0,.06-.1v-.08l0,0H302l-.18,0-.14,0-.17.1-.06.06v.1l-.16.27-.1.1-.18,0-.08,0,0,0,0-.1,0-.09,0,0,0,0-.18.14,0,.08,0,0,0,0-.06.12-.1.1-.24.16-.1.08-.08.1-.05.1,0,.16-.09.16-.08.06-.08,0,0,.12,0,.1-.1.19-.06.2,0,.1,0,.12,0,.12,0,.14-.06.14,0,.14,0,.3,0,.16-.06.14-.08.11-.14.1,0,.14,0,.1.08.06.1,0,.22,0,.1,0,.06.08v.1l0,.1v.12l0,0-.06,0,0,.08,0,.08,0,.08,0,.08.12.16.08.15.08.18.11.14.06.12v.06l0,.06.06,0,0,.06v.12l0,.12,0,0,.06,0,.06.12.08.06.2.06.2,0,.2.05.08.1.08.1.2.12.19.14.1.06.06.1.36,0,.34,0,.32.1.14.1.13.1.12,0,.12,0,.1-.06.06-.08.18.06.16.12.26.26.14.06h.12l.26-.06.13-.14.1-.16.1-.14.08,0,.08,0,.1.06.06.06,0,.2.16,0,.18,0,.34-.08,0-.1,0-.08.06,0,.06,0,.17,0,.16-.06h.14l.16,0,.12,0,0,0v-.08l.1,0,.1,0,.16-.1.16-.16.16-.12.05,0,0,0,.12,0,.1.06.1,0,.08-.12.1-.06.08,0,.1,0,.22,0,.1,0,.12,0,.16-.13.06-.09v-.11l-.08,0,0-.1,0-.1-.06-.08.06-.08.06,0h.06l.16-.14.05-.08,0-.1.36-.26.18-.08.12,0,.12,0,.32-.29.18-.12.21-.06v-.08l0-.06.08,0,.1,0,0,0,0-.06,0-.08,0,0h.06l.14-.1.14-.12.1-.14,0-.1,0-.1,0-.08v-.06l.08-.15.12-.15.08-.15,0-.1,0-.1-.06-.1,0-.1v-.12l0-.1-.12-.22.06-.08,0-.1,0-.1,0-.12,0,0,0-.07v-.05l0,0,0-.1,0-.14v-.1l0-.06,0,0,0-.08,0,0-.1,0,0-.06,0-.08v-.06l-.08-.1-.12-.06-.1-.1,0-.1,0-.08,0-.08h-.1l-.07,0-.06-.05-.06-.12v-.3l-.08,0,0,0,0-.12v-.12l0,0-.08,0,0-.12-.06-.08-.08,0-.1,0-.22,0-.12,0-.08,0-.08-.08-.12,0-.24,0h-.07l0,0,0-.08,0-.11,0,0,0,0h-.6l-.3,0-.14,0-.12.05-.1,0-.08,0-.07-.06-.1,0-.06-.06-.08,0-.12.06-.12.1-.14.05-.22-.05-.18-.12Z" transform="translate(-226 -382.89)"/><path class="cls-1" d="M313.64,419.7l.14.1.13.1.28.2.1,0,0,0,0,.1,0,.12,0,0,.06,0,.06.14,0,.15.08.16.06.16,0,.16,0,.16v.32l0,.18,0,.16.06,0,0,.07,0,.15-.1,0-.06.08-.08.18v.1l0,0,0,0h.16l.14,0,.16,0,.06,0,.06.06h.07l.1,0,.16-.1h.26l.26-.06h.22l.12,0,.1.08h.16l.15,0,.26.12.24.18.22.18.12,0,.06.1.06.12.08.1v.08l0,.07v.08l0,.1,0,.08,0,.1,0,.1,0,.1-.2.16-.18.2-.16.22-.18.18-.08.1-.1.07-.21.12-.22.12-.08.08-.08.12-.18.12-.2.1-.08.06-.06.06,0,.1v.12l.2.1.16.14.12.18.1.17v.18l0,.14-.14.28-.16.12-.16.14-.14.16,0,.2-.26.14-.23.15-.46.34-.24.16-.26.14-.26.1-.29,0-.14.08-.16,0-.32,0h-.32l-.32.06h-.41l-.22,0-.08,0-.08-.06h-.26l-.22-.06-.22-.08-.23,0-.06-.08-.06,0-.16,0-.14,0,0,0,0-.08-.08-.06h-.1l-.18.08h-.18l-.16,0-.18,0-.17-.06-.2.08-.22.06-.22,0-.1,0-.1-.1h-.3l-.14,0-.12-.1h-.17l-.18-.1-.16-.08-.08,0h-.1l-.06-.16-.06-.05-.08,0-.2-.12-.16-.14-.16-.18-.17-.14v-.1l0-.1-.06-.08,0-.12L306,427l-.12-.12.1-.29v-.14l-.06,0-.1,0,.08-.12v-.16l-.06-.26.06-.1,0-.1-.06-.06,0-.1.06,0,0,0,.06-.12-.08-.06,0,0v0l0,0,.2-.18.19-.22.08-.12v-.08l0-.06.06,0,0,0,0-.12,0-.12,0,0,.08,0,.18-.22.16-.22.12-.08.08-.07,0-.06v-.06l.22-.06.22-.1.21-.08.24,0,.16.12.1,0,.12,0,0,.12.06.08.08.07.06.1.06,0h.18l.1-.07.06-.1.06-.2,0-.22.06-.1.07-.08.1-.14,0-.1v-.1l.24-.34.12-.18.08-.17.12-.08.06-.1.06-.08.1-.06,0-.14.08-.1.06-.1,0-.12,0-.1.08-.06.06-.06,0-.08.12,0,.09-.06.1-.16.12-.13.08-.06.12,0,.1,0h.08l.1-.1.1-.1.06,0h.08l0-.08.06,0,.12-.06.14-.06,0,0,.06-.06.39,0,.2,0,.1,0,.08-.08.1,0h.1l.18.06.16.06h.2Zm-.3,1.21-.28,0-.28.08-.48.26-.19.1-.1.06-.1,0-.1,0,0,0v.26l-.06,0-.1,0-.08.17-.14.12-.14.12-.1.18,0,.06,0,.06,0,.06,0,.08h-.1l-.08,0-.1.14-.09.14-.06.08-.08,0,0,.12-.06.14-.08.13-.06.14,0,.06,0,0,.14.06h.25l.24-.08.22-.14.2-.18h.28l.26-.05.23-.1.24-.14.06-.1.1-.1.06-.12,0-.06,0-.08.16-.12.18-.06.1-.22,0-.1v-.12l0,0,0,0,0-.12,0-.1.06-.1.08-.08,0-.06,0-.16,0-.36-.06-.08Zm1.91,3.18-.28,0-.26,0-.54.1,0,.08-.06,0-.16,0-.15,0-.06,0-.06.06-.12,0-.12.06-.22.14-.2.16-.14.06-.12,0-.1.06-.12,0-.08.08,0,.09.18.12.2.06.2,0,.2,0h.18l.16,0,.16-.06.13-.08.1,0,.08,0,.18,0,.08-.06,0-.08,0-.07.06-.06.52-.2.24-.14.22-.18v-.1l0-.08-.07-.06-.05,0Zm-7.18.56-.12.1-.08.1-.12.25-.15.12,0,.08v.1l-.12.2-.16.22v.1l0,.1-.1.22,0,.1,0,.09.06.1.12.08.12.14.08.06,0,.1.14.1.17.06.36.06.38,0,.18,0,.16.08.08,0,0-.06.06-.14L309,427l0-.1,0-.1-.1-.06.08-.06,0-.07-.06-.12-.06-.16,0-.08,0-.08,0-.06,0-.06v-.12l0-.14,0,0-.06,0,0-.08v0l-.08,0-.1,0-.1,0,0-.06,0,0,.06-.06,0-.06-.06-.1,0-.13,0-.28,0-.06-.06,0Zm1.49,1-.08,0,0,0,.12.1,0,.06V426l.06.1.1.1.08.08,0,.06,0,.08,0,.12.14.21.08.06.1,0,.18,0v.08l0,.06,0,.12.06.06.08,0h.1l.21,0h.1l.08,0h.1l.06,0,0,.06,0,.06,0,.16.06.14.14.1.16.06h.34l.34,0h.17l.16.06.12,0,.12,0H313l.24,0,.12,0,.1-.08.1-.14.14-.1.11-.1,0-.08,0-.1-.15-.1-.18,0-.14-.06-.14,0-.28,0-.6.1-.08-.06-.07,0h-.34l-.16-.08-.14.06h-.12l-.24-.06-.26-.05-.14,0-.13,0-.18-.12-.2-.08-.2-.12-.16-.18,0-.08,0-.06.14-.1,0-.06,0-.06,0-.08,0-.08-.14,0h-.14l-.28.06Z" transform="translate(-226 -382.89)"/><path class="cls-1" d="M328.32,443.37a3.16,3.16,0,1,0-3.16-3.16,3.17,3.17,0,0,0,3.16,3.16Zm0-.54a2.62,2.62,0,1,0-2.62-2.62,2.62,2.62,0,0,0,2.62,2.62Zm-1.06-.77v-3.7h1a1.36,1.36,0,0,1,.85.23,1,1,0,0,1,.31.39,1.14,1.14,0,0,1,.11.53,1.19,1.19,0,0,1-.1.49,1,1,0,0,1-.28.38.77.77,0,0,1-.48.19l1,1.49h-.63l-1.26-1.91h.41a.84.84,0,0,0,.57-.17.63.63,0,0,0,.2-.48.68.68,0,0,0-.18-.48.61.61,0,0,0-.24-.15,1.3,1.3,0,0,0-.38-.05h-.42v3.24Z" transform="translate(-226 -382.89)"/></g><g id="Layer_2" data-name="Layer 2"><path class="cls-5" d="M232.61,452.57h.28a1.66,1.66,0,0,0,.37,0,.62.62,0,0,0,.22-.15.82.82,0,0,0,.18-.58.84.84,0,0,0-.18-.58.62.62,0,0,0-.22-.15,1.77,1.77,0,0,0-.37,0h-.28Zm-1.25,3.26v-5.94h1.72a2.64,2.64,0,0,1,.76.1,1.49,1.49,0,0,1,.54.34,2,2,0,0,1,.59,1.51,1.82,1.82,0,0,1-.74,1.56,1.52,1.52,0,0,1-.49.25,3.43,3.43,0,0,1-.73.06h-.4v2.12Z" transform="translate(-226 -382.89)"/><path class="cls-5" d="M236.82,452.56h.49a.73.73,0,0,0,.54-.21.83.83,0,0,0,0-1.1.73.73,0,0,0-.54-.21h-.49Zm-1.25-2.67h1.73a2.74,2.74,0,0,1,.91.12,1.51,1.51,0,0,1,.63.39,1.87,1.87,0,0,1,.53,1.36A2,2,0,0,1,239,453a1,1,0,0,1-.33.29,1.72,1.72,0,0,1-.49.17l1.48,2.36h-1.48l-1.34-2.5v2.5h-1.25Z" transform="translate(-226 -382.89)"/><path class="cls-5" d="M242.09,450.89a.75.75,0,0,0-.68.51,3.32,3.32,0,0,0-.25,1.44,3.64,3.64,0,0,0,.24,1.48.72.72,0,0,0,1.38,0,3.62,3.62,0,0,0,.24-1.47,3.5,3.5,0,0,0-.24-1.44.77.77,0,0,0-.69-.51m0-1.15a1.92,1.92,0,0,1,1.65.84,4,4,0,0,1,.59,2.33,4.53,4.53,0,0,1-.29,1.65,2.38,2.38,0,0,1-.8,1.09,1.93,1.93,0,0,1-1.15.33,1.9,1.9,0,0,1-1.64-.83,3.93,3.93,0,0,1-.59-2.32,4.48,4.48,0,0,1,.23-1.51,2.51,2.51,0,0,1,.64-1.07,1.88,1.88,0,0,1,1.36-.51" transform="translate(-226 -382.89)"/><path class="cls-5" d="M246.28,454.68h.45a1,1,0,0,0,.74-.24,2.05,2.05,0,0,0,.46-1.55,2.37,2.37,0,0,0-.41-1.57.74.74,0,0,0-.34-.22,2.09,2.09,0,0,0-.58-.06h-.32ZM245,455.83v-5.94h1.78a2.74,2.74,0,0,1,.92.14,1.79,1.79,0,0,1,.68.46,2.49,2.49,0,0,1,.61,1,3.85,3.85,0,0,1,.22,1.34,4.08,4.08,0,0,1-.23,1.38,2.66,2.66,0,0,1-.64,1,2,2,0,0,1-.68.43,2.67,2.67,0,0,1-.9.13Z" transform="translate(-226 -382.89)"/><path class="cls-5" d="M249.88,449.89h1.25v4a1.62,1.62,0,0,0,0,.45.56.56,0,0,0,.17.27.75.75,0,0,0,.58.22.88.88,0,0,0,.62-.21.59.59,0,0,0,.17-.28,1.25,1.25,0,0,0,0-.45v-4H254v4a3.14,3.14,0,0,1-.12.95,1.41,1.41,0,0,1-.41.61,2,2,0,0,1-.68.39,2.77,2.77,0,0,1-.86.14,2.61,2.61,0,0,1-.79-.12,2,2,0,0,1-.66-.33,1.5,1.5,0,0,1-.47-.63,3,3,0,0,1-.14-1Z" transform="translate(-226 -382.89)"/><polygon class="cls-5" points="30.1 67 30.1 69.32 31.45 67 32.74 67 31.26 69.38 32.94 72.94 31.57 72.94 30.46 70.29 30.1 70.82 30.1 72.94 28.85 72.94 28.85 67 30.1 67"/><polygon class="cls-5" points="33.83 72.94 33.83 68.15 32.82 68.15 32.82 67 36.08 67 36.08 68.15 35.08 68.15 35.08 72.94 33.83 72.94"/><polygon class="cls-5" points="39.85 72.94 39.85 67 42.83 67 42.83 68.15 41.1 68.15 41.1 69.26 42.83 69.26 42.83 70.4 41.1 70.4 41.1 71.8 42.83 71.8 42.83 72.94 39.85 72.94"/><polygon class="cls-5" points="44.82 67 44.82 69.32 46.17 67 47.46 67 45.98 69.38 47.66 72.94 46.28 72.94 45.17 70.29 44.82 70.82 44.82 72.94 43.57 72.94 43.57 67 44.82 67"/><path class="cls-5" d="M275.87,450.89a.77.77,0,0,0-.69.51,3.5,3.5,0,0,0-.24,1.44,3.64,3.64,0,0,0,.24,1.48.71.71,0,0,0,1.37,0,3.62,3.62,0,0,0,.24-1.47,3.5,3.5,0,0,0-.24-1.44.76.76,0,0,0-.68-.51m0-1.15a1.92,1.92,0,0,1,1.65.84,4,4,0,0,1,.59,2.33,4.33,4.33,0,0,1-.29,1.65,2.36,2.36,0,0,1-.79,1.09,2,2,0,0,1-1.16.33,1.9,1.9,0,0,1-1.64-.83,4,4,0,0,1-.59-2.32,4.74,4.74,0,0,1,.23-1.51,2.61,2.61,0,0,1,.64-1.07,1.9,1.9,0,0,1,1.36-.51" transform="translate(-226 -382.89)"/><polygon class="cls-5" points="52.8 72.94 52.8 67 54.05 67 54.05 71.8 55.56 71.8 55.56 72.94 52.8 72.94"/><path class="cls-5" d="M284.07,450.89a.75.75,0,0,0-.69.51,4.39,4.39,0,0,0,0,2.92.74.74,0,0,0,.68.52.76.76,0,0,0,.69-.53,3.62,3.62,0,0,0,.24-1.47,3.32,3.32,0,0,0-.25-1.44.75.75,0,0,0-.67-.51m0-1.15a1.92,1.92,0,0,1,1.65.84,4,4,0,0,1,.59,2.33,4.33,4.33,0,0,1-.29,1.65,2.36,2.36,0,0,1-.79,1.09,2,2,0,0,1-1.16.33,1.9,1.9,0,0,1-1.64-.83,3.93,3.93,0,0,1-.59-2.32,4.48,4.48,0,0,1,.23-1.51,2.51,2.51,0,0,1,.64-1.07,1.9,1.9,0,0,1,1.36-.51" transform="translate(-226 -382.89)"/><path class="cls-5" d="M288.9,452.55h2.36v.7a5.14,5.14,0,0,1-.11,1.13,2.32,2.32,0,0,1-.37.81,1.93,1.93,0,0,1-1.67.79,2,2,0,0,1-1.69-.83,3.64,3.64,0,0,1-.62-2.23,3.88,3.88,0,0,1,.62-2.33,2,2,0,0,1,1.7-.85,1.93,1.93,0,0,1,1.75.93,2.48,2.48,0,0,1,.36,1.28h-1.31c-.05-.71-.32-1.06-.79-1.06a.82.82,0,0,0-.76.52,3.43,3.43,0,0,0-.26,1.49,4.62,4.62,0,0,0,.07.82,2.25,2.25,0,0,0,.18.61.83.83,0,0,0,.78.51.72.72,0,0,0,.59-.29,1.17,1.17,0,0,0,.23-.74v-.11H288.9Z" transform="translate(-226 -382.89)"/><rect class="cls-5" x="65.96" y="67" width="1.25" height="5.94"/><path class="cls-5" d="M298.42,452.22h-1.29a2.53,2.53,0,0,0-.16-.81.75.75,0,0,0-.73-.52.83.83,0,0,0-.75.53,4,4,0,0,0,0,2.88.83.83,0,0,0,.75.53.75.75,0,0,0,.73-.52,2.54,2.54,0,0,0,.16-.82h1.29a2.78,2.78,0,0,1-.37,1.44,2.11,2.11,0,0,1-3.52.2,3,3,0,0,1-.46-1,4.73,4.73,0,0,1-.17-1.26,4.79,4.79,0,0,1,.17-1.26,2.89,2.89,0,0,1,.46-1,2,2,0,0,1,1.7-.86,2,2,0,0,1,1.82,1.06,2.71,2.71,0,0,1,.37,1.42" transform="translate(-226 -382.89)"/><polygon class="cls-5" points="74.35 67 74.35 69.32 75.69 67 76.99 67 75.5 69.38 77.18 72.94 75.81 72.94 74.7 70.29 74.35 70.82 74.35 72.94 73.1 72.94 73.1 67 74.35 67"/><path class="cls-5" d="M304.19,448.71l1.83-1,.42.86-1.89.83Zm-.68,7.12v-5.94h3V451h-1.73v1.11h1.73v1.14h-1.73v1.39h1.73v1.15Z" transform="translate(-226 -382.89)"/><polygon class="cls-5" points="81.23 72.94 81.23 67 82.48 67 82.48 69.26 83.97 69.26 83.97 67 85.22 67 85.22 72.94 83.97 72.94 83.97 70.4 82.48 70.4 82.48 72.94 81.23 72.94"/><path class="cls-5" d="M314.16,450.89a.75.75,0,0,0-.69.51,4.39,4.39,0,0,0,0,2.92.74.74,0,0,0,.68.52.76.76,0,0,0,.69-.53,3.62,3.62,0,0,0,.24-1.47,3.5,3.5,0,0,0-.24-1.44.77.77,0,0,0-.68-.51m0-1.15a1.92,1.92,0,0,1,1.65.84,4,4,0,0,1,.59,2.33,4.33,4.33,0,0,1-.29,1.65,2.36,2.36,0,0,1-.79,1.09,2,2,0,0,1-1.16.33,1.9,1.9,0,0,1-1.64-.83,4,4,0,0,1-.59-2.32,4.48,4.48,0,0,1,.23-1.51,2.51,2.51,0,0,1,.64-1.07,1.9,1.9,0,0,1,1.36-.51" transform="translate(-226 -382.89)"/><polygon class="cls-5" points="92.46 72.94 92.46 71.84 94.4 68.15 92.65 68.15 92.65 67 95.78 67 95.78 68.15 93.88 71.8 95.78 71.8 95.78 72.94 92.46 72.94"/><polygon class="cls-5" points="96.38 72.94 96.38 67 99.36 67 99.36 68.15 97.63 68.15 97.63 69.26 99.36 69.26 99.36 70.4 97.63 70.4 97.63 71.8 99.36 71.8 99.36 72.94 96.38 72.94"/><path class="cls-5" d="M326.1,455.83v-5.94h1.78l.59,2.37a15.71,15.71,0,0,1,.29,1.58,14,14,0,0,1,.28-1.59l.6-2.36h1.78v5.94h-1.25v-3.6a9.74,9.74,0,0,1,.08-1c0,.15-.06.26-.07.3l-.09.47-.06.32-.85,3.54h-.86l-.86-3.57c0-.09-.05-.23-.08-.41l-.06-.3c0-.05,0-.17-.07-.35a15.52,15.52,0,0,1,.09,1.8v2.83Z" transform="translate(-226 -382.89)"/><path class="cls-5" d="M333.27,449.35l-1-1.33h1.11l.41.67.4-.67h1.11l-1,1.33Zm-1,6.48v-5.94h3V451h-1.74v1.11h1.74v1.14h-1.74v1.39h1.74v1.15Z" transform="translate(-226 -382.89)"/><path class="cls-5" d="M337.29,454.68h.45a1,1,0,0,0,.74-.24,2.05,2.05,0,0,0,.46-1.55,2.37,2.37,0,0,0-.41-1.57.74.74,0,0,0-.34-.22,2,2,0,0,0-.57-.06h-.33ZM336,455.83v-5.94h1.78a2.74,2.74,0,0,1,.92.14,1.79,1.79,0,0,1,.68.46,2.62,2.62,0,0,1,.62,1,4.32,4.32,0,0,1,0,2.72,2.66,2.66,0,0,1-.64,1,1.91,1.91,0,0,1-.68.43,2.6,2.6,0,0,1-.9.13Z" transform="translate(-226 -382.89)"/><path class="cls-5" d="M341.89,449.35l-1-1.33H342l.41.67.41-.67H344l-1,1.33Zm-.95,6.48v-5.94h3V451h-1.74v1.11h1.74v1.14h-1.74v1.39h1.74v1.15Z" transform="translate(-226 -382.89)"/><polygon class="cls-5" points="118.67 72.94 118.67 67 119.91 67 119.91 71.8 121.43 71.8 121.43 72.94 118.67 72.94"/><path class="cls-5" d="M351.63,451.49h-1.29a.73.73,0,0,0-.19-.46.66.66,0,0,0-.48-.14.58.58,0,0,0-.44.17.55.55,0,0,0-.18.43.5.5,0,0,0,.17.4,3.45,3.45,0,0,0,.78.34,5.18,5.18,0,0,1,.77.31,1.66,1.66,0,0,1,.44.36,1.73,1.73,0,0,1,.46,1.21,1.78,1.78,0,0,1-.56,1.35,2,2,0,0,1-1.46.52,1.9,1.9,0,0,1-1.57-.7,2,2,0,0,1-.43-1.26H349c.06.55.3.82.73.82a.65.65,0,0,0,.48-.18.59.59,0,0,0,.19-.46.63.63,0,0,0-.22-.5,2.87,2.87,0,0,0-.7-.31,3.68,3.68,0,0,1-1.19-.59,1.82,1.82,0,0,1,0-2.55,1.9,1.9,0,0,1,1.38-.51,2,2,0,0,1,1.37.46,1.91,1.91,0,0,1,.59,1.29" transform="translate(-226 -382.89)"/><polygon class="cls-5" points="126.98 72.94 126.98 68.15 125.98 68.15 125.98 67 129.23 67 129.23 68.15 128.23 68.15 128.23 72.94 126.98 72.94"/><path class="cls-5" d="M356.76,449.89l.71,2.55a8.36,8.36,0,0,1,.27,1.64c0-.25.05-.53.1-.83a6.49,6.49,0,0,1,.19-.84l.7-2.52H360l-1.71,5.94h-1.13l-1.71-5.94Z" transform="translate(-226 -382.89)"/><path class="cls-5" d="M360.23,448.71l1.71-1,.43.84-1.77.85Zm1.46,7.12h-1.25v-5.94h1.25Z" transform="translate(-226 -382.89)"/></g></svg>