<svg xmlns="http://www.w3.org/2000/svg" fill="none" viewBox="0 0 72 68">
  <path stroke="#333" stroke-linecap="round" stroke-linejoin="round" d="M49.421 1.879C61.915 7.183 70.68 19.595 70.68 34.055a34.843 34.843 0 0 1-4.738 17.595M9.407 11.303A34.832 34.832 0 0 0 1 34.055c0 14.744 9.114 27.356 22 32.479"/>
  <path stroke="#633" stroke-linecap="round" stroke-linejoin="round" d="M31.41 23.506s-6.405-.209-8.884 1.875c-2.48 2.084-6.268-.417-7.37-.417-1.102 0-4.549-1.875-4.96.209-.41 2.084-.138 5.209-.62 6.666-.482 1.458-1.16 18.056 13.432 26.53 10.883 6.32 11.64 8.82 14.19 7.43 2.548-1.388 4.063-2.986 4.2-8.958.138-5.973 2.48-15.557 4.478-18.89 1.998-3.333 1.584-7.778 1.24-10.07"/>
  <path stroke="#633" stroke-linecap="round" stroke-linejoin="round" d="M38.093 65.741s2.375 1.457 7.863-.985c5.49-2.442 5.698-2.731 6.74-4.383 1.042-1.652 3.404-3.951 3.612-4.023.209-.071 3.239-6.005 3.4-7.597.013-.14.026-.278.046-.416.073-.512.176-1.612-.29-1.56M42.447 10.31s.353-6.783.295-7.171c-.058-.388-1.941-1.221-2.57-1.554-.627-.333-3.198-1-4.732-.226-1.535.775-3.162 1.721-2.697 2.33.464.609 1.86.944 3.023.777 1.163-.167 3.43-.999 4.709-.832"/>
  <path stroke="#633" stroke-linecap="round" stroke-linejoin="round" d="M32.662 3.327s.744 2.305.776 5.431"/>
  <path stroke="#633" stroke-linecap="round" stroke-linejoin="round" d="M24.233 10.31s.774-3.512.302-4.255c-.472-.743-1.246-1.578-1.179-1.95.068-.37 0-.463.81-.587.808-.124 1.25-.307 1.347-.434.096-.127 1.786-.185 1.988 0 .202.185.64-.017.708-.117.067-.1 1.55-.594 2.56-.347 1.012.247 2.2.632 2.67 1.662"/>
  <path stroke="#633" stroke-linecap="round" stroke-linejoin="round" d="M24.904 4.879s1.22.578 1.81 1.662c.589 1.083 1.677.526 2.203.495.526-.032 1.019-.65 1.513-.557.494.092.854.371 1.183.433.329.062.272-1.063.359-1.432.077-.327.454-.487.69-.487m-17.069 8.421s2.47-3.505 3.164-3.683c.694-.178 1.362-.585 1.59-1.167.229-.581.659-1.991 1.956-2.664.46-.24 1.719-.323 1.825-.162"/>
  <path stroke="#633" stroke-linecap="round" stroke-linejoin="round" d="M48.769 50.492s5.946 1.05 9.65-2.182a4.566 4.566 0 0 0 1.496-2.748c.271-1.76 1.04-4.618 1.422-5.887.48-1.604 3.311-13.395 0-17.65-3.312-4.256-2.168-6.32-8.624-8.649-2.899-1.05-3.106-.907-3.381-1.884-.276-.977-.346-1.046-1.45-.697-1.103.348-3.037 1.116-3.517.278-.48-.837-1.172-.8-2.828-.47-1.657.33-4.277-2.04-8.141-1.831-3.864.209-8.141 1.744-9.592 1.535-1.45-.208-7.52.698-9.522 4.884-2.001 4.186-4.18 8.061-3.021 9.158"/>
  <path fill="#633" d="M35.855 2.108s-.874.433-1.091.508c-.218.074-.82.317-.411.547.41.23.772.162 1.026.128s1.574-.18 1.651-.21c.078-.03.735-.201.96-.215.223-.014 2.263-.17 2.403-.243.14-.073-.276-.18-.612-.329-.337-.148-2.718-.966-3.926-.186Zm-8.947 2.836s1.253.938 1.305 1.119c.052.18.209.4.453.364.244-.037.435-.07.452-.364.018-.295.56-.401.818-.375.259.026.749.175.766 0 .018-.176.383-1.163.766-1.181.383-.019.644-.147.14-.384-.505-.238-1.393-.987-2.124-.75-.731.238-1.044.658-1.2.64-.155-.019-1.044-.336-1.166-.359-.122-.023-.608-.084-.783.12-.174.206-1.684.18.573 1.17Zm32.851 35.372c-.062.53-.16 1.056-.295 1.574-.254 1.008-.77 3.004-.923 3.338-.207.453-1.686 2.321-3.47 2.611-2.405.388-5.952 1.425-7.353-1.606-.45-.974-1.605-3.765-.828-5.321.776-1.556 2.009 4.568 6.208 3.79 4.2-.78-.823-5.598 1.2-8.208 1.908-2.47 6.062-1.775 5.46 3.822ZM46.91 51.208a9.397 9.397 0 0 0 3.301.87c.976.076 2.043.127 2.618.036 1.235-.196 4.133-1.204 4.358-1.4.225-.197.814 0-.701 2.147-1.516 2.147-5.22 7.412-5.751 7.608-.53.196-8.164 4.288-9.23 4.148-1.066-.14.95-1.894 1.244-2.89.175-.591.676-3.001.57-4.994-.082-1.52.119-4.533.512-5.22.336-.596.904-1.344 3.08-.305Zm-6.577-7.37a.518.518 0 0 1 .822.188.53.53 0 0 1 .028.324 16.792 16.792 0 0 1-.44 1.649c-.327.924-1.178 4.093-1.046 5.347.131 1.255.43 3.103-.014 3.237-.444.135-.837.594-1.949 0-.31-.166-.11.948 1.243 1.585.56.264.458 1.848.262 2.575-.196.726-.262 1.98-.85 2.046-.589.067-.386 1.167-1.105 1.167s.685 1.305 1.863-.809c1.177-2.115 1.38-3.75 1.4-4.127.009-.192 1.048 1.303-1.844 5.933-.175.28-2.245-.541-2.986-.169-.741.372-2.71.486-3.296-.324-.586-.809-3.698-3.463-4.87-4.011-1.173-.548-3.19-2.805-4.298-2.98-1.108-.175-6.668-3.29-7.294-5.087-.626-1.798-1.308-4.125-2.045-5.592-.737-1.467-2.477-6.074-2.976-7.325 0 0 .475.215 1.652 2.525s.29.697.36-1.42c.046-1.375.278 2.473 2.379 4.795.542.599-1.703-3.945-1.533-5.013.316-1.99 1.937 3.885 3.41 5.152 1.174 1.013-2.23-4.936-2.033-5.725.197-.79 1.08.528 1.144.99.065.462 1.145.162 1.145-.198s2.06 2.938 2.615 4.258c.555 1.32.098-1.254.785-.56.687.693 1.929 1.716 1.733 1.088-.197-.627-.916-1.716-.066-1.419.85.297 4.12 1.915 3.923 1.287-.196-.627-.784-1.221.327-.76 1.112.463 3.695 1.42 2.976.76-.72-.659-2.224-3.003-3.336-3.334-1.111-.33-.064-.89.458-.56.523.329 3.4 3.398 4.12 4.026.72.628 1.438.793 1.176.199-.26-.594-1.078-1.156-.424-1.057.654.098 1.21.162 1.47.462.262.3.722.528.393-.132-.328-.66 0-.76.686 0s1.668 1.221 3.041 1.42c1.373.198 2.158.858 2.485.198.132-.232.305-.439.509-.609Z"/>
</svg>
