<svg xmlns="http://www.w3.org/2000/svg" fill="none" viewBox="0 0 110 91">
  <path stroke="#333" stroke-linecap="round" stroke-linejoin="round" stroke-width="1.8" d="M101.607 59.357a43.559 43.559 0 0 0 2.148-13.244"/>
  <path fill="#CD3B1F" stroke="#CD3B1F" stroke-linecap="round" stroke-linejoin="round" stroke-width="1.8" d="m108.284 33.55-9.565 2.65v-1.576a1.96 1.96 0 0 0-1.963-1.96H23.183a1.961 1.961 0 0 0-1.965 1.962v1.531l-9.397-2.604a.563.563 0 0 0-.716.543v6.12a.566.566 0 0 0 .396.54l9.717 3.025v24.217a10.857 10.857 0 0 0 10.857 10.858h55.787A10.857 10.857 0 0 0 98.72 67.998v-24.17l9.885-3.075a.564.564 0 0 0 .396-.539v-6.12a.56.56 0 0 0-.459-.554.562.562 0 0 0-.257.01ZM47.772 68.758a1.581 1.581 0 0 1-1.58 1.58H35.386a7.262 7.262 0 0 1-7.26-7.26V41.761a1.581 1.581 0 0 1 1.579-1.58h16.489a1.58 1.58 0 0 1 1.58 1.58v26.995ZM62.836 12.34c-39.544-3.912-38.47 8.012-38.37 8.302.101.29 36.71 3.4 36.71 3.4s36.81 3.401 37.299 3.498c.489.097 3.833-11.294-35.64-15.2Zm-17.18 1.686c-1.37.3-5.6 1.463-7.357 4.748a1.38 1.38 0 0 1-1.29.725c-2.31-.112-7.522-.457-8.108-.557-.184-.03-.587-4.244 16.737-4.983.044.005.055.058.018.067Zm28.597-9.33-.258 3.978A1.96 1.96 0 0 1 71.91 10.5l-14.72-.97a1.96 1.96 0 0 1-1.827-2.087l.258-3.975a1.962 1.962 0 0 1 2.087-1.828l14.718.976a1.961 1.961 0 0 1 1.827 2.08Z"/>
  <path stroke="#333" stroke-linecap="round" stroke-linejoin="round" stroke-width="1.8" d="M16.35 46.16a43.636 43.636 0 0 0 2.115 13.1M35.64 82.035a43.726 43.726 0 0 0 49.095-.184m7.855-65.253a43.175 43.175 0 0 0-2.538-2.605M35.277 9.77a43.42 43.42 0 0 1 16.33-6.88m28.391 3.982a46.725 46.725 0 0 0-2.523-1.197"/>
  <path stroke="#4F2817" stroke-linecap="round" stroke-linejoin="round" stroke-width="1.3" d="M13.154 23.46c-.205.576-.893.923-1.863 1.03-1.16.13-2.722-.082-4.345-.658-1.624-.576-2.967-1.395-3.79-2.226-.684-.696-.999-1.4-.795-1.976.449-1.266 3.224-1.434 6.208-.377 2.984 1.056 5.033 2.941 4.585 4.206Z"/>
  <path stroke="#4F2817" stroke-linecap="round" stroke-linejoin="round" stroke-width="1.3" d="m13.154 23.46-1.068 3.013c-.449 1.266-3.224 1.434-6.208.378s-5.03-2.94-4.584-4.204l1.067-3.009c-.204.575.11 1.28.794 1.976.82.83 2.167 1.65 3.79 2.226 1.624.575 3.187.788 4.346.659.97-.116 1.657-.463 1.863-1.04Z"/>
  <path stroke="#CB6566" stroke-linecap="round" stroke-linejoin="round" stroke-width="1.3" d="M13.362 10.948c.377-.197.894-.052 1.442.35.655.482 1.355 1.33 1.915 2.39.56 1.062.863 2.12.888 2.93.022.68-.15 1.19-.526 1.388-.828.436-2.33-.79-3.353-2.739-1.022-1.949-1.199-3.882-.366-4.319Z"/>
  <path stroke="#CB6566" stroke-linecap="round" stroke-linejoin="round" stroke-width="1.3" d="m13.363 10.948 1.968-1.032c.828-.436 2.33.792 3.353 2.74 1.022 1.949 1.189 3.882.362 4.318l-1.968 1.032c.377-.199.548-.708.526-1.388-.026-.811-.329-1.869-.888-2.93-.56-1.061-1.26-1.909-1.915-2.39-.55-.402-1.067-.548-1.438-.35Z"/>
  <path stroke="#CB6566" stroke-linecap="round" stroke-linejoin="round" d="M22.926 27.096c-.235.207-.63.192-1.091 0-.552-.231-1.2-.715-1.782-1.376-.583-.662-.984-1.365-1.144-1.935-.13-.482-.1-.875.135-1.083.516-.455 1.806.161 2.875 1.376 1.069 1.215 1.523 2.563 1.007 3.018Z"/>
  <path stroke="#CB6566" stroke-linecap="round" stroke-linejoin="round" d="M22.926 27.096 21.7 28.178c-.516.455-1.806-.16-2.875-1.375s-1.523-2.569-1.007-3.024l1.226-1.082c-.234.208-.268.601-.135 1.084.16.575.56 1.277 1.144 1.934.584.656 1.23 1.145 1.782 1.376.462.197.856.213 1.091.005Z"/>
  <path stroke="#CB6566" stroke-linecap="round" stroke-linejoin="round" stroke-width="1.3" d="M103.821 10.611c.191.387.032.894-.387 1.434-.495.645-1.356 1.326-2.429 1.864-1.073.538-2.136.816-2.95.826-.68.007-1.185-.175-1.374-.555-.42-.837.84-2.314 2.81-3.3 1.97-.984 3.912-1.1 4.33-.269Z"/>
  <path stroke="#CB6566" stroke-linecap="round" stroke-linejoin="round" stroke-width="1.3" d="m103.821 10.611.996 1.989c.417.837-.841 2.313-2.81 3.299-1.97.985-3.908 1.106-4.326.27l-.994-1.99c.19.387.695.563 1.375.556.813-.01 1.876-.29 2.949-.826 1.073-.537 1.934-1.219 2.43-1.864.412-.531.571-1.047.38-1.434Z"/>
  <path stroke="#4F2817" stroke-linecap="round" stroke-linejoin="round" stroke-width="1.3" d="M90.996 8.29c-.129.407-.59.674-1.26.785-.802.129-1.897.039-3.047-.306-1.15-.344-2.116-.865-2.715-1.418-.5-.462-.744-.94-.623-1.348.269-.903 2.193-1.112 4.308-.48 2.115.63 3.603 1.874 3.337 2.767Z"/>
  <path stroke="#4F2817" stroke-linecap="round" stroke-linejoin="round" stroke-width="1.3" d="m90.996 8.29-.637 2.132c-.267.896-2.192 1.11-4.306.481-2.113-.63-3.61-1.867-3.337-2.763l.636-2.132c-.122.407.122.886.623 1.347.598.55 1.565 1.072 2.714 1.419 1.15.347 2.245.437 3.047.306.67-.111 1.131-.378 1.26-.79Z"/>
</svg>
