<svg xmlns="http://www.w3.org/2000/svg" fill="none" viewBox="0 0 31 30">
  <path fill="#5A1B20" d="M24.77 16.712c-.01-.367 0-1.408 0-1.408a1.619 1.619 0 0 0-.01-.098l-.877.41c.007.113 0 .226-.02.338-.024.12-.251 2.025-3.14 2.625-1.434.297-2.736.554-4.127.658.003.541.01 2.08.011 3.24 3.468-.158 6.269-1.262 7.266-2.246.975-.957.93-2.551.897-3.52Zm-1.038-3.35-.186.384.363-.204a6.442 6.442 0 0 0-.179-.18h.002Zm-1.77-.222.32-.788a7.827 7.827 0 0 0-2.325-.72c-3.206-.479-5.365.79-6.2 1.303-.836.513-2.812 1.103-4.934 1.357a3.591 3.591 0 0 0-.93.231l1.44.524c2.114-.475 4.322-.806 5.584-1.733 1.171-.861 3.445-.862 3.445-.862s1.993-.146 3.6.69v-.002Zm-10.11 5.835c-3.632-.637-4.39-1.726-4.53-2.182a1.013 1.013 0 0 1-.056-.354l-.817-.278c-.024.11-.036.222-.037.334v2.115c-.004.62.236 1.216.668 1.66 1.432 1.454 4.437 2.06 7.524 2.196v-3.19a20.393 20.393 0 0 1-2.752-.3Z"/>
  <path fill="#5A1B20" d="m8.684 16.921 4.964 1.688c-.97-.088-2.17-.24-2.85-.478-1.035-.364-1.904-.736-2.114-1.21Zm7.506.109-.615.288-5.209-1.891.114-.024c.262-.052 1.637-.603 2.708-.33.32.083.867.303 1.46 1.127.232.317.923.609 1.542.83Zm5.181-2.434-3.855 1.81c-.196-.08-.388-.143-.534-.203-.726-.293-1.558-.452-1.605-1.187-.035-.524.12-.941 1.366-1.52 2.24-1.04 4.308.045 4.572.189.063.034.19.098.346.196l-.29.715Zm1.382 1.551c-.285 1.454-2.237 2.086-3.333 1.782a.995.995 0 0 1-.24-.104l3.573-1.678Z"/>
  <path stroke="#333" stroke-linecap="round" stroke-linejoin="round" stroke-width=".5" d="M19.51 28.193a13.843 13.843 0 0 0 8.805-6.506M3.18 10.575A13.84 13.84 0 0 1 7 4.566m8.598 13.698v10.77l-11.03-5.905L1 13.14l14.598 5.125Zm0 0 15.052-7.072-2.336 9.212-12.716 8.63"/>
  <path stroke="#333" stroke-linecap="round" stroke-linejoin="round" stroke-width=".5" d="m1 13.138 17.193-4.996 12.457 3.05"/>
  <path stroke="#333" stroke-linecap="round" stroke-linejoin="round" stroke-width=".5" d="m22.086 15.215 4.477-11.03 1.816 5.839M5.596 11.803 9.824 1.46l1.816 6.682m14.923-3.958-3.966-.645m-8.452-1.376L9.823 1.46m8.37 6.682v2.042"/>
  <path stroke="#CD3B1F" stroke-linecap="round" stroke-linejoin="round" stroke-width=".5" d="m21.576 2.21-6.074-1.023a1.125 1.125 0 0 0-1.296.922l-.003.02c-.104.613.31 1.194.922 1.297l6.073 1.024a1.125 1.125 0 0 0 1.297-.922l.003-.02a1.125 1.125 0 0 0-.922-1.297Z"/>
</svg>
