<svg xmlns="http://www.w3.org/2000/svg" fill="none" viewBox="0 0 34 35">
  <ellipse cx="17" cy="17.667" fill="#F8F1EC" rx="17" ry="16.92"/>
  <path fill="#333" d="M27.646 15.103a.86.86 0 0 0-.858.855v6.836a.86.86 0 0 1-.859.854H8.758a.86.86 0 0 1-.86-.854v-6.836a.853.853 0 0 0-.858-.855.853.853 0 0 0-.859.855v6.836c.001.68.273 1.331.756 1.811.483.481 1.138.752 1.82.752H25.93c.683 0 1.338-.27 1.82-.752.484-.48.755-1.132.756-1.811v-6.836a.853.853 0 0 0-.859-.855Z"/>
  <path fill="#333" d="M16.828 20.06a.862.862 0 0 0 1.03 0l10.14-7.572a.855.855 0 0 0 .258-1.05 2.582 2.582 0 0 0-2.327-1.461H8.758a2.582 2.582 0 0 0-2.327 1.46.851.851 0 0 0 .257 1.051l10.14 7.571Zm-8.07-8.375h17.171a.775.775 0 0 1 .24 0l-8.826 6.623-8.826-6.623a.775.775 0 0 1 .24 0Z"/>
</svg>
