<svg xmlns="http://www.w3.org/2000/svg" fill="none" viewBox="0 0 30 20">
  <path fill="#97BE0D" d="M29.658 0H0v19.871h29.658V0Z"/>
  <path fill="#fff" d="M10.797 4.65c.85.053 1.689.153 2.415.452-.68.255-1.198.555-1.79.833l.468-1.94c.37.74.762 1.527.969 2.267-.674-.656-1.363-1.143-2.062-1.612Zm3.73-.197 1.918.695-1.5.706c.145-.634.306-1.275.513-1.94.218.82.442 1.664.598 2.452-.486-.688-1.014-1.28-1.529-1.913Zm3.801.684c.564.096 1.16.071 1.754 0a30.06 30.06 0 0 1-1.5 1.273c.23-.65.443-1.316.642-1.997l.412 2.011c-.41-.35-.865-.778-1.308-1.287Zm3.846-.058c.469-.139 1.077-.49 1.604-.741-.438.571-.877 1.11-1.315 1.62.146-.587.357-1.198.549-1.835.146.441.258.848.459 1.247a3.955 3.955 0 0 1-1.297-.291ZM20.529 8.37c.793-.141 1.325-.382 1.963-.603-.558.571-1.214 1.346-1.674 1.713l.71-2.078c.16.579.351 1.126.54 1.675-.534-.129-1.036-.394-1.54-.708Zm-1.935 2.606c.718.176 1.357.302 2.114.243-.473.456-1.056.745-1.65 1.018.197-.582.392-1.168.56-1.812.248.655.46 1.426.748 1.93-.71-.42-1.245-.898-1.772-1.38Zm-2.074 1.691c.666.283 1.297.575 1.998.707-.509.223-1.019.444-1.558.636.151-.57.286-1.104.468-1.673.222.71.468 1.413.783 2.093-.6-.458-1.178-1.124-1.69-1.763Zm-2.722 1.043c.681.197 1.363.491 2.044.81a12.02 12.02 0 0 0-1.662.845c.229-.705.478-1.425.63-2.113.21.817.488 1.674.69 2.51-.411-.491-1.136-1.422-1.702-2.052Zm-4.067.544a9.677 9.677 0 0 1 2.3-.127c-.724.647-1.312 1.203-1.952 1.794l.896-2.808c.187.884.348 1.82.505 2.765-.455-.508-1.129-1.12-1.749-1.624ZM8.306 7.199c.881-.266 1.739-.28 2.59-.208L8.954 8.264c.21-.67.413-1.34.653-2.01.365.654.695 1.308.968 1.931-.61-.44-1.447-.728-2.27-.986Zm-1.703 3.765c.86-.437 1.73-.77 2.59-.776l-2.08 2.026.838-2.75c.313.723.622 1.52.783 2.243-.66-.314-1.349-.582-2.13-.743Z"/>
  <path fill="#fff" d="M5.097 15.645c.48-.174 1.33-.835 1.837-.98 1.423-2.44 7.134-5.813 9.792-6.084.075-.008.066.045.003.064-2.787.813-7.466 3.362-9.217 6.13C6.84 15.842 6.575 15.993 5.7 17c.278-1.068.562-2.138.931-3.237.339.835.581 1.702.83 2.567-.692-.373-1.517-.589-2.363-.684Z"/>
</svg>
