<svg xmlns="http://www.w3.org/2000/svg" width="100" height="88" fill="none" viewBox="0 0 100 88">
  <path stroke="#C87F33" stroke-linecap="round" stroke-linejoin="round" stroke-width="1.8" d="M68.505 83.506c-23.464-9.493-14.963-16.591-14.292-17.111 1.312 2.561 5.588 6.158 16.858 10.72 11.632 4.71 17.16 5.024 19.752 4.032-.019.735-.668 11.118-22.317 2.36Z"/>
  <path fill="#4F2817" stroke="#4F2917" stroke-linecap="round" stroke-linejoin="round" stroke-width="1.8" d="M90.823 81.146c-2.593.992-8.124.677-19.752-4.032-11.271-4.562-15.546-8.157-16.858-10.72-1.391-2.716.553-4.273 1.026-4.598.639.256 1.497.808 1.239 1.891-.397 1.676 1.695 2.737 3.018 2.7.761-.02 3.037-.087 4.22 2.684.81 1.89 2.743-.551 4.228 1.467 1.485 2.019 1.63 2.247 2.484 2.405.854.159 3.104.165 4.105.607 1.545.684 1.502 1.939 3.6 2.463 1.38.342 2.329-.135 3.529-.57 1.724-.617 2.987.786 4.243 1.886 1.255 1.1 2.945-.912 4.253-.312 1.058.482 2.013 1.93 2.799 1.816-.172.83-.712 1.767-2.134 2.313Z"/>
  <path stroke="#70B52C" stroke-linecap="round" stroke-linejoin="round" stroke-width="1.8" d="M95.858 76.326c-1.328-.12-1.368.322-2.247 1.938-.201.369-.416.536-.648.57-.786.114-1.741-1.334-2.798-1.816-1.309-.595-2.999 1.413-4.254.312-1.255-1.1-2.52-2.508-4.243-1.886-1.2.43-2.149.912-3.53.57-2.097-.52-2.052-1.782-3.599-2.463-1.002-.442-3.252-.447-4.105-.606-.853-.16-1-.388-2.484-2.405-1.483-2.018-3.42.421-4.228-1.468-1.188-2.771-3.465-2.704-4.22-2.685-1.322.034-3.42-1.026-3.018-2.699.258-1.083-.6-1.635-1.239-1.89l-.033-.014a1.304 1.304 0 0 1-.82-1.496c.343-1.437 2.929-1.433 3.18-1.43a9.65 9.65 0 0 0 .56.725l.007.007c.096.13.157.284.176.446.065.5.228 1.188.614 1.345a4.1 4.1 0 0 0 1.122.228c.07.006.136.033.19.078v0a.245.245 0 0 1-.012.385c-.278.212-.604.35-.949.403-.6.064-.806 1.012 1.45.181a1 1 0 0 1 .932.126l.06.043a.2.2 0 0 1 .06.259c-.18.325-.372.735-.164.718.28-.023.51-.228 1.29-.166a52.35 52.35 0 0 0 4.188 2.45.09.09 0 0 1 .034.124.09.09 0 0 1-.034.034c-.526.309-1.24.779-.93.881.389.128.35-.246 1.744-.358.28-.021.559.033.809.157a107.76 107.76 0 0 0 6.06 2.783c5.35 2.28 9.528 2.615 12.597 3.398.854.224 1.72.39 2.596.5a12.637 12.637 0 0 1 2.382 1.8c.903.844.103-.42-.657-1.735a.084.084 0 0 1 .08-.126c1.554.092 2.66-.21 3.447-.733 1.071 1.062 1.888 3.629.634 3.515Z"/>
  <path fill="#4F2817" stroke="#4F2917" stroke-linecap="round" stroke-linejoin="round" stroke-width=".2" d="M97.08 69.266c-9.54-4.668-19.5-1.124-19.956-.957-.456.166-1.873 1.086-3.503-1.127-6.809-9.246-13.299-11.594-15.977-13.061-.662.645-1.939 2.098-.075 4.738a9.653 9.653 0 0 0 .562.724l.005.007a.94.94 0 0 1 .18.446c.064.5.227 1.188.613 1.345a4.1 4.1 0 0 0 1.122.228c.07.006.136.033.19.078a.245.245 0 0 1-.012.385 2.08 2.08 0 0 1-.949.403c-.6.064-.806 1.012 1.45.181a1.002 1.002 0 0 1 .932.126l.06.043a.2.2 0 0 1 .06.259c-.18.325-.372.735-.164.718.28-.023.51-.228 1.29-.166 1.176.77 2.56 1.587 4.188 2.45a.092.092 0 0 1 0 .158c-.526.309-1.24.779-.93.881.388.128.35-.246 1.744-.358.28-.021.559.033.809.158 1.763.882 3.772 1.81 6.06 2.782 5.35 2.28 9.528 2.615 12.597 3.398.854.224 1.72.391 2.596.501a12.64 12.64 0 0 1 2.382 1.798c.903.845.103-.418-.657-1.734a.084.084 0 0 1 .08-.126c1.554.092 2.66-.21 3.447-.733 1.287-.853 1.719-2.284 1.857-3.545ZM60.734 56.529c2.404 1.017 3.452 2.205 3.675 2.486a.03.03 0 0 1 .005.016.03.03 0 0 1-.004.016.028.028 0 0 1-.03.013c-2.92-.702-3.587-1.848-3.685-2.502a.027.027 0 0 1 .025-.031c.005 0 .01 0 .014.002Zm4.239 4.947c-2.136-.738-8.648-2.655-5.86-5.77a.093.093 0 0 1 .136-.003c.011.013.02.028.023.045.128.666.894 2.965 5.438 4.199 5.011 1.366 2.216 2.203.263 1.529Zm21.324 6.069c3.74-.046 6.272.814 6.936 1.07a.062.062 0 0 1 .023.093.061.061 0 0 1-.03.02c-3.307.806-6.32-.755-6.948-1.113a.04.04 0 0 1-.015-.04.039.039 0 0 1 .03-.03h.004Zm1.381 2.66c-5.587-2.07-4.434-2.796-3.495-2.608.94.189 3.152 1.49 4.937 1.844 1.665.332 4.183.255 4.97-.027a.062.062 0 0 1 .075.085c-.298.572-1.683 2.485-6.491.705h.004Z"/>
  <path stroke="#C87F33" stroke-linecap="round" stroke-linejoin="round" stroke-width="1.8" d="M65.145 42.595a7.247 7.247 0 0 0-.618-1.56c-2.468 3.13-9.522 6.799-27.329 9.535-17.26 2.653-25.173 1.369-28.672-.836-.446 1.14-5.72 16.139 30.204 10.606 5.522-.85 9.937-1.929 13.456-3.137"/>
  <path fill="#4F2817" stroke="#4F2917" stroke-linecap="round" stroke-linejoin="round" stroke-width="1.8" d="M64.528 41.034c-2.469 3.13-9.524 6.8-27.33 9.537-17.258 2.65-25.172 1.36-28.672-.837-3.712-2.329-2.457-5.678-2.114-6.425.975-.155 2.44-.104 2.917 1.422.742 2.358 4.105 2.124 5.702 1.112.925-.583 3.684-2.338 7.184.209 2.394 1.736 2.984-2.695 6.3-1.297 3.317 1.398 3.662 1.574 4.832 1.14 1.17-.433 3.951-2.077 5.513-2.269 2.406-.296 3.278 1.292 6.249.393 1.954-.59 2.774-1.878 3.939-3.29 1.674-2.028 4.262-1.225 6.62-.79 2.359.434 2.966-3.283 5.018-3.511 1.657-.181 3.9.902 4.79.185.383 1.15.406 2.704-.948 4.421Z"/>
  <path stroke="#70B52C" stroke-linecap="round" stroke-linejoin="round" stroke-width="1.8" d="M67.199 31.389c-1.728.827-1.45 1.403-1.346 4.048.024.6-.114.967-.38 1.178-.886.717-3.129-.366-4.79-.185-2.052.228-2.66 3.946-5.017 3.51-2.356-.436-4.947-1.237-6.62.791-1.165 1.412-1.985 2.7-3.94 3.29-2.964.899-3.843-.69-6.249-.393-1.56.192-4.341 1.838-5.512 2.27-1.171.43-1.518.256-4.832-1.141s-3.907 3.032-6.294 1.297c-3.502-2.547-6.261-.792-7.184-.21-1.605 1.014-4.964 1.247-5.702-1.111-.477-1.526-1.938-1.577-2.917-1.422l-.05.007A1.873 1.873 0 0 1 4.26 42.07c-.639-2.021 2.56-3.919 2.872-4.098a15.258 15.258 0 0 0 1.223.481h.012c.217.092.407.238.551.423.447.57 1.15 1.302 1.745 1.209.51-.08 1.105-.33 1.549-.55a.488.488 0 0 1 .292-.043h.006a.353.353 0 0 1 .268.485c-.18.41-.456.881-.875 1.194-.692.52-.249 1.841 1.923-.842a1.433 1.433 0 0 1 1.242-.53l.106.009a.287.287 0 0 1 .264.276c.016.534.082 1.18.326 1.007.328-.235.463-.657 1.47-1.154 2.018.088 4.325.078 6.966-.054a.129.129 0 0 1 .117.06.129.129 0 0 1 .005.132c-.422.768-.958 1.871-.5 1.77.57-.126.252-.56 1.89-1.722.328-.232.712-.37 1.112-.4 2.824-.207 5.984-.539 9.521-1.02 8.272-1.124 13.675-3.775 18.038-5.063a28.947 28.947 0 0 0 3.562-1.29v0c.895-.02 2.336.049 4.258.469 1.737.378-.18-.592-2.084-1.657a.121.121 0 0 1 0-.215c1.986-1.026 3.128-2.214 3.715-3.437 2.101.53 4.994 3.103 3.365 3.878Z"/>
  <path fill="#4F2817" stroke="#4F2917" stroke-linecap="round" stroke-linejoin="round" stroke-width=".5" d="M63.515 21.78C48.32 23.033 38.635 34.72 38.2 35.262c-.435.543-1.513 2.715-5.148 1.184-15.196-6.403-24.928-4.539-29.307-4.374-.342 1.281-.846 4.01 3.39 5.9a15.215 15.215 0 0 0 1.222.481h.012c.217.092.407.237.551.423.447.57 1.15 1.302 1.745 1.209.51-.08 1.105-.33 1.549-.55a.489.489 0 0 1 .292-.043h.006a.353.353 0 0 1 .268.485c-.18.41-.456.881-.876 1.194-.69.52-.248 1.841 1.924-.842a1.434 1.434 0 0 1 1.242-.53l.106.009a.287.287 0 0 1 .264.276c.016.533.082 1.18.326 1.007.328-.235.463-.657 1.47-1.154 2.018.087 4.325.078 6.966-.054a.13.13 0 0 1 .122.192c-.422.768-.958 1.871-.5 1.77.57-.126.252-.56 1.89-1.722a2.21 2.21 0 0 1 1.112-.4c2.824-.207 5.984-.539 9.521-1.02 8.272-1.125 13.675-3.775 18.038-5.063a28.947 28.947 0 0 0 3.562-1.29c.895-.02 2.336.049 4.258.468 1.736.38-.18-.591-2.084-1.656a.121.121 0 0 1 0-.215c1.986-1.026 3.128-2.214 3.715-3.437.958-1.989.44-4.08-.32-5.73ZM9.314 32.773c3.713-.511 5.88.185 6.362.367a.04.04 0 0 1 .026.038.04.04 0 0 1-.026.037c-4.12 1.281-5.784.356-6.386-.38a.039.039 0 0 1 .028-.062h-.004Zm8.865 2.988c-3.177.66-12.618 3.079-11.469-2.813a.133.133 0 0 1 .228-.065c.647.727 3.279 2.996 9.795 1.184 7.189-1.995 4.36 1.091 1.45 1.694h-.004Zm30.761-8.177c4.582-2.804 8.334-3.602 9.343-3.777a.089.089 0 0 1 .078.15c-3.494 3.428-8.352 3.712-9.391 3.732a.056.056 0 0 1-.05-.043.058.058 0 0 1 .025-.061h-.005Zm3.659 2.267c-8.414 1.551-7.527-.189-6.23-.649 1.298-.46 4.985-.479 7.446-1.352 2.3-.814 5.347-2.759 6.113-3.685a.087.087 0 0 1 .094-.027.088.088 0 0 1 .06.078c.062.924-.242 4.301-7.479 5.635h-.005Z"/>
  <path fill="#C87F31" stroke="#C87F33" stroke-linecap="round" stroke-linejoin="round" stroke-width="1.8" d="M21.752 8.603c.638-.181 1.06-.664.943-1.08-.118-.415-.731-.604-1.37-.423-.638.18-1.06.664-.943 1.08.118.414.73.604 1.37.423Zm8.225-2.079c.656-.103 1.133-.532 1.067-.958-.067-.426-.653-.688-1.309-.586-.655.103-1.133.532-1.066.958.067.426.652.689 1.308.586Zm9.265-.934c.192-.387-.101-.923-.655-1.198-.554-.276-1.158-.186-1.35.2-.193.386.1.923.654 1.198.554.276 1.159.186 1.35-.2Zm5.583.702c.463-.096.784-.435.717-.757-.067-.323-.496-.507-.958-.411-.463.096-.784.435-.717.757.067.323.496.507.959.411Zm4.471 1.943c.07-.322-.248-.664-.71-.764-.461-.1-.892.08-.962.402-.07.322.248.664.71.764.462.1.892-.08.962-.402Zm-7.635.603c.386-.185.593-.553.464-.822-.129-.27-.546-.337-.932-.152-.385.185-.593.553-.464.822.13.27.546.337.932.152Zm-5.284 3.62c.036-.328-.317-.637-.788-.688-.471-.052-.883.172-.919.501-.036.329.317.637.789.689.471.052.882-.173.918-.502Zm-7.537-.794c.469-.074.807-.398.756-.725-.051-.326-.473-.532-.941-.458-.469.073-.807.398-.756.724.052.327.473.532.941.459Zm-11.054 4.041c.274-.3.326-.699.116-.89-.21-.19-.6-.102-.874.199-.274.3-.326.698-.116.889.209.19.6.102.874-.198Zm-5.965.054c.366-.323.48-.792.254-1.048-.226-.255-.705-.2-1.071.123-.366.324-.48.793-.254 1.048.226.255.706.2 1.071-.123Zm4.574-3.315c.366-.324.441-.836.168-1.144-.272-.309-.79-.297-1.156.026-.365.323-.44.836-.168 1.144.273.309.79.297 1.156-.026Zm5.485-.304c.487-.02.87-.336.855-.706-.015-.37-.422-.654-.91-.634-.488.02-.87.335-.856.705.015.37.423.654.91.634Zm4.677-2.974c.462-.158.748-.544.64-.862-.11-.319-.572-.448-1.034-.29-.462.158-.748.544-.639.862.109.319.572.448 1.033.29Zm8.054-1.009c.548-.083.95-.42.9-.753-.05-.333-.535-.536-1.082-.453-.548.083-.95.42-.9.753.05.333.535.536 1.082.453Z"/>
  <path stroke="#E2AA1D" stroke-linecap="round" stroke-linejoin="round" stroke-width="1.8" d="M97.963 69.722a21.72 21.72 0 0 0-.882-.456c-9.542-4.668-19.5-1.123-19.957-.957-.456.167-1.873 1.086-3.503-1.126-6.809-9.247-13.299-11.595-15.977-13.062-.617-.342-1.027-.626-1.205-.942-.833-1.528 3.166-2.265 3.923-2.395a2.054 2.054 0 0 0 .545 1.816c1.97 2.025 7.003 6.257 17.352 9.938 10.084 3.589 15.44 3.535 17.695 3.193a1.939 1.939 0 0 0 1.339-.862c2.9 2.97 1.494 5.302.67 4.853Z"/>
  <path stroke="#C87F33" stroke-linecap="round" stroke-linejoin="round" stroke-width="1.8" d="M97.293 64.879a1.94 1.94 0 0 1-1.339.858c-2.255.335-7.61.392-17.695-3.193-10.349-3.68-15.38-7.913-17.352-9.938a2.052 2.052 0 0 1-.237-2.573c7.223-10.889 24.227-4.03 24.227-4.03 13.246 6.023 13.228 14.837 12.687 18.122a1.977 1.977 0 0 1-.29.754Z"/>
  <path fill="#C87F31" stroke="#C87F33" stroke-linecap="round" stroke-linejoin="round" d="M77.734 47.152c.077-.29-.222-.622-.669-.742-.446-.119-.871.02-.949.31-.077.29.222.622.669.742.446.119.871-.02.949-.31Zm5.697 1.808c.112-.28-.145-.645-.574-.818-.429-.172-.867-.085-.98.194-.111.278.146.644.575.816.43.172.868.086.98-.193Zm4.892 2.917c.253-.162.268-.588.035-.95s-.627-.524-.88-.361c-.252.162-.268.588-.035.95.234.362.627.524.88.361Zm3.79 2.217c.075-.217-.117-.48-.428-.587-.312-.108-.625-.02-.7.197-.075.217.117.48.428.587.312.108.625.02.7-.197Zm1.282 2.955c.157-.168.088-.486-.153-.71-.24-.225-.563-.271-.72-.104-.156.168-.087.486.154.71.24.225.563.272.72.104Zm-4.209-2.677c.018-.207-.207-.397-.504-.423-.296-.027-.552.12-.57.326-.02.207.206.397.503.423.297.027.552-.12.57-.326Zm-5.022.613c.14-.184.038-.495-.226-.694-.264-.2-.59-.211-.73-.027-.138.183-.037.494.227.693.264.2.59.212.73.028ZM80.65 51.66c.086-.215-.093-.488-.4-.611-.306-.123-.625-.05-.71.164-.087.214.092.487.4.61.306.124.625.05.71-.164Zm-8.552-1.137c.271-.082.445-.302.388-.492-.057-.189-.324-.276-.595-.194-.272.082-.445.302-.388.491.057.19.323.277.595.195Zm-3.81-2.313c.334-.064.57-.304.525-.538-.044-.233-.35-.371-.684-.308-.335.063-.57.304-.526.537.044.233.351.371.685.308Zm3.919-.357c.334-.063.562-.343.508-.625-.053-.282-.367-.46-.701-.397-.334.064-.562.344-.509.626.054.282.368.46.702.396Zm4.159 1.653c.123-.227-.02-.543-.319-.705-.3-.162-.641-.109-.764.118-.123.227.02.542.319.704.298.163.64.11.764-.117Zm3.786-.282c.049-.23-.182-.472-.515-.542-.333-.07-.642.06-.69.289-.048.229.183.472.516.541.332.07.641-.059.69-.288Zm5.39 2.281c.087-.217-.131-.51-.489-.653-.357-.143-.717-.083-.804.134-.087.218.131.51.488.653.358.144.718.084.805-.134Z"/>
  <path stroke="#333" stroke-linecap="round" stroke-linejoin="round" stroke-width="1.8" d="M53.121 1.813c22.04.688 39.702 18.766 39.702 40.979a41.209 41.209 0 0 1-.228 4.251M17.517 65.26c7.326 11.16 19.956 18.532 34.3 18.532 2.503-.001 5-.23 7.46-.685"/>
  <path stroke="#E2AA1D" stroke-linecap="round" stroke-linejoin="round" stroke-width="1.8" d="M64.944 21.695c-.479.018-.954.046-1.424.085-15.2 1.253-24.885 12.94-25.32 13.483-.436.542-1.514 2.715-5.148 1.183-15.197-6.403-24.929-4.538-29.308-4.374-1.008.037-1.733-.015-2.177-.277-2.15-1.274 2.24-5.12 3.08-5.831a2.948 2.948 0 0 0 2.005 1.84c3.92 1.052 13.238 2.573 28.71-.488 15.077-2.982 21.642-6.987 24.176-9.056a2.782 2.782 0 0 0 1.018-2.053c5.754 1.521 5.735 5.437 4.388 5.488Z"/>
  <path stroke="#C87F33" stroke-linecap="round" stroke-linejoin="round" stroke-width="1.8" d="M60.558 16.212a2.781 2.781 0 0 1-1.018 2.053c-2.538 2.07-9.102 6.075-24.176 9.057-15.472 3.06-24.79 1.54-28.71.487a2.955 2.955 0 0 1-2.181-3C5.385 6.07 31.399 2.039 31.399 2.039c20.766-2.301 27.217 8.587 28.965 13.035.143.363.209.75.194 1.14v0Z"/>
</svg>
