<svg xmlns="http://www.w3.org/2000/svg" fill="none" viewBox="0 0 97 96">
  <path stroke="#333" stroke-linecap="round" stroke-linejoin="round" stroke-width="2" d="M62.62 29.364c0 1.591-2.932 3.018-7.58 3.995-3.915.823-9.052 1.326-14.682 1.34-5.634-.014-10.767-.518-14.686-1.34-4.645-.982-7.577-2.408-7.577-3.995 0-2.928 9.949-5.299 22.263-5.33 12.312.03 22.263 2.402 22.263 5.33Z"/>
  <path stroke="#333" stroke-linecap="round" stroke-linejoin="round" stroke-width="2" d="M62.62 29.364v7.983c0 1.006-1.186 1.956-3.253 2.772-3.91 1.527-10.952 2.553-19.01 2.567-8.059-.014-15.101-1.043-19.011-2.567-2.065-.816-3.251-1.763-3.251-2.772v-7.983c0 1.591 2.932 3.018 7.577 3.995 3.919.823 9.052 1.326 14.686 1.34 5.63-.014 10.767-.518 14.683-1.34 4.647-.977 7.58-2.404 7.58-3.995Z"/>
  <path stroke="#333" stroke-linecap="round" stroke-linejoin="round" stroke-width="2" d="M16.307 45.24v-.008c.057-.781.354-2.337 5.04-5.114 3.909 1.527 10.95 2.554 19.01 2.57 8.06-.016 15.1-1.047 19.01-2.57 5.351 3.172 5.263 7.008 5.263 7.008v39.185c0 2.945-10.871 8.285-24.273 8.285-13.403 0-24.274-5.34-24.274-8.285v-.77"/>
  <path stroke="#333" stroke-linecap="round" stroke-linejoin="round" stroke-width="2" d="M57.587 70.11c1.981 0 3.588-4.825 3.588-10.776s-1.607-10.776-3.588-10.776c-1.982 0-3.589 4.825-3.589 10.776s1.607 10.775 3.589 10.775Z"/>
  <path fill="#333" stroke="#333" stroke-linecap="round" stroke-linejoin="round" d="M14.56 47.856H5.52L1 55.656l4.52 7.8h9.04l4.52-7.8-4.52-7.8ZM14.56 66.776H5.52L1 74.576l4.52 7.801h9.04l4.52-7.8-4.52-7.8ZM30.668 57.226h-9.04l-4.52 7.8 4.52 7.801h9.04l4.52-7.8-4.52-7.8Z"/>
  <path stroke="#333" stroke-linecap="round" stroke-linejoin="round" stroke-width="2" d="M7.405 42.51A40.376 40.376 0 0 1 18.74 21.653M81.47 72.445a40.206 40.206 0 0 0 5.557-13.394M49.495 10.062a40.583 40.583 0 0 1 25.408 10.735"/>
  <path fill="#333" stroke="#333" stroke-linecap="round" stroke-linejoin="round" d="M80.171 24.313h-6.373l-3.186 5.5 3.186 5.5h6.373l3.187-5.5-3.187-5.5ZM80.171 38.112h-6.373l-3.186 5.5 3.186 5.499h6.373l3.187-5.5-3.187-5.5ZM92.328 31.137h-6.374l-3.186 5.5 3.186 5.5h6.374l3.186-5.5-3.186-5.5ZM92.328 44.922h-6.374l-3.186 5.5 3.186 5.499h6.374l3.186-5.5-3.186-5.499ZM80.24 74.508h-6.372l-3.188 5.5 3.188 5.5h6.372l3.187-5.5-3.187-5.5ZM29.311 8.167h-6.373l-3.186 5.499 3.186 5.5h6.373l3.186-5.5-3.186-5.499ZM41.15 1h-6.372L31.59 6.499l3.188 5.5h6.372l3.187-5.5L41.15 1Z"/>
</svg>
