<svg xmlns="http://www.w3.org/2000/svg" fill="none" viewBox="0 0 34 35">
  <ellipse cx="17" cy="17.31" fill="#F8F1EC" rx="17" ry="16.92"/>
  <path fill="#333" d="M25 11.289c0-.75-.616-1.355-1.374-1.355-.759 0-1.376.605-1.376 1.355 0 .747.617 1.352 1.376 1.352.758 0 1.374-.605 1.374-1.352Z"/>
  <path fill="#333" d="M26.832 21.867c-.05 1.1-.237 1.698-.392 2.095a3.48 3.48 0 0 1-.86 1.297c-.398.394-.78.639-1.314.841-.403.155-1.011.34-2.128.392-1.207.053-1.564.064-4.624.064-3.058 0-3.418-.011-4.625-.064-1.116-.052-1.722-.237-2.125-.392a3.507 3.507 0 0 1-1.316-.841 3.434 3.434 0 0 1-.857-1.297c-.155-.397-.345-.995-.393-2.095-.059-1.189-.07-1.547-.07-4.556 0-3.015.011-3.37.07-4.56.048-1.1.238-1.696.393-2.096.205-.526.453-.9.857-1.295.4-.394.78-.639 1.316-.844.403-.155 1.01-.337 2.125-.39 1.207-.052 1.567-.065 4.625-.065 3.06 0 3.418.013 4.624.066 1.116.052 1.725.234 2.128.39.534.204.916.45 1.314.843.403.395.652.769.86 1.295.155.4.341.997.392 2.097.056 1.189.07 1.544.07 4.56 0 3.008-.014 3.366-.07 4.555Zm2.061-9.208c-.056-1.202-.248-2.023-.534-2.738a5.49 5.49 0 0 0-1.318-2 5.64 5.64 0 0 0-2.027-1.3c-.729-.278-1.56-.47-2.78-.522-1.22-.058-1.61-.069-4.72-.069-3.108 0-3.5.01-4.72.069-1.218.052-2.048.244-2.78.522-.75.29-1.389.674-2.024 1.3a5.535 5.535 0 0 0-1.322 2c-.283.715-.475 1.536-.534 2.738-.053 1.203-.067 1.587-.067 4.652 0 3.062.014 3.446.067 4.649.059 1.2.251 2.02.534 2.738.294.74.684 1.371 1.322 1.997a5.653 5.653 0 0 0 2.024 1.302c.732.28 1.562.469 2.78.524 1.22.055 1.612.069 4.72.069 3.11 0 3.5-.014 4.72-.07 1.22-.054 2.051-.244 2.78-.523a5.64 5.64 0 0 0 2.027-1.302 5.481 5.481 0 0 0 1.318-1.997c.286-.718.478-1.539.534-2.738.056-1.203.07-1.587.07-4.649 0-3.065-.014-3.45-.07-4.652Z"/>
  <path fill="#333" d="M17.514 21.068c-2.107 0-3.816-1.682-3.816-3.757 0-2.079 1.71-3.762 3.816-3.762 2.107 0 3.818 1.683 3.818 3.762 0 2.075-1.711 3.757-3.818 3.757Zm0-9.553c-3.247 0-5.877 2.597-5.877 5.796 0 3.197 2.63 5.79 5.877 5.79s5.88-2.593 5.88-5.79c0-3.2-2.633-5.796-5.88-5.796Z"/>
</svg>
