<svg xmlns="http://www.w3.org/2000/svg" fill="none" viewBox="0 0 51 48">
  <path stroke="#F2A679" stroke-linecap="round" stroke-linejoin="round" d="M47.911 7.06c.23-.15.352-.28.343-.402m-21.747.476c.041.236.376.403.376.403m-4.119 9.113c.042.11-.362.187-.362.187m-20.85-.325a.095.095 0 0 0 .01.035v0c.058.104.309.173.309.173"/>
  <path stroke="#333" stroke-linecap="round" stroke-linejoin="round" d="M1.372 19.539s-.564-.674 2.429-.681c2.992-.008 6.357-.214 8.611-.161M1.939 17.59s-.192-.55 2.913-.613c3.105-.064 5.01-.148 5.228-.126m12.164 1.64s-.327-.603-5.703-.563"/>
  <path fill="#F2A679" stroke="#F2A679" stroke-linecap="round" stroke-linejoin="round" d="M22.763 16.65c-.053-.141-.814-.338-3.982-.506-6.33-.337-9.791-.32-13.663-.15-2.874.126-3.352.334-3.437.376-.098.051-.133.098-.13.141-.04-.145-.172-.718 0-1.522.2-.94 3.203-1.252 4.321-1.336 1.118-.084 6.926-.27 11.827.062s4.95 1.215 5.062 1.479c.112.264.006 1.408.002 1.456Z"/>
  <path stroke="#333" stroke-linecap="round" stroke-linejoin="round" d="m19.603 37.412-.067-15.418c-1.35-.089-14.527 0-14.527 0l.354 16.368s7.107.646 13.574-.019"/>
  <path stroke="#F2A679" stroke-linecap="round" stroke-linejoin="round" stroke-width=".5" d="M15.517 34.046a5.505 5.505 0 0 0 1.968-2.143M6.972 29.09a5.328 5.328 0 0 1 1.275-3.044m6.429-1.531c1.904.781 3.28 2.568 3.385 4.715.003.066.005.133.005.198M7.547 31.952c.946 1.82 2.914 3.032 5.135 2.957"/>
  <path stroke="#F2A679" stroke-linecap="round" stroke-linejoin="round" stroke-width=".2" d="M11.596 28.869s.075-.637-1.253-.618c0 0 .412.224.225 1.086m.659-1.587s-.927.912-1.822.181"/>
  <path stroke="#F2A679" stroke-linecap="round" stroke-linejoin="round" stroke-width=".2" d="M11.106 27.855s-.643.17-1.06-.063c-.074-.041-.013.07-.304.126-.291.055-1.328.102-.944-1.174.18-.599.665-.115 1.256-.155.591-.041 1.034-.238.788.254-.049.098-.877-.049-.313.534"/>
  <path stroke="#F2A679" stroke-linecap="round" stroke-linejoin="round" stroke-width=".2" d="M9.156 27.178c0-.03-.295-.616.308-.292.115.063.084.523-.146.292m-.319-.713s.157-1.19-.519-1.382c-.676-.191-1.403-.125-1.777-1.088-.09-.233.887-.3.887-.3m1.15.3s.27-.783.665-.814c.393-.032.673-.148.796-.263.123-.114.376-.05.55.107.174.156.632.32.935.32.304 0 .436.329.476.739.041.41.657-.492.772-.526.116-.033 1.05-.221 1.264.017.213.238.033.714-.296.902-.328.189-.41.411-.876.42-.467.008-1.64.5-1.51 1.222.13.722.23 1.338-.23 1.461"/>
  <path stroke="#F2A679" stroke-linecap="round" stroke-linejoin="round" stroke-width=".2" d="M9.529 23.565s.55-.107.509.78c0 0 .345-.821.83-.903 0 0-.248-.06-.67.148-.218.106-.118.025-.67-.025Zm-.531.681s.627.48.099.769c-.126.068-.222-.31-.222-.342 0-.033.54.214.123-.427Zm2.926.164s-.484-.112-.484.577c0 .094.542.047.484-.577Zm.583.6s.238.64 1.091.721c.854.083 1.215.493 1.215.493m-.869 8.446h-.28l-.14.242.14.244h.28l.141-.243-.14-.243Zm.896-.343h-.28l-.141.243.14.243h.28l.141-.243-.14-.243Zm-2.147-1.594s-.898-1.343-1.374-.692c-.195.268.507.916 1.432.916m.585.126s2.01.288 1.208.819c-.48.318-1.247-.351-1.354-.673m-.486-.146s-.984.4-.56 1.105c0 0 .912.028.862-.899"/>
  <path stroke="#F2A679" stroke-linecap="round" stroke-linejoin="round" stroke-width=".2" d="M12.18 33.465s.139.445.676.408m-.044-1.315s.33-.25.614-.148c.155.056.148.4.04.496"/>
  <path stroke="#F2A679" stroke-linecap="round" stroke-linejoin="round" stroke-width=".2" d="M13.102 31.937c.046.16.036.33-.028.483m.47.126s.034-.093.443-.188"/>
  <path stroke="#333" stroke-linecap="round" stroke-linejoin="round" d="M27.05 7.975s3.175-1.59 10.69-1.407m9.67 1.896s-.654-1.329-6.237-1.155m-15.901 5.997s.976-1.589 12.07-1.446m12.147 5.716s1.127-1.002-10.68-.877M24.995 32.86s2.078.815 12.92.853m10.408 3.539s-.172.751-7.164.956m-14.503-7.13-.113-11.846s12.668-.808 21.085 0l-.637 11.846s-10.79.992-20.335 0Z"/>
  <path stroke="#F2A679" stroke-linecap="round" stroke-linejoin="round" stroke-width=".5" d="M40.077 29.233a4.668 4.668 0 0 0 1.842-1.764m-8.636-.029c.81 1.429 2.442 2.406 4.326 2.406m2.027-8.492c1.676.702 2.841 2.249 2.841 4.044v.08m-9.723-.398a4.236 4.236 0 0 1 1.172-2.587"/>
  <path stroke="#F2A679" stroke-linecap="round" stroke-linejoin="round" stroke-width=".2" d="M36.763 24.992s-.125-.627-1.092-.52c0 0 .392.117.188.88m-.963-1.134s.7.52 1.549-.159c0 0-.595.257-.965.053-.191-.106-.096.074-.298.074-.202 0-.88.053-.89-.34-.01-.392.052-.827.402-.805.35.02.519.084.673.062.155-.022.78-.181.85-.062.069.119-.017.446-.218.478-.2.032.467-.403-.328-.148"/>
  <path stroke="#F2A679" stroke-linecap="round" stroke-linejoin="round" stroke-width=".2" d="M34.688 23.716s-.273-.68.322-.301c.146.093-.053.399-.192.233m-.288-.576s.285-.716-.24-1.124c-.245-.191-1.325-.052-1.727-.915-.139-.295.806-.305.806-.305m1.047.18s.289-.584.49-.584c.202 0 .722-.148.849-.275.127-.127.54.202.689.244.147.043.859.17.88.286.021.117-.01.668.188.52.198-.148.5-.584.763-.594.263-.01.87 0 .966.223.096.223-.655.87-.794.89-.14.022-1.073.033-1.476.594-.403.562-.09.787-.14 1.115-.051.328.009.379-.305.594"/>
  <path stroke="#F2A679" stroke-linecap="round" stroke-linejoin="round" stroke-width=".2" d="M35.565 21.293s.074-.752-.404-.669c0 0 .435.042.669-.062a.998.998 0 0 1 .456-.086s-.658.263-.721.817Zm2.096.463s.22.553.79.637c.572.085.975.234 1.102.382m-5.127-1.236s.145.54.317.18c.172-.361-.203-.616-.188-.54.015.074.231.53-.129.36Zm2.284.217s.094-.464.466-.464c.126 0-.052.58-.466.464Zm2.004 7.927h-.261l-.13.226.13.226h.26l.13-.226-.13-.226Zm.764-.256h-.26l-.13.225.13.226h.26l.13-.226-.13-.225Zm-1.706-1.59s-.703-.945-1.127-.657c-.16.108.008.885 1.09.846m.576.14s1.33.136 1.112.604c-.102.22-.973.196-1.279-.454m-.431-.15s-.792.251-.486.895c0 0 .792.062.768-.752"/>
  <path stroke="#F2A679" stroke-linecap="round" stroke-linejoin="round" stroke-width=".2" d="M37.288 28.441s.097.424.583.349m-.001-1.07s.337-.264.517-.144c.18.12.031.45.031.45"/>
  <path stroke="#F2A679" stroke-linecap="round" stroke-linejoin="round" stroke-width=".2" d="M38.144 27.273s.034.12-.08.313m.408.129a.527.527 0 0 1 .236-.082"/>
  <path fill="#F2A679" stroke="#F2A679" stroke-linecap="round" stroke-linejoin="round" d="M48.254 6.657c-.02-.306-.853-.569-2.845-.998-2.791-.6-8.546-.307-10.684-.32-2.137-.013-6.421.72-7.624 1.214-.5.206-.626.412-.595.582a3.334 3.334 0 0 1 .084-1.654c.277-.924 1.904-1.247 3.798-1.753 1.893-.507 8.078-.877 12.514-.497s4.837 1.19 5.242 1.639c.404.449.115 1.754.11 1.787Z"/>
  <path stroke="#333" stroke-linecap="round" stroke-linejoin="round" d="M16.723 43.99a23.125 23.125 0 0 0 23.029-.376M8.815 10.806C12.972 4.704 19.975.696 27.914.696c1.507 0 3.011.147 4.49.439M18.947 40.757s-12.312 1.207-15.38-.595c-.818-.48-.63-1.27-.668-3.118l-.465-16.449s.027-.751-.814-.919c-.406-.081-.578-.68.102-.944.68-.264.307-1.035.22-1.141-.063-.078.044-.27.105-.383.06-.112-.05-.254-.132-.345-.07-.077-.234-.619 1.33-.64 1.564-.02 5.402-.267 8.892-.223 3.365.042 9.158.399 10.152.723a.177.177 0 0 1 .101.25.41.41 0 0 1-.134.135c-.108.073.084.341.12.456.046.155-.138.26-.153.612-.008.188-.149.322.51.711.578.342.257.716.13.786-.245.135-.909.256-.903.858.006.602-.032 15.797-.032 15.797m3.344.152s-.014-2.634-.25-3.455c-.09-.313.072-.375.125-.737.053-.362-.14-14.027-.152-14.079a2.87 2.87 0 0 1-.098-.668c0-.303.092-.505.101-.702.01-.198.202-2.147.275-2.755.072-.608.012-.682 0-.778-.013-.096.083-.288.158-.47.075-.181.266-1.098.66-1.588.395-.49 1.418-1.46 1.408-1.695-.01-.235-.16-.362-.181-.438-.021-.076.021-.32-.032-.363-.053-.042-.416-.362-.416-.511 0-.15.181-.224.181-.267 0-.043 0-.181-.032-.181s-.125-.181-.138-.256c-.014-.075.006-.683 1.833-1.183 1.365-.376 5.084-.814 7.9-.82 2.815-.008 8.112-.075 10.052.585 1.94.66 1.037 1.267 1.03 1.352-.008.084.056.147.12.302.063.155-.126.45-.359.598-.077.049-.05.302-.091.376-.042.074-.317.344-.17.57.149.225 1.084 1.308 1.348 1.561.265.253.599 1.507.69 1.784.09.276.22.313 0 .742-.106.204.014 1.348.04 1.561.025.214.084 1.623.136 1.753.07.166.11.342.12.521.008.214-.12.572-.095.829.026.257-.936 13.823-.825 14.194.111.371.227.737.192.807-.035.07-.7 1.74-.57 3.549.009.134.1.165.124.327.04.26-.307 1.363-.76 1.851-.292.313-.801.598-.801.598"/>
  <path stroke="#C6802C" stroke-linecap="round" stroke-linejoin="round" d="m45.116 39.948-14.786-.763s-1.768.147-2.643-1.384c-.125-.22-.337-.307-.48-.225-.144.083-.265.038-.34-.125-.076-.163-.506-.943-.951-.89-.445.052-.302.302-.408.294-.106-.008-.31-.74-.876-.702-.568.038-.597.468-.657.445-.061-.023-.159-.55-.642-.563-.482-.013-.692.358-.882.603-.054.068-.242-.113-.25-.166-.01-.052-.22-.271-.672.045-.453.317-.544.702-.642.785-.098.083-.196-.015-.234-.136-.038-.12-.151-.263-.415-.12-.263.143-1.296.63-1.586 2.354-.164.981.982 2.516 1.558 2.41.313-.056.192-.283.358-.272.165.01.3.637.556.85.126.103.586.385.943.067.093-.083.166.188.196.25.031.063.188.413.779.351.59-.062.582-.49.626-.448.044.041.284.468.64.456.355-.012.7-.145.89-.446.099-.155.17.216.238.237.067.02.47.139.835-.376.366-.514.423-.577.572-.546.15.03.211.134.294.119.056-.011.361-.288.603-.501.125-.113.25-.234.365-.357.17-.179.602-.477 1.547-.42 1.335.084 15.52.77 15.592.787.072.017.38.584.805.65.426.067 1.397.119 1.832-.536.337-.506.37-1.177-.05-1.675-.497-.588-1.406-.92-2.49-.11a.348.348 0 0 1-.225.058v0Z"/>
  <path stroke="#C6802C" stroke-linecap="round" stroke-linejoin="round" d="M20.655 37.161s.689 1.681-.18 4.423m1.878-4.958c.15.166.841 2.74-.273 5.816m1.895-5.847s.807 3.216-.319 6.004m1.797-5.795s1.232 2.858-.254 5.806m1.694-5.112s.8 2.422-.313 4.555m1.077-4.299s.708 2.335-.287 4.113"/>
</svg>
