<svg xmlns="http://www.w3.org/2000/svg" fill="none" viewBox="0 0 68 48">
  <path stroke="#FFFEF0" stroke-linecap="round" stroke-linejoin="round" d="M44.528 21.319c.546-.313 1.348-.607 2.137-.295 1.39.548 1.907 1.305 1.724 2.293m1.099.493s1.326-2.491 2.504-2.402c1.199.09 3.156.386 3.35.836.452 1.05-.479 2.929-4.23 4.674"/>
  <path stroke="#FFFEF0" stroke-linecap="round" stroke-linejoin="round" d="M51.43 28.668c.55-.069 6.657-2.647 7.105-2.88.448-.234.85-1.287.167-1.92-.684-.632-3.371-.456-3.371-.456"/>
  <path fill="#F2D420" stroke="#F2D420" stroke-linecap="round" stroke-linejoin="round" d="M51.43 28.667c-.646-2.824-.499-5.22-5.868-5.935a4.902 4.902 0 0 0-.364-.037s1.732 5.545.89 7.508l1.166-.357.17.726.45-1.179.97-.084.405.737.32-1.032.811-.156.128.245.921-.436Z"/>
  <path stroke="#FFFEF0" stroke-linecap="round" stroke-linejoin="round" d="M34.063 38.318c.427-.388.824-.807 1.19-1.253 0 0 .642-.644 1.533-1.547m-4.306 5.755c.262.226.564.4.89.516 1.866.708 4.096-2.76 4.853-3.722.084-.106.208-.278.368-.5m6.2-4.811c-.353 3.15-1.01 8.288-1.004 8.509a2.596 2.596 0 0 1-.097.67c-.185.682-.714 1.613-2.195 1.665-2.161.074-2.418-1.536-2.293-3.745.017-.31.119-.71.278-1.168"/>
  <path stroke="#FFFEF0" stroke-linecap="round" stroke-linejoin="round" d="M45.904 30.297c.277-.167.58-.246.867-.104.386.19.909 2.385 1.35 4.789.523 2.857.929 6.006.837 6.409-.137.604-.589 1.796-1.719 2.302a2.714 2.714 0 0 1-.833.22c-1.752.186-2.716-1.973-2.716-1.973"/>
  <path stroke="#FFFEF0" stroke-linecap="round" stroke-linejoin="round" d="M48.12 34.979c-.463-2.796-.308-4.885-.308-4.885s.306-1.353 1.306.22c1.197 1.885 4.767 10.517 4.767 10.517s.672 2.314-1.489 3.033c-2.16.719-3.438-2.476-3.438-2.476m2.445-7.941s3.821 7.32 5.398 8.083c1.242.6 3.324.416 4.199-.24.714-.536 1.585-.851-.286-2.718S50.938 29.779 50.4 29.51c-.974-.493-1.346.599 1.002 3.936Zm1.752-4.251s10.008 1.208 11.27 1.557c1.008.278 3.165 2.063 2.392 4.155-.773 2.092-2.8 1.972-3.662 1.66-.863-.31-10.047-5.322-11.305-6.125-1.257-.803-1.777-1.84 1.305-1.247Z"/>
  <path stroke="#FFFEF0" stroke-linecap="round" stroke-linejoin="round" d="M64.75 30.877c2.965-.552 2.252-2.832 1.958-3.151-.501-.548-.77-1.027-3.873-1.429-3.103-.401-11.332 2.692-11.332 2.692"/>
  <path stroke="#333" stroke-linecap="round" stroke-linejoin="round" d="M33.963 17.83c.574-.361 3.154-1.99 1.462-2.693-1.692-.703-1.742 2.515-7.389 5.24-5.646 2.727-7.381 3.958-8.452 4.509-1.07.55-6.784 6.784-7.122 9.478-.263 2.093-1.225 3.315.654 3.948 1.878.633 3.348-3.342 3.844-3.532.497-.189 4.517-3.076 4.575-3.668.058-.591 1.505-.716 2.078-1.078.573-.362 1.35-1.867 1.92-2.796.57-.928 1.018-2.924 2.737-4.198m-1.994-9.318s-6.277 1.26-7.404 1.474c-1.126.214-6.073 1.607-6.57 1.797-.496.19-6.647 2.176-7.545 2.7-.898.524-5.2 1.743-2.818 3.323 2.381 1.58 4.323 2.087 6.058 2.265 2.143.221 4.025.389 4.481.295.925-.187 2.229-.551 2.95-.953.52-.29 2.733-3.07 3.31-3.443 1.425-.926 3.81-2.69 7.424-3.288m14.861 4.271c.496.803 1.758.888 2.54 2.81.781 1.923-.049 5.69.418 5.182.467-.51.454-.174.295-4.177-.16-4.004-3.33-6.243-3.658-6.733-.328-.489.595-.794 1.032-1.008.437-.214 1.967.572 2.297.442.33-.13.958-1.453 1.144-4.305 0 0-.025-2.172-.869-3.267-.843-1.096-.552-1.444.454-1.78 1.005-.337 5.112-2.332 5.773-6.79"/>
  <path stroke="#333" stroke-linecap="round" stroke-linejoin="round" d="M20.341 23.444c-.102-.764 2.476-4.03 5.82-5.552 0 0-1.638-2.803.836-4.74 2.474-1.938 4.193-3.164 5.446-2.93 2.346.442 5.672 3.513 6.2 8.036m.037 3.33c-.012.341.598 1.049 1.49 1.8 1.044.877 2.568.814 2.772 2.485 0 0 1.1 4.684-1.79 7.017"/>
  <path stroke="#333" stroke-linecap="round" stroke-linejoin="round" d="M41.156 25.847s-2.431-1.283-3.375-1.784c-.415-.22-1.27.39-1.031 1.009.238.619.917 4.522.078 6.395-.128.285 2.155.074 2.921 1.956.766 1.883 2.44 4.372 1.41 5.654-.33.409-.421-.501-.269-.702.153-.2.432-1.204-.183-1.206-.615-.001-.412-1.45-.412-1.45m-5.955-10.72s.135 2.17-1.842 2.925c-.248.095.324 3.043.785 4.143.46 1.1.178 5.556-.912 6.54-1.09.983-2.316 2.35-5.212 1.325-2.894-1.024-4.34-2.256-4.982-4.335 0 0 4.923 3.06 9.025-1.412m12.776-21.982c.644 1.687.066 4.412-.583 4.66-.649.247-.81-3.107-1.056-3.758-.246-.65-1.053-1.675-.4-1.923.654-.249 1.791.372 2.04 1.021ZM42.656 1.312s2.605 3.648-.176 6.968c-.295.347.516.982.504 1.318-.012.336-1.198-.912-2.08-.622m-6.966.607s2.517-1.064 4.64-.41c2.123.652 2.814 6.032 1.684 7.347"/>
  <path stroke="#333" stroke-linecap="round" stroke-linejoin="round" d="M21.568 32.799s2.45 1.937 8.624-1.001M22.773 11.34a21.71 21.71 0 0 1 16.363-7.414h.107M24.12 41.44a21.8 21.8 0 0 0 22.793 4.577M51.646 7.88a21.763 21.763 0 0 1 8.84 13.576"/>
</svg>
