<svg xmlns="http://www.w3.org/2000/svg" fill="none" viewBox="0 0 15 14">
  <path fill="#F7F0EB" d="M11.694 3.264a.845.845 0 0 0-.85-.841.845.845 0 0 0-.849.84c0 .464.382.84.85.84.468 0 .849-.376.849-.84"/>
  <path fill="#F7F0EB" d="M12.825 9.828c-.031.683-.146 1.054-.242 1.3-.129.326-.282.56-.53.805a2.163 2.163 0 0 1-.813.522c-.248.097-.624.211-1.314.244-.745.032-.966.039-2.856.039-1.889 0-2.111-.007-2.856-.04-.69-.032-1.064-.146-1.313-.243a2.165 2.165 0 0 1-.813-.522 2.133 2.133 0 0 1-.53-.805c-.095-.246-.212-.617-.242-1.3-.036-.738-.043-.96-.043-2.827 0-1.871.007-2.092.043-2.83.03-.682.147-1.053.242-1.301.127-.326.28-.558.53-.803a2.19 2.19 0 0 1 .813-.524c.249-.097.623-.21 1.313-.242.745-.032.967-.04 2.856-.04 1.89 0 2.11.008 2.856.04.69.033 1.066.145 1.314.242.33.127.566.28.812.524.249.245.402.477.53.803.097.248.212.619.243 1.301.035.738.043.959.043 2.83 0 1.867-.008 2.09-.043 2.827Zm1.273-5.714c-.034-.746-.153-1.255-.33-1.7-.179-.46-.42-.85-.814-1.24a3.48 3.48 0 0 0-1.252-.807c-.45-.173-.963-.292-1.716-.324C9.232.007 8.99 0 7.07 0 5.15 0 4.908.007 4.154.043 3.402.075 2.89.194 2.437.367a3.49 3.49 0 0 0-1.25.807c-.394.39-.635.78-.816 1.24-.175.445-.293.954-.33 1.7C.008 4.86 0 5.099 0 7c0 1.9.008 2.138.041 2.885.037.744.155 1.253.33 1.7.181.458.422.85.816 1.239.393.388.787.628 1.25.808.453.173.965.29 1.717.324.754.035.996.043 2.916.043 1.921 0 2.162-.008 2.916-.043.753-.034 1.266-.151 1.716-.324.465-.18.86-.42 1.252-.808.394-.389.635-.781.815-1.24.176-.446.295-.955.33-1.7.034-.746.042-.984.042-2.884 0-1.902-.008-2.14-.043-2.887Z"/>
  <path fill="#F7F0EB" d="M7.07 9.332c-1.301 0-2.357-1.043-2.357-2.331A2.346 2.346 0 0 1 7.07 4.666c1.301 0 2.358 1.045 2.358 2.335 0 1.288-1.057 2.331-2.358 2.331Zm0-5.928c-2.006 0-3.63 1.612-3.63 3.597 0 1.984 1.624 3.593 3.63 3.593 2.005 0 3.631-1.61 3.631-3.593 0-1.985-1.626-3.597-3.631-3.597Z"/>
</svg>
