<svg xmlns="http://www.w3.org/2000/svg" fill="none" viewBox="0 0 75 61">
  <path stroke="#333" stroke-linecap="round" stroke-linejoin="round" stroke-width="1.5" d="M38.623 60.076c.64.044 1.288.063 1.939.063 15.63 0 28.43-12.13 29.499-27.484M13.647 18.309C18.307 8.098 28.606 1 40.562 1a29.48 29.48 0 0 1 11.162 2.18"/>
  <path stroke="#5A1B20" stroke-linecap="round" stroke-linejoin="round" stroke-width="1.5" d="M1.036 39.387c-.092 2.808-.222 7.432 2.601 10.207 3.215 3.162 12.851 6.762 24.432 6.56 9.784-.173 19.744-1.845 24.279-6.446a6.845 6.845 0 0 0 1.933-4.814v-6.13c0-1.497-.713-2.934-1.746-4.02-1-1.053-2.624-2.059-5.241-2.372-6.158-.736-11.89-2.444-14.31-3.932s-8.684-5.167-17.983-3.777c-5.838.872-11.038 3.809-13.324 8.13-.359.68-.589 1.75-.641 2.516 0 0 .034 3.016 0 4.078Z"/>
  <path fill="#5A1B20" d="M46.468 34.711c-6.326-1.457-13.06-2.389-16.852-5.178-3.395-2.489-9.991-2.495-9.991-2.495s-7.06-.522-11.858 2.849c-4.798 3.37-4.172 6.954-4.101 7.302.07.348.73 5.875 9.11 7.614 8.38 1.74 15.19 2.989 25.727 1.148 10.537-1.84 12.732-5.006 13.143-6.329.188-.602 1.155-3.453-5.178-4.91Zm-27.457 3.575c-3.02 0-5.468-1.226-5.468-2.739 0-1.512 2.448-2.738 5.468-2.738 3.021 0 5.468 1.226 5.468 2.739 0 1.512-2.448 2.738-5.468 2.738ZM34.884 16.586v4.532a5.053 5.053 0 0 0 1.43 3.557c3.351 3.4 10.71 4.638 17.94 4.763 8.559.148 15.68-2.512 18.055-4.848 2.085-2.05 1.985-5.468 1.922-7.543-.025-.787 0-3.016 0-3.016-.04-.565-.208-1.357-.473-1.858-1.69-3.193-5.533-5.364-9.846-6.01-6.872-1.026-11.5 1.691-13.292 2.792-1.791 1.1-6.021 2.362-10.568 2.907-1.935.232-3.134.974-3.874 1.752-.766.802-1.294 1.865-1.294 2.972Zm5.774-2.995c4.675-1.077 9.652-1.766 12.453-3.824 2.51-1.846 7.384-1.847 7.384-1.847s5.216-.38 8.762 2.107c3.545 2.487 3.082 5.14 3.03 5.395-.051.257-.538 4.343-6.731 5.628-6.194 1.284-11.227 2.208-19.012.847-7.785-1.36-9.407-3.697-9.711-4.676-.14-.447-.855-2.553 3.823-3.63h.002Z"/>
  <path fill="#5A1B20" d="M39.646 16.964c-.055 1.282 2.046 2.214 4.64 3.126 2.724.955 9.346 1.253 9.346 1.253 6.35.166 5.249-2.59 4.047-2.996-1.272-.432-4.379-1.346-5.144-2.4-1.274-1.765-2.444-2.237-3.13-2.417-2.29-.587-5.239.597-5.799.708-2.991.59-3.907 1.446-3.96 2.726ZM54.098 13.414c.103 1.576 1.884 1.917 3.438 2.546.75.303 2.055.65 2.746 1.467.777.925 1.516 1.967 2.479 2.233 2.416.67 6.78-.784 7.188-4.095.408-3.31-2.56-4.692-3.124-5.005-.564-.312-4.997-2.633-9.798-.406-2.67 1.24-3.003 2.132-2.93 3.26Z"/>
</svg>
