<svg xmlns="http://www.w3.org/2000/svg" fill="none" viewBox="0 0 101 83">
  <path stroke="#333" stroke-linecap="round" stroke-linejoin="round" stroke-width="2" d="M52.239 81.796c.872.058 1.755.086 2.643.086 21.287 0 38.72-16.47 40.176-37.323M18.223 25.087C24.568 11.223 38.596 1.586 54.88 1.586a40.26 40.26 0 0 1 15.203 2.962"/>
  <path stroke="#333" stroke-linecap="round" stroke-linejoin="round" stroke-width="2" d="M1.047 53.708C.927 57.52.744 63.799 4.59 67.568c4.379 4.292 17.504 9.179 33.278 8.907 13.325-.231 26.89-2.504 33.066-8.751a9.28 9.28 0 0 0 2.635-6.537v-8.326c0-2.036-.973-3.983-2.379-5.458-1.363-1.437-3.574-2.796-7.138-3.221-8.387-1-16.194-3.32-19.49-5.34-3.297-2.02-11.827-7.013-24.491-5.128-7.951 1.185-15.034 5.172-18.141 11.04-.489.922-.802 2.375-.873 3.415-.009 0 .038 4.094-.009 5.539Z"/>
  <path fill="#333" d="M62.924 47.359c-8.618-1.98-17.788-3.245-22.947-7.027-4.622-3.388-13.607-3.391-13.607-3.391s-9.611-.71-16.15 3.87c-6.537 4.58-5.682 9.443-5.586 9.914.097.472.994 7.977 12.407 10.339 11.413 2.361 20.692 4.058 35.04 1.556 14.348-2.501 17.34-6.794 17.9-8.593.25-.819 1.567-4.687-7.057-6.668Zm-37.396 4.855c-4.113 0-7.449-1.663-7.449-3.712 0-2.05 3.335-3.72 7.448-3.72 4.114 0 7.449 1.666 7.449 3.72 0 2.053-3.335 3.712-7.448 3.712ZM47.146 22.752v6.154a6.853 6.853 0 0 0 1.947 4.828c4.566 4.617 14.589 6.298 24.435 6.468 11.653.201 21.354-3.411 24.59-6.581 2.84-2.786 2.709-7.426 2.617-10.243-.034-1.068 0-4.094 0-4.094-.052-.768-.283-1.842-.644-2.524-2.301-4.337-7.536-7.283-13.41-8.158-9.359-1.398-15.661 2.293-18.099 3.785-2.438 1.493-8.204 3.208-14.402 3.953-2.635.314-4.267 1.317-5.276 2.38-1.038 1.083-1.758 2.525-1.758 4.032Zm7.864-4.072c6.367-1.462 13.147-2.395 16.961-5.192 3.417-2.505 10.055-2.508 10.055-2.508s7.105-.523 11.935 2.86c4.83 3.384 4.205 6.979 4.128 7.328-.077.348-.734 5.896-9.169 7.642-8.435 1.746-15.291 2.994-25.893 1.15-10.602-1.843-12.813-5.02-13.227-6.347-.189-.607-1.163-3.468 5.21-4.933Z"/>
  <path fill="#333" d="M53.631 23.262c-.073 1.74 2.787 3.005 6.322 4.244 3.714 1.296 12.724 1.7 12.724 1.7 8.65.228 7.149-3.514 5.512-4.066-1.732-.584-5.963-1.828-7.005-3.26-1.736-2.395-3.329-3.037-4.262-3.275-3.124-.798-7.135.808-7.9.958-4.07.794-5.318 1.959-5.391 3.7ZM73.314 18.44c.14 2.14 2.567 2.602 4.686 3.457 1.02.413 2.798.883 3.738 1.993 1.062 1.255 2.066 2.67 3.376 3.032 3.297.908 9.234-1.066 9.791-5.562.558-4.496-3.484-6.37-4.256-6.79-.773-.418-6.805-3.575-13.344-.551-3.636 1.681-4.092 2.896-3.99 4.421Z"/>
</svg>
