<svg xmlns="http://www.w3.org/2000/svg" width="110" height="88" fill="none" viewBox="0 0 110 88">
  <path stroke="#4F2917" stroke-linecap="round" stroke-linejoin="round" stroke-width="1.8" d="m44.35 59.45.343 5.879a6.57 6.57 0 0 0 2.124 4.507c4.601 4.162 14.24 5.217 23.63 4.841C81.56 74.231 90.6 70.25 93.5 67.044c2.554-2.818 2.173-7.243 1.93-9.93-.092-1.019-.224-3.91-.224-3.91-.093-.733-.372-1.746-.758-2.376-2.427-4.019-7.583-6.547-13.22-7.063-8.993-.819-14.792 3.052-17.032 4.612s-7.638 3.513-13.498 4.56c-2.492.442-3.993 1.496-4.894 2.562-.93 1.097-1.535 2.513-1.453 3.951Z"/>
  <path fill="#4F2917" d="M75.727 46.943 92.2 53.49a.278.278 0 0 0 .37-.34c-.406-1.332-1.468-3.128-4.116-4.77-4.701-2.913-11.265-2.113-11.518-2.081h-.016c-.06 0-.48.03-1.124.107a.28.28 0 0 0-.07.537Zm-8.17 2.778 23.333 9.274a.277.277 0 0 0 .322-.084 7.947 7.947 0 0 0 1.255-2.292.277.277 0 0 0-.16-.347L70.619 47.65a.28.28 0 0 0-.202 0c-1.076.403-2.103.925-2.915 1.595a.278.278 0 0 0 .055.476Zm-7.476 3.54 24.301 9.66.178.008a15.17 15.17 0 0 0 3.964-1.659.278.278 0 0 0-.04-.496L64.41 51.212a.273.273 0 0 0-.215 0A35.836 35.836 0 0 1 60.1 52.73a.277.277 0 0 0-.019.532ZM50.275 56.1l23.26 9.252c.049.02.101.025.152.016a65.51 65.51 0 0 0 5.763-1.12.278.278 0 0 0 .04-.53l-24.18-9.612c-1.228.334-2.467.67-3.688 1.028-.495.143-.939.293-1.34.455a.278.278 0 0 0-.007.511Zm-3.35 4.028c.467 1.248 2.748 4.157 12.947 5.343 2.205.263 4.424.398 6.644.407a.277.277 0 0 0 .102-.537l-19.194-7.632a.28.28 0 0 0-.342.114 2.5 2.5 0 0 0-.157 2.305Z"/>
  <path stroke="#4F2917" stroke-linecap="round" stroke-linejoin="round" stroke-width="1.8" d="M52.36 26.679c-.9-1.062-2.402-2.123-4.895-2.563-5.862-1.045-11.263-2.998-13.498-4.56-2.236-1.56-8.038-5.43-17.032-4.61-5.645.514-10.792 3.043-13.222 7.062-.38.63-.66 1.644-.758 2.375 0 0-.134 2.892-.225 3.911-.244 2.688-.623 7.112 1.93 9.93 2.908 3.207 11.949 7.188 23.053 7.634 9.391.375 19.031-.68 23.633-4.841a6.578 6.578 0 0 0 2.123-4.509l.343-5.874c.083-1.44-.522-2.859-1.452-3.955Z"/>
  <path fill="#4F2917" d="m22.438 18.122-16.475 6.55a.278.278 0 0 1-.369-.34c.41-1.335 1.468-3.13 4.116-4.773 4.694-2.91 11.264-2.113 11.517-2.081h.015c.063 0 .481.032 1.124.11a.278.278 0 0 1 .072.534Zm8.17 2.781L7.273 30.18a.278.278 0 0 1-.32-.087 7.885 7.885 0 0 1-1.248-2.291.274.274 0 0 1 .163-.352l21.688-8.622a.276.276 0 0 1 .2 0c1.078.405 2.105.925 2.915 1.597a.28.28 0 0 1-.063.478Zm7.475 3.538-24.302 9.66-.178.01a15.208 15.208 0 0 1-3.955-1.656.279.279 0 0 1 .04-.497l24.065-9.566a.273.273 0 0 1 .215 0c1.333.59 2.7 1.096 4.095 1.517a.277.277 0 0 1 .02.532Zm9.807 2.84-23.263 9.252a.269.269 0 0 1-.142.016c-1.957-.282-3.846-.667-5.764-1.119a.279.279 0 0 1-.039-.53l24.17-9.607c1.227.334 2.467.67 3.689 1.027.493.144.939.294 1.34.455a.28.28 0 0 1 .008.506Zm3.348 4.027c-.466 1.248-2.747 4.157-12.948 5.343a57.679 57.679 0 0 1-6.642.407.277.277 0 0 1-.102-.537l19.197-7.63a.278.278 0 0 1 .341.114 2.492 2.492 0 0 1 .154 2.303Z"/>
  <path stroke="#333" stroke-linecap="round" stroke-linejoin="round" stroke-width="1.5" d="M56.18 29.686c6.285 1.787 11.612 4.55 15.416 7.957a22.478 22.478 0 0 1 3.184 3.47m-71.017.474C1.981 44.188 1 47.031 1 50.007c0 4.343 2.085 8.395 5.702 11.83 6.768 6.441 18.9 10.735 32.734 10.735 1.82 0 3.61-.074 5.36-.22"/>
  <path stroke="#333" stroke-linecap="round" stroke-linejoin="round" stroke-width="1.5" d="M57.862 76.66c-5.264 2.356-11.574 3.727-18.35 3.727-16.38 0-29.998-7.999-32.803-18.544"/>
  <path stroke="#333" stroke-linecap="round" stroke-linejoin="round" stroke-width="1.5" d="M6.323 42.829c-1.407 2.237-2.176 4.656-2.176 7.18 0 11.445 15.799 20.722 35.289 20.722 1.464 0 2.904-.05 4.32-.151m12.329-38.85c7.072 2.227 12.704 5.826 15.855 10.193"/>
  <path stroke="#CD3B1F" stroke-linecap="round" stroke-linejoin="round" stroke-width="1.5" d="M13.178 46.429a20.976 20.976 0 0 0-4.506 4.967m46.221-10.145a33.787 33.787 0 0 1 8.008 4.181"/>
  <path stroke="#333" stroke-linecap="round" stroke-linejoin="round" stroke-width="1.8" d="M76.997 31.696c-2.205 1.713-4.073 3.664-5.4 5.953m.286-11.291c-4.328 3.8-7.313 6.571-7.313 6.571M23.622 11.96a42.649 42.649 0 0 1 58.4 1.233m-45.337 70.22a42.696 42.696 0 0 0 42.474-6.728v0M91.682 27.56a42.553 42.553 0 0 1 3.11 17.645"/>
  <path fill="#333" stroke="#333" stroke-linecap="round" stroke-linejoin="round" stroke-width="1.8" d="M108.572 12.538c-1.169 8.07-20.548 10.583-31.574 19.158l-5.114-5.339c8.672-7.62 22.739-19.37 28.954-21.216 3.409-1.011 8.879-.492 7.734 7.397Z"/>
</svg>
