<svg xmlns="http://www.w3.org/2000/svg"  fill="none" viewBox="0 0 78 67">
  <path stroke="#D5A97C" stroke-linecap="round" stroke-linejoin="round" d="M5.16 12.344S.447 13.79 1.55 17.842c1.068 3.932.445 6.367 7.541 9.346 8.748 3.675 11.781 1.728 15.708 2.2 3.928.47 7.619-1.257 8.876-.786 1.256.471 4.396 2.522 5.026.868.63-1.653 4.164-7.78 3.3-10.214-.864-2.435-5.5-7.54-14.61-8.248-9.11-.707-17.441.472-22.231 1.336Z"/>
  <path stroke="#D5A97C" stroke-linecap="round" stroke-linejoin="round" d="M41.316 26.204c.262-1.764.43-3.835.493-4.073m-40.4-6.265s-.92 1.66 0 6.53.844 6.851.765 7.708c-.079.857.393 4.782.55 5.96.156 1.178.785 10.918.63 11.625-.156.706-.236 2.972 4.162 5.296C11.915 55.31 18.99 55.7 21.73 55.7c2.739 0 8.486-1.098 11.309-3.219 2.822-2.12 5.497-2.436 6.283-2.828.785-.392.941-11.074.941-13.352"/>
  <path fill="#C8998C" stroke="#C8998C" stroke-linecap="round" stroke-linejoin="round" d="M10.172 23.264s3.281 1.988 4.205 2.357c.925.368 6.193-.232 8.227 0 2.034.23 8.921-.247 10.308-1.117 1.386-.87 2.172-2.95 2.863-3.043.691-.092 2.034-.832 1.201-2.496-.832-1.663-6.285-5.038-8.594-5.223-2.309-.185-10.723-.739-12.474-.277-1.752.462-6.193 1.202-7.21 1.479-1.018.277-2.912 3.642-1.48 4.57 1.433.929 2.589.884 2.635 1.392.046.508-.607 1.805.319 2.358Z"/>
  <path stroke="#D5A97C" stroke-linecap="round" stroke-linejoin="round" stroke-width=".7" d="M29.5 41.886c.439 0 .793-.226.793-.504s-.354-.504-.792-.504c-.438 0-.793.226-.793.504s.355.504.793.504Zm.934 2.824c.29-.433.336-.909.105-1.063-.231-.155-.653.07-.943.502-.289.432-.336.908-.104 1.063.231.155.653-.07.942-.502Zm-16.496-1.358a.437.437 0 1 0 0-.873.437.437 0 0 0 0 .873ZM3.754 27.805c.225-.029.367-.37.317-.761-.05-.392-.274-.686-.5-.657-.224.03-.366.37-.316.762.05.391.274.685.5.656Z"/>
  <path stroke="#D5A97C" stroke-linecap="round" stroke-linejoin="round" d="M77 39.94c-1.188 6.053-6.473 16.053-6.628 16.432-.154.38-3.523 4.176-7.737 1.878-4.214-2.299-4.098-10.687-4.098-10.687l3.869-1.38c.421 6.245 1.227 5.899 3.639 6.436 2.412.537 2.948-2.03 3.868-2.797.92-.767 2.796-8.197 2.605-8.384C72.328 41.251 77 39.94 77 39.94Zm-36.758-1.162c8.48 3.967 18.297 8.784 18.297 8.784"/>
  <path fill="#C8998C" stroke="#D5A97C" stroke-linecap="round" stroke-linejoin="round" d="M69.913 49.822c-.92.767-1.456 3.333-3.868 2.797s-3.218-.191-3.64-6.436l10.113-4.748c.19.19-1.686 7.621-2.605 8.387Z"/>
  <path fill="#C8998C" stroke="#D5A97C" stroke-linecap="round" stroke-linejoin="round" d="m72.519 41.435-10.113 4.748S51.96 41.297 40.268 36.3c0-2.278 0-6.599.55-7.855.193-.437.36-1.296.499-2.24 10.246 6.03 24.722 13.823 31.202 15.23Z"/>
  <path stroke="#D5A97C" stroke-linecap="round" stroke-linejoin="round" d="M41.605 23.904C54.532 31.777 77 39.94 77 39.94m-37.122 7.039c.287.106.56.206.818.297 4.636 1.646 13.758 6.979 17.347 8.773 3.589 1.795 4.593 2.2 4.593 2.2"/>
  <path stroke="#D5A97C" stroke-linecap="round" stroke-linejoin="round" stroke-width=".7" d="M55.255 48.38c.088-.205-.27-.556-.802-.786-.531-.23-1.033-.25-1.122-.047-.088.203.271.555.803.785.53.23 1.033.25 1.121.047Zm-12.1-1.655c.172-.043.25-.321.174-.62-.076-.3-.277-.508-.449-.464-.172.044-.25.322-.174.621.077.3.277.507.45.463Z"/>
  <path stroke="#333" stroke-linecap="round" stroke-linejoin="round" d="M15.93 59.347a32.729 32.729 0 0 0 39.94.591M17.633 6.828A32.574 32.574 0 0 1 36.283 1c17.468 0 31.74 13.687 32.674 30.923"/>
</svg>
