<svg xmlns="http://www.w3.org/2000/svg" fill="none" viewBox="0 0 104 96">
  <path stroke="#4F2817" stroke-linecap="round" stroke-linejoin="round" stroke-width="1.7" d="m1.73 71.888.228 4.014a4.488 4.488 0 0 0 1.456 3.077c3.141 2.841 9.722 3.562 16.13 3.304 7.586-.304 13.757-3.022 15.743-5.21 1.747-1.923 1.483-4.95 1.317-6.78-.062-.694-.153-2.669-.153-2.669a4.673 4.673 0 0 0-.514-1.621c-1.659-2.744-5.171-4.469-9.024-4.821-6.137-.56-10.097 2.083-11.626 3.148-1.528 1.066-5.214 2.399-9.216 3.112-1.702.303-2.725 1.02-3.341 1.747-.616.728-1.063 1.72-1 2.699Z"/>
  <path fill="#4F2817" d="m23.147 63.351 11.246 4.47a.19.19 0 0 0 .252-.231c-.28-.911-1.001-2.137-2.81-3.258-3.201-1.988-7.689-1.442-7.86-1.42h-.01c-.042 0-.327.02-.767.073a.19.19 0 0 0-.145.285.19.19 0 0 0 .094.081Zm-5.576 1.899L33.5 71.58a.19.19 0 0 0 .218-.059c.368-.47.656-1 .853-1.564a.189.189 0 0 0-.11-.236l-14.81-5.887a.192.192 0 0 0-.137 0 6.97 6.97 0 0 0-1.99 1.09.192.192 0 0 0-.03.266.19.19 0 0 0 .077.06Zm-5.103 2.413 16.593 6.594h.121a10.367 10.367 0 0 0 2.7-1.13.19.19 0 0 0-.027-.338l-16.43-6.523a.193.193 0 0 0-.146 0c-.91.403-1.843.75-2.795 1.038a.189.189 0 0 0-.016.36ZM5.774 69.6l15.879 6.314c.03.013.064.017.097.011a44.894 44.894 0 0 0 3.93-.764.19.19 0 0 0 .028-.361l-16.5-6.559c-.838.227-1.683.457-2.517.7-.338.1-.64.201-.916.308a.189.189 0 0 0-.001.35Zm-2.288 2.752c.32.852 1.875 2.837 8.839 3.648 1.505.178 3.02.27 4.535.276a.19.19 0 0 0 .163-.281.19.19 0 0 0-.094-.086l-13.1-5.208a.19.19 0 0 0-.233.078 1.703 1.703 0 0 0-.11 1.573Z"/>
  <path stroke="#4F2817" stroke-linecap="round" stroke-linejoin="round" stroke-width="1.7" d="M101.733 42.836c-.728-.864-1.95-1.72-3.976-2.08-4.76-.85-9.146-2.437-10.964-3.703-1.818-1.266-6.53-4.412-13.828-3.745-4.586.418-8.764 2.474-10.738 5.735-.31.512-.537 1.335-.612 1.929 0 0-.107 2.349-.183 3.176-.197 2.183-.505 5.777 1.57 8.065 2.36 2.605 9.703 5.838 18.727 6.2 7.627.305 15.455-.55 19.193-3.93a5.337 5.337 0 0 0 1.716-3.66l.275-4.776c.063-1.169-.425-2.319-1.18-3.21Z"/>
  <path fill="#4F2817" d="m77.43 35.887-13.38 5.319a.227.227 0 0 1-.302-.151.226.226 0 0 1 .003-.126c.331-1.083 1.192-2.541 3.347-3.876 3.814-2.364 9.15-1.715 9.355-1.69h.013c.05 0 .39.026.912.089a.226.226 0 0 1 .052.435Zm6.635 2.258-18.95 7.53a.223.223 0 0 1-.261-.068 6.455 6.455 0 0 1-1.019-1.861.224.224 0 0 1 .131-.281l17.62-7.003c.052-.02.11-.02.163 0 .854.3 1.654.737 2.367 1.295a.226.226 0 0 1-.051.388Zm6.072 2.873L70.4 48.864l-.146.009a12.356 12.356 0 0 1-3.212-1.344.227.227 0 0 1 .032-.405l19.544-7.768a.22.22 0 0 1 .176 0c1.082.479 2.192.89 3.324 1.233a.226.226 0 0 1 .02.43Zm7.966 2.307-18.894 7.51a.227.227 0 0 1-.116.014 53.672 53.672 0 0 1-4.677-.91.227.227 0 0 1-.032-.436l19.63-7.804c.998.272 2.004.545 2.997.834.4.117.764.239 1.089.366a.226.226 0 0 1 .003.426Zm2.718 3.277c-.378 1.018-2.23 3.376-10.515 4.34a47.095 47.095 0 0 1-5.395.317.226.226 0 0 1-.083-.436l15.593-6.198a.228.228 0 0 1 .277.092 2.033 2.033 0 0 1 .123 1.885Z"/>
  <path stroke="#9D9D9D" stroke-linecap="round" stroke-linejoin="round" stroke-width="1.7" d="M21.98 58.517V31.424a.65.65 0 0 1 .65-.65h65.452a.65.65 0 0 1 .65.65v3.242m-.001 26.6v3.48a.649.649 0 0 1-.65.65h-49.36"/>
  <path fill="#CD3B1F" stroke="#CD3B1F" stroke-linecap="round" stroke-linejoin="round" stroke-width="1.7" d="M31.609 23.018a3.847 3.847 0 1 0 0-7.694 3.847 3.847 0 0 0 0 7.694Z"/>
  <path fill="#9D9D9D" stroke="#9D9D9D" stroke-linecap="round" stroke-linejoin="round" stroke-width="1.7" d="M47.694 23.018a3.847 3.847 0 1 0 0-7.694 3.847 3.847 0 0 0 0 7.694Z"/>
  <path fill="#333" stroke="#333" stroke-linecap="round" stroke-linejoin="round" stroke-width="1.7" d="M63.824 23.018a3.847 3.847 0 1 0 0-7.694 3.847 3.847 0 0 0 0 7.694Zm16.171 0a3.847 3.847 0 1 0 0-7.694 3.847 3.847 0 0 0 0 7.694Z"/>
  <path stroke="#333" stroke-linecap="round" stroke-linejoin="round" stroke-width="1.7" d="M13.236 61.157v-49.09a3.479 3.479 0 0 1 3.48-3.48h6.299a3.185 3.185 0 0 1 3.154-2.73h18.05a3.182 3.182 0 0 1 3.154 2.73h15.574a3.182 3.182 0 0 1 3.152-2.73h18.049a3.184 3.184 0 0 1 3.154 2.73h6.087a3.477 3.477 0 0 1 3.473 3.48v25.636m0 22.489v11.71a1.443 1.443 0 0 1-1.442 1.444H39.342m-.266 2.949h56.78a1.019 1.019 0 0 1 1.012 1.012v5.563a3.056 3.056 0 0 1-3.056 3.065h-.556a1.952 1.952 0 0 1-1.928 1.65h-8.1a1.953 1.953 0 0 1-1.926-1.65H29.877a1.95 1.95 0 0 1-1.926 1.65h-8.089a1.952 1.952 0 0 1-1.927-1.65h-1.63a3.057 3.057 0 0 1-2.12-.859"/>
  <path stroke="#9D9D9D" stroke-linecap="round" stroke-linejoin="round" stroke-width="1.7" d="M58.965 39.31H28.014a1.522 1.522 0 0 1 0-3.043h31.979"/>
  <path stroke="#333" stroke-linecap="round" stroke-linejoin="round" stroke-width="1.7" d="M101.344 37.913a46.829 46.829 0 0 0-2.368-7.66M40.41 3.307a47.315 47.315 0 0 1 29.96.02M33.399 89.574a47.137 47.137 0 0 0 44.485-.308M10.153 61.061a47.315 47.315 0 0 1 .695-28.433M99.17 65.14a46.48 46.48 0 0 0 2.248-7.53"/>
</svg>
