<svg xmlns="http://www.w3.org/2000/svg" width="90" height="84" fill="none" viewBox="0 0 90 84">
  <path stroke="#333" stroke-linecap="round" stroke-linejoin="round" d="M38.3 43.491c.579-.29 3.18-1.59 1.634-2.426-1.545-.836-1.885 2.226-7.5 4.308-5.614 2.083-7.376 3.09-8.444 3.517-1.068.425-7.064 5.83-7.63 8.361-.439 1.965-1.463 3.036.264 3.815 1.726.779 3.497-2.861 3.974-3.004.477-.143 4.575-2.515 4.683-3.072.108-.556 1.494-.543 2.073-.836.578-.292 1.453-1.65 2.079-2.483.626-.833 1.233-2.686 2.985-3.739m-1.053-9.045s-6.079.636-7.17.728c-1.09.093-5.92.977-6.409 1.113-.49.137-6.514 1.463-7.417 1.88-.903.416-5.087 1.179-2.979 2.899a12.25 12.25 0 0 0 5.551 2.702c2.016.407 3.79.738 4.232.69.986-.087 1.958-.3 2.89-.636.521-.226 2.877-2.667 3.459-2.97 1.44-.75 3.866-2.209 7.357-2.45m13.737 5.411c.397.807 1.59 1.005 2.156 2.903.565 1.898-.563 5.404-.074 4.962.49-.441.449-.124.662-3.945.213-3.822-2.598-6.235-2.862-6.73-.264-.497.636-.7 1.075-.865.439-.166 1.818.721 2.143.636.324-.086 1.042-1.294 1.478-3.987 0 0 .175-2.067-.528-3.18-.702-1.112-.394-1.42.595-1.65.989-.229 5.087-1.751 6.104-5.926"/>
  <path stroke="#333" stroke-linecap="round" stroke-linejoin="round" d="M24.841 47.59c-.029-.738 2.718-3.606 6.04-4.75 0 0-1.303-2.811 1.225-4.43 2.527-1.618 4.276-2.625 5.442-2.288 2.191.635 5.087 3.856 5.164 8.202m-.274 3.17c-.041.318.474 1.052 1.253 1.844.912.931 2.365 1.01 2.407 2.616 0 0 .62 4.553-2.337 6.505"/>
  <path stroke="#333" stroke-linecap="round" stroke-linejoin="round" d="m44.404 51.767-3.043-2.003c-.375-.248-1.243.254-1.074.865.168.61.46 4.38-.506 6.088-.15.258 2.041.267 2.598 2.124.556 1.856 1.907 4.378.826 5.5-.353.36-.356-.512-.19-.69.165-.178.518-1.106-.067-1.164-.585-.057-.258-1.414-.258-1.414M38.004 50.34s-.067 2.075-2.019 2.612c-.242.067.032 2.922.372 4.01.34 1.087-.337 5.296-1.462 6.132-1.126.837-2.417 2.022-5.087.789-2.67-1.234-3.924-2.544-4.343-4.575 0 0 4.4 3.357 8.708-.522m14.157-19.73c.457 1.66-.338 4.197-.98 4.375-.642.178-.483-3.027-.661-3.666-.178-.639-.85-1.691-.21-1.866.639-.175 1.672.518 1.85 1.157Zm-.264-10.466s2.143 3.704-.804 6.606c-.318.302.4.983.359 1.3-.041.319-1.056-.975-1.908-.782m-6.689-.063s2.49-.782 4.45.032c1.963.814 2.128 5.99.932 7.137"/>
  <path stroke="#333" stroke-linecap="round" stroke-linejoin="round" d="M25.156 56.59s2.152 2.066 8.285-.165"/>
  <path stroke="#DBC7B9" stroke-linecap="round" stroke-linejoin="round" d="m24.39 37.877 1.154-1.997-6.136-10.628H7.136L1 35.88l3.923 6.797m35.528-29.551H28.18l-6.135 10.628 6.135 10.629h12.272l6.136-10.629-6.136-10.628ZM61.498.972H49.226L43.086 11.6l6.14 10.628h12.272L67.634 11.6 61.498.972Zm-13.585 26.55 1.31-2.27h12.275l6.136 10.628-6.136 10.628h-11.98m33.024-33.382H70.27l-6.136 10.628 6.136 10.629h12.272l6.136-10.629-6.136-10.628ZM8.43 49.3H7.136L1 59.928l6.136 10.628h12.272l4.845-8.396m14.154-.706h2.044l6.136 10.629-6.136 10.628H28.18l-6.135-10.628 4.705-8.155m22.126-14.024.347-.604h12.275l6.136 10.628-6.136 10.628H49.223l-3.075-5.325m36.394-28.057H70.27l-6.136 10.628 6.136 10.629h12.272l6.136-10.629-6.136-10.628Zm0 24.28H70.27l-6.136 10.629L70.27 82.71h12.272l6.136-10.628-6.136-10.629Z"/>
  <path fill="#F2A679" d="M71.828 34.408a2.2 2.2 0 0 1 1.478.5 1.2 1.2 0 0 1 .286.333c.245.467.671.871.487 1.59-.185.718-.426.833-.181 1.195.244.362.953.245 1.014 0a1.273 1.273 0 0 0-.102-1.052c-.264-.528-.302-1.46-.041-1.663.477-.375-.073-.922.67-.954.745-.032.69.318.636.747-.054.43-.04.71.318.728a.47.47 0 0 0 .525-.566c-.08-.317-.14-.813.264-.925.403-.11 3.713.274 3.875 0 .162-.273-1.097-.375-1.704-.394-.607-.019-3.103.204-3.427 0-.324-.203-5.335-.08-5.154.245.102.2.64.229 1.056.216ZM50.313 22.232c.31.09.584.276.782.53.318.414.347.783.719.783s.318 0 1.106-.658c.789-.659.935.038 1.564 0 .63-.038.827-.43 1.565-.363.737.067.89 1.151 1.694 1.129.804-.022 1.478-.846 2.302-.824.823.023 1.272-.791 1.068-.791a15.815 15.815 0 0 0-1.742-.21c-.54.022-4.133.064-4.496 0a34.913 34.913 0 0 0-3.563-.108c-.172.063-3.011.432-.999.512Zm7.16 24.273c.21.035.21 0 .413.49.232.566-.295 1.564-.318 1.707-.022.143 0 .858.538.824.537-.035.422-.907.403-1.193-.019-.286-.044-1.59.296-1.615.34-.025.436.398.731.426.296.029.636-.451.954-.6.318-.15-.343-.35-.636-.296-.292.054-1.456.067-1.59.067-.133 0-1.532.079-.791.19Zm-7.643-.079s.317-.121.292.477a9.608 9.608 0 0 1-.292 1.78c-.093.318-.204 1.536.845 1.469 1.05-.067 1.05-.859 1.014-1.186-.035-.328-.39-1.138-.318-1.691.073-.554.277-.802.84-.636.563.165.407.362.69.438.283.077.8-.42.778-.654-.022-.236-.282-.296-.635-.318-.353-.023-2.226-.09-2.416-.09-.191 0-1.848.41-.798.41ZM70.763 58.43s.21.198 0 .938c-.21.741-.29 1.72.092 1.72.381 0 .477-.581.454-.861-.022-.28-.222-1.078-.152-1.402.07-.325.28-.394.394-.394.115 0 .318.092.267.674-.05.581.14 1.993-.127 2.76-.267.765-.035 1.322.254 1.252.29-.07.407-.776.385-1.078-.022-.302-.076-2.194 0-2.264.076-.07.216-.718.808-.346.59.372.441.48.823.451.137 0 .636-.244.709-.057.073.188.14.127.105.636-.035.509 0 .591.206.591.207 0 .43-.155.373-.286a.78.78 0 0 1-.22-.849c.112-.421.35-.799.684-1.08.14-.163.114-.51.585-.465.47.045.75.07.75.722 0 .652 0 .995-.127 1.332-.127.337-.035.928.318.906a.506.506 0 0 0 .508-.5 4.818 4.818 0 0 0-.206-.997 5.908 5.908 0 0 1-.06-.973c0-.175.034-.442.104-.442.07 0-.276-.318-.636-.318a6.863 6.863 0 0 1-1.646-.092 6.08 6.08 0 0 0-2.032-.29c-.461 0-1.39.3-1.609.29-.22-.01-2.044.15-1.004.423Z"/>
</svg>
