<svg xmlns="http://www.w3.org/2000/svg" fill="none" viewBox="0 0 32 27">
  <path stroke="#333" stroke-linecap="round" stroke-linejoin="round" stroke-width=".5" d="M8.166 3.504a12.276 12.276 0 0 1 15.53.163M11.447 24.558a12.322 12.322 0 0 0 9.177-.166M4.163 9.27a12.296 12.296 0 0 0 3.009 12.519M27.131 8.29a12.287 12.287 0 0 1-2.294 13.14M11.563 6.748a7.647 7.647 0 0 1 8.32-.14M17.3 20.594a7.657 7.657 0 0 1-2.494.073v0m-6.533-8.735c-.058.384-.087.77-.087 1.159a7.619 7.619 0 0 0 2.393 5.553m12.827-6.593c.047.345.07.692.07 1.04a7.61 7.61 0 0 1-1.91 5.054"/>
  <path fill="#333" d="M31.288 1.34a1.434 1.434 0 0 0-1.015-.044c-4.43 1.393-10.633 7.251-11.691 8.445-1.09 1.228-.441 3.314-1.043 4.287-.117.189-.587.651-1.269 1.278-2.196-2.105-4.518-4.412-4.518-4.412-.69-.751-.858-1.993-.643-3.128.139-.734-7.76-7.115-8.25-7.545-.491-.43-.415-.107-.508-.077-.093.03 6.197 6.135 6.242 6.242.045.108-.03.277-.119.373-.088.096-.235.071-.358.04C7.994 6.767 2.015.942 1.97.896 1.923.85 1.754.712 1.647.85c-.107.137.015.291.015.291s5.904 5.874 6.073 6.073c.124.147.047.344-.027.41-.03.027-.057.055-.083.084-.067.075-.264.152-.411.027-.2-.168-6.073-6.072-6.073-6.072S.987 1.541.85 1.648c-.138.107 0 .277.046.322.046.045 5.873 6.026 5.904 6.149.03.122.056.27-.04.358-.095.087-.265.163-.373.119C6.28 8.55.173 2.259.143 2.352c-.03.093-.351.016.08.506.43.49 6.81 8.39 7.544 8.251 1.135-.215 2.377-.046 3.128.644 0 0 2.272 2.286 4.363 4.467-3.141 2.793-8.41 7.207-8.726 7.658-.44.626-.21 1.46.246 1.932.455.472 1.243.43 1.82.22.575-.212 3.964-4.208 5.295-5.842.281-.345 1.23-1.35 2.553-2.72 1.042 1.107 1.891 2.046 2.162 2.442.87 1.27 5.039 6.064 5.307 6.154.216.072.697.25 1.31-.058.338-.17.613-.445.783-.783.308-.614.13-1.095.058-1.311-.089-.267-4.883-4.437-6.153-5.307-.398-.272-1.345-1.128-2.46-2.178 4.916-5.063 13.16-13.376 14.038-14.26a.593.593 0 0 0 .159-.261c.073-.284-.124-.46-.362-.565Z"/>
</svg>
