<svg xmlns="http://www.w3.org/2000/svg" fill="none" viewBox="0 0 75 84">
  <path stroke="#333" stroke-linecap="round" stroke-linejoin="round" d="M31.748 12.954c.635-.126 3.497-.699 2.225-1.906-1.272-1.207-2.418 1.652-8.393 2.16-5.975.509-7.952 1.018-9.095 1.146-1.142.13-8.382 3.748-9.603 6.043-.95 1.78-2.228 2.544-.763 3.75 1.465 1.208 4.134-1.844 4.642-1.844.509 0 5.087-1.207 5.341-1.716.255-.509 1.59-.129 2.225-.254.634-.126 1.845-1.21 2.672-1.845.827-.634 1.91-2.265 3.88-2.818m1.401-9.01s-6.044-1.017-7.122-1.21c-1.078-.194-5.978-.635-6.487-.635-.508 0-6.684-.339-7.667-.163-.983.177-5.242-.22-3.652 2.008a12.32 12.32 0 0 0 4.642 4.093c1.842.93 3.466 1.72 3.907 1.794.977.178 1.973.23 2.963.152.563-.081 3.49-1.81 4.134-1.946 1.587-.34 4.324-1.106 7.759-.407m11.824 8.894c.17.885 1.269 1.394 1.31 3.391.04 1.998-1.984 5.07-1.394 4.775.59-.295.464 0 1.695-3.632s-.84-6.728-.977-7.28c-.135-.553.804-.509 1.269-.55.464-.04 1.563 1.184 1.902 1.184.34 0 1.356-.973 2.492-3.46 0 0 .72-1.949.34-3.217-.38-1.268 0-1.479 1.017-1.438 1.017.04 5.368-.34 7.48-4.096"/>
  <path stroke="#333" stroke-linecap="round" stroke-linejoin="round" d="M17.653 13.317c.17-.719 3.59-2.757 7.1-2.977 0 0-.508-3.052 2.374-3.95 2.883-.9 4.83-1.398 5.87-.76 1.947 1.193 3.87 5.086 2.801 9.301m-1.116 2.994c-.129.302.177 1.143.716 2.116.634 1.143 2.017 1.607 1.63 3.17 0 0-.616 4.562-3.994 5.66"/>
  <path stroke="#333" stroke-linecap="round" stroke-linejoin="round" d="M35.441 22.578s-1.736-1.977-2.407-2.747c-.299-.34-1.268-.085-1.268.55 0 .633-.723 4.357-2.113 5.744-.21.213 1.902.803 1.943 2.746.04 1.943.678 4.748-.678 5.538-.434.25-.204-.594 0-.72.203-.125.797-.928.247-1.142-.549-.213.13-1.434.13-1.434m-1.659-11.621s-.617 1.987-2.645 1.987c-.255 0-.75 2.831-.712 3.97.037 1.14-1.74 5.03-3.052 5.535-1.313.505-2.872 1.312-5.114-.59-2.241-1.903-3.11-3.5-2.974-5.578 0 0 3.357 4.408 8.552 1.82m18.932-15.293c0 1.726-1.448 3.967-2.113 3.967-.664 0 .34-3.052.34-3.73 0-.678-.37-1.858.294-1.858.665 0 1.479.956 1.479 1.62ZM45.15 1.156s1.082 4.151-2.536 6.169c-.38.21.125 1.054 0 1.356-.126.302-.76-1.224-1.648-1.265M34.54 5.575s2.614-.092 4.286 1.214c1.672 1.306.458 6.355-1.017 7.145"/>
  <path stroke="#333" stroke-linecap="round" stroke-linejoin="round" d="M15.557 22.106s1.53 2.567 8.05 2.035m21.567 27.494c1.35 4.456 2.45 8.985 3.293 13.564M43.028 51.86s2.886 8.795 3.418 17.737c.02.37.044.73.064 1.082"/>
  <path stroke="#F2A679" stroke-linecap="round" stroke-linejoin="round" d="M41.081 18.885c.8-.461 1.98-.902 3.144-.448 2.035.794 2.794 1.9 2.53 3.344m1.614.715s1.926-3.645 3.655-3.523c1.73.122 4.612.552 4.897 1.207.678 1.533-.678 4.283-6.162 6.85"/>
  <path stroke="#F2A679" stroke-linecap="round" stroke-linejoin="round" d="M56.904 21.886s3.926-.268 4.93.65c1.004.92.417 2.462-.237 2.805-.655.342-9.566 4.14-10.37 4.252m-36.821-.945c-.546.973-.637 2.099.523 3.167.27.244.562.461.875.647 2.424 1.479 8.531.475 12.963-.546m4.091-1.048c.61-.172.963-.281.963-.281"/>
  <path stroke="#F2A679" stroke-linecap="round" stroke-linejoin="round" d="M32.942 32.496a13.163 13.163 0 0 0 1.78-.776c.247-.194.42-.465.492-.77.065-.373-.173-.62-.993-.183a.265.265 0 0 1-.387-.268c.02-.173.048-.376.085-.61"/>
  <path stroke="#DBC7B9" stroke-linecap="round" stroke-linejoin="round" d="M41.081 20.882a7.964 7.964 0 0 1 1.54.055c7.847 1.017 7.552 3.93 8.6 8.647.034.156.068.312.105.471"/>
  <path stroke="#F2A679" stroke-linecap="round" stroke-linejoin="round" d="m29.1 33.927-2.034.726C23.99 35.735 20.91 36.755 19.799 37c-2.428.535-5.684.773-6.226-1.77-.543-2.544 1.319-3.392 1.356-3.415"/>
  <path stroke="#F2A679" stroke-linecap="round" stroke-linejoin="round" d="M27.062 34.653s-8.478 3.988-8.952 5.64c-.475 1.65-2.5 4.269 1.254 5.828 3.754 1.56 8.264-4.184 8.264-4.184s9.834-9.946 9.97-10.265c.24-.55-.383-1.543-2.374-.732"/>
  <path stroke="#F2A679" stroke-linecap="round" stroke-linejoin="round" d="M22.936 45.847s-.766 1.97 1.963 2.998c2.73 1.027 5.972-4.07 7.074-5.46 1.102-1.39 7.237-10.93 7.46-11.624.153-.499-.46-1.56-1.82-.089m2.281 1.112s-6.307 9.977-6.48 13.205c-.173 3.228.21 5.585 3.367 5.463 3.157-.122 3.347-2.964 3.337-3.425-.01-.461 1.875-15.371 1.722-15.938-.08-.373-.759-1.234-1.946.695Z"/>
  <path stroke="#F2A679" stroke-linecap="round" stroke-linejoin="round" d="M39.981 49.01s1.418 3.15 3.978 2.873c2.56-.278 3.476-2.625 3.73-3.7.255-1.075-2.01-15.738-3.248-16.348-1.238-.61-2.659 1.58-2.659 1.58"/>
  <path stroke="#F2A679" stroke-linecap="round" stroke-linejoin="round" d="M46.421 38.824a33.329 33.329 0 0 1-.471-7.138s.44-1.98 1.909.315c1.756 2.747 7.012 15.344 7.012 15.344s.994 3.391-2.16 4.44c-3.153 1.047-5.035-3.602-5.035-3.602M51.21 36.57s5.618 10.678 7.924 11.786c1.818.872 4.86.594 6.135-.37 1.04-.786 2.312-1.25-.43-3.97-2.744-2.72-14.325-12.805-15.115-13.198-1.42-.712-1.96.885 1.486 5.751Zm2.543-6.22s14.629 1.72 16.474 2.224c1.475.4 4.632 2.998 3.513 6.057-1.12 3.059-4.086 2.896-5.344 2.445-1.258-.451-14.704-7.735-16.545-8.898-1.842-1.163-2.605-2.68 1.902-1.828Z"/>
  <path stroke="#F2A679" stroke-linecap="round" stroke-linejoin="round" d="M51.335 30.055s12.011-4.558 16.549-3.985c4.537.573 4.93 1.272 5.666 2.069.427.465 1.482 3.794-2.848 4.612"/>
  <path stroke="#333" stroke-linecap="round" stroke-linejoin="round" d="M26.526 72.66s2.79 8.118 3.313 10.77m-2.321-11.215s2.472 7.19 2.655 8.637"/>
  <path stroke="#F2A679" stroke-linecap="round" stroke-linejoin="round" d="M25.39 54.952a32.65 32.65 0 0 1 4.707 1.054c2.398.834 3.788 1.696 4.795 4.229"/>
  <path stroke="#DBC7B9" stroke-linecap="round" stroke-linejoin="round" d="M18.252 56.67s-2.034-5.615 2-7.12c4.036-1.506 5.186 5.663 5.186 5.663"/>
  <path stroke="#F2A679" stroke-linecap="round" stroke-linejoin="round" d="M15.435 69.716s-2.374-.535-2.286-3.543c.041-1.51 3.839-9.197 4.982-9.37 1.143-.172 1.017.753 1.017.753"/>
  <path stroke="#F2A679" stroke-linecap="round" stroke-linejoin="round" d="M20.21 57.63c-.604-.159-1.293-.41-2.103 1.337-.81 1.746-3.835 11.048-1.78 13.14 2.054 2.092 4.069.838 4.438.34.59-.808.024-3.714.017-5.688-.006-1.973 1.052-8.701-.573-9.128Z"/>
  <path stroke="#F2A679" stroke-linecap="round" stroke-linejoin="round" d="M21.027 70.808s1.536 2.398 3.34 2.035c.282-.058.571-.074.858-.047a3.46 3.46 0 0 0 2.275-.57c1.357-.912 1.845-1.56 1.669-2.611-.177-1.051-3.415-6.945-4.13-8.502-.9-1.956-1.713-4.12-2.52-3.937-.6.136-1.496.316-1.499 2.035"/>
  <path stroke="#F2A679" stroke-linecap="round" stroke-linejoin="round" d="M29.212 69.92s1.744 1.312 2.693.678c.678-.451 1.075-.899 1.173-1.356a.458.458 0 0 1 .499-.37 1.228 1.228 0 0 0 1.329-.726c.63-1.207.81-2.068.18-3.126-.631-1.058-2.659-4.215-5.138-5.484-2.479-1.268-4.974-3.648-5.822-3.248a1.493 1.493 0 0 0-.783 1.397"/>
  <path stroke="#F2A679" stroke-linecap="round" stroke-linejoin="round" d="M35.17 65.2a1.305 1.305 0 0 0 1.377-.984c.305-1.095.536-2.241-.57-3.215-1.105-.973-5.73-3.523-6.978-4.069-1.248-.546-3.09-1.634-3.683-1.397a.678.678 0 0 0-.38.844"/>
</svg>
