<svg xmlns="http://www.w3.org/2000/svg" width="100" height="83" fill="none" viewBox="0 0 100 83">
  <path stroke="#F2A679" stroke-linecap="round" stroke-linejoin="round" d="M95.439 9.397c.465-.303.712-.566.695-.814m-44.028.965c.083.478.755.815.755.815M44.527 28.81c.086.228-.73.381-.73.381M1.59 28.532c.003.024.01.049.023.07v0c.114.21.622.35.622.35"/>
  <path stroke="#333" stroke-linecap="round" stroke-linejoin="round" d="M36.801 77.609s-24.923 2.443-31.136-1.204c-1.656-.974-1.276-2.57-1.353-6.312l-.934-33.298s.052-1.518-1.655-1.86c-.822-.164-1.172-1.373.206-1.911 1.378-.539.62-2.094.444-2.31-.13-.16.09-.548.213-.773.124-.226-.1-.515-.267-.7-.142-.157-.472-1.258 2.693-1.295 3.166-.037 10.934-.54 18.004-.457 6.813.085 18.538.807 20.55 1.463a.355.355 0 0 1 .204.508.82.82 0 0 1-.272.273c-.218.148.17.686.243.922.095.313-.277.525-.31 1.238-.016.384-.3.652 1.03 1.44 1.17.693.522 1.45.264 1.59-.496.275-1.841.52-1.83 1.739.012 1.219-.062 31.984-.062 31.984"/>
  <path stroke="#333" stroke-linecap="round" stroke-linejoin="round" d="M1.226 34.657s-1.143-1.365 4.918-1.38c6.061-.014 12.87-.434 17.432-.327M2.371 30.715s-.388-1.116 5.897-1.243 10.144-.299 10.584-.257m24.624 3.321s-.662-1.22-11.543-1.135"/>
  <path stroke="#F2A679" stroke-linecap="round" stroke-linejoin="round" d="M44.527 28.81c-.106-.286-1.648-.687-8.061-1.03-12.815-.686-19.819-.647-27.656-.302-5.818.256-6.787.676-6.958.764-.199.102-.269.198-.262.285-.083-.295-.35-1.455 0-3.088.407-1.897 6.483-2.53 8.75-2.703 2.267-.174 14.02-.546 23.942.13 9.92.676 10.022 2.458 10.247 2.993.224.535.007 2.854-.002 2.95Z"/>
  <path stroke="#333" stroke-linecap="round" stroke-linejoin="round" d="m38.13 70.837-.134-31.21c-2.735-.18-29.413 0-29.413 0l.719 33.136s14.385 1.31 27.477-.036"/>
  <path stroke="#F2A679" stroke-linecap="round" stroke-linejoin="round" d="M29.861 64.023a11.152 11.152 0 0 0 3.982-4.337m-21.28-5.696a10.78 10.78 0 0 1 2.584-6.158m13.01-3.1c3.854 1.58 6.633 5.202 6.852 9.544.007.134.01.268.011.4m-21.29 5.108c1.913 3.685 5.897 6.139 10.397 5.987M21.775 55.11s.16-1.356-2.669-1.316c0 0 .876.478.478 2.311m1.406-3.379s-1.975 1.944-3.879.384"/>
  <path stroke="#F2A679" stroke-linecap="round" stroke-linejoin="round" d="M20.73 52.945s-1.366.36-2.253-.132c-.158-.087-.027.147-.648.26-.62.111-2.825.218-2.008-2.496.384-1.275 1.415-.245 2.673-.332 1.258-.087 2.2-.506 1.676.541-.105.21-1.868-.104-.663 1.136"/>
  <path stroke="#F2A679" stroke-linecap="round" stroke-linejoin="round" d="M16.582 51.513c0-.066-.628-1.312.654-.621.246.131.18 1.111-.311.62m-.675-1.524s.337-2.538-1.103-2.939c-1.44-.401-2.985-.266-3.78-2.317-.193-.495 1.886-.636 1.886-.636m2.444.636s.572-1.666 1.415-1.736c.843-.07 1.433-.315 1.695-.56.262-.244.8-.103 1.17.23.37.332 1.345.686 1.99.686.647 0 .927.698 1.014 1.571.087.872 1.397-1.048 1.642-1.117.245-.07 2.236-.473 2.69.034.454.507.07 1.52-.629 1.921-.699.402-.874.874-1.869.891-.995.017-3.483 1.066-3.212 2.597.27 1.532.487 2.848-.49 3.11"/>
  <path stroke="#F2A679" stroke-linecap="round" stroke-linejoin="round" d="M17.375 43.817s1.17-.229 1.082 1.66c0 0 .735-1.747 1.765-1.922 0 0-.525-.127-1.424.315-.463.226-.251.053-1.423-.053Zm-1.134 1.45s1.335 1.02.21 1.636c-.267.146-.472-.658-.472-.728 0-.07 1.153.454.262-.908Zm6.236.349s-1.03-.245-1.03 1.222c0 .204 1.15.106 1.03-1.222Zm1.239 1.278s.507 1.36 2.323 1.534c1.816.174 2.585 1.049 2.585 1.049m-1.948 15.809h-.569l-.283.492.283.492h.569l.283-.492-.283-.492Zm2.219-.771h-.568l-.284.492.284.492h.568l.284-.492-.284-.492Zm-5.275-3.011s-1.818-2.718-2.78-1.4c-.396.541 1.029 1.853 2.897 1.853m1.182.256s4.065.582 2.445 1.657c-.972.645-2.524-.71-2.745-1.36m-.979-.297s-1.992.811-1.134 2.236c0 0 1.845.057 1.744-1.817"/>
  <path stroke="#F2A679" stroke-linecap="round" stroke-linejoin="round" d="M22.581 62.985s.28.903 1.372.827m-.096-2.663s.669-.506 1.242-.299c.313.115.3.809.081 1.004"/>
  <path stroke="#F2A679" stroke-linecap="round" stroke-linejoin="round" d="M24.446 59.896c.092.324.071.669-.058.98m.946.251s.067-.189.896-.379"/>
  <path stroke="#333" stroke-linecap="round" stroke-linejoin="round" d="M49.607 68.951s-.029-5.331-.51-6.994c-.182-.63.146-.764.255-1.487.108-.722-.283-28.391-.31-28.498a5.821 5.821 0 0 1-.196-1.352c0-.613.187-1.024.205-1.423.018-.399.41-4.346.556-5.576.146-1.23.025-1.382 0-1.576-.026-.195.169-.582.32-.95.15-.366.538-2.221 1.338-3.214.8-.993 2.87-2.956 2.847-3.43-.021-.475-.323-.734-.365-.885-.043-.15.042-.647-.066-.734-.107-.087-.841-.733-.841-1.03 0-.295.367-.457.367-.539 0-.082 0-.367-.065-.367-.066 0-.259-.367-.28-.518-.022-.151.012-1.384 3.71-2.395 2.763-.756 10.293-1.643 15.99-1.662 5.698-.018 16.423-.15 20.35 1.187 3.927 1.339 2.1 2.564 2.086 2.735-.014.17.114.298.242.612.128.313-.26.915-.726 1.21-.157.1-.1.613-.185.754-.085.142-.64.698-.343 1.154.297.457 2.192 2.649 2.727 3.161.536.513 1.211 3.051 1.398 3.61.186.56.448.637 0 1.505-.213.41.03 2.727.081 3.16.051.432.174 3.284.277 3.544.14.335.223.692.242 1.055.017.431-.242 1.157-.19 1.677.053.519-1.896 27.98-1.67 28.732.225.751.457 1.492.388 1.634-.068.142-1.417 3.507-1.155 7.167.02.273.205.335.254.664.078.526-.622 2.758-1.541 3.747-.59.633-1.62 1.21-1.62 1.21"/>
  <path stroke="#333" stroke-linecap="round" stroke-linejoin="round" d="M53.208 11.25s6.425-3.216 21.646-2.85m19.566 3.84s-1.322-2.69-12.624-2.338M49.607 22.04s1.974-3.216 24.434-2.927m24.586 11.571s2.288-2.024-21.62-1.77m-27.963 32.71s4.207 1.647 26.153 1.727m21.073 7.163s-.343 1.515-14.501 1.936M52.42 58.016l-.241-23.98s26.72-1.637 44.476 0l-1.344 23.98s-22.761 2.008-42.891 0Z"/>
  <path stroke="#F2A679" stroke-linecap="round" stroke-linejoin="round" d="M80.548 55.742a11.127 11.127 0 0 0 4.395-4.21m-20.62-.07c1.931 3.414 5.832 5.747 10.33 5.747m4.841-20.275c4.003 1.676 6.784 5.369 6.784 9.657v.192m-23.218-.957c.182-2.353 1.205-4.496 2.796-6.175m6.878 7.299s-.322-1.583-2.764-1.315c0 0 .992.295.482 2.228m-2.442-2.871s1.771 1.315 3.919-.403c0 0-1.504.652-2.44.134-.486-.269-.244.188-.754.188s-2.228.134-2.256-.86c-.027-.993.134-2.093 1.02-2.04.887.054 1.313.215 1.703.162.39-.054 1.975-.458 2.15-.163.173.295-.04 1.13-.55 1.21-.511.08 1.18-1.02-.832-.376"/>
  <path stroke="#F2A679" stroke-linecap="round" stroke-linejoin="round" d="M67.485 43.722s-.692-1.722.814-.763c.37.236-.134 1.01-.487.59m-.735-1.458s.722-1.81-.605-2.845c-.62-.483-3.354-.13-4.373-2.312-.343-.748 2.04-.774 2.04-.774m2.656.456s.731-1.478 1.241-1.478c.51 0 1.83-.376 2.147-.698.317-.32 1.372.51 1.745.618.373.108 2.173.429 2.228.724.055.295-.027 1.691.483 1.316s1.258-1.477 1.933-1.504c.675-.026 2.202 0 2.443.564.241.564-1.656 2.202-2.01 2.255-.353.054-2.714.08-3.734 1.503-1.02 1.423-.23 1.99-.355 2.82-.126.83.023.959-.773 1.502"/>
  <path stroke="#F2A679" stroke-linecap="round" stroke-linejoin="round" d="M69.701 37.582s.188-1.906-1.02-1.691c0 0 1.1.107 1.692-.162a2.516 2.516 0 0 1 1.153-.213s-1.663.67-1.825 2.066Zm5.306 1.18s.554 1.397 2 1.612c1.445.215 2.465.591 2.787.966M66.82 38.211s.365 1.372.8.458c.436-.915-.514-1.557-.482-1.373.032.184.592 1.345-.318.915Zm5.78.551s.239-1.18 1.18-1.18c.322 0-.134 1.475-1.18 1.18Zm4.687 18.058h-.622l-.31.539.31.537h.622l.312-.537-.312-.54Zm2.266-.842h-.62l-.312.538.311.539h.621l.311-.539-.31-.538Zm-5.136-2.876s-1.68-2.257-2.686-1.57c-.38.26.018 2.112 2.602 2.018m1.371.343s3.173.323 2.654 1.443c-.244.523-2.322.467-3.052-1.087m-1.024-.356s-1.89.6-1.16 2.134c0 0 1.89.15 1.83-1.796"/>
  <path stroke="#F2A679" stroke-linecap="round" stroke-linejoin="round" d="M73.262 54.543s.229 1.014 1.39.835m.001-2.558s.8-.628 1.234-.342c.433.286.074 1.076.074 1.076"/>
  <path stroke="#F2A679" stroke-linecap="round" stroke-linejoin="round" d="M75.311 51.754s.082.286-.193.751m.97.305c.172-.111.369-.178.572-.195M96.125 8.581c-.041-.62-1.727-1.151-5.76-2.02-5.65-1.216-17.299-.623-21.625-.649-4.326-.026-12.998 1.46-15.439 2.459-1.017.417-1.258.833-1.204 1.177-.013-.053-.382-1.513.168-3.349.562-1.869 3.856-2.523 7.688-3.545C63.786 1.63 76.308.877 85.286 1.649c8.978.772 9.791 2.401 10.61 3.316.819.915.247 3.549.229 3.616Z"/>
  <path stroke="#DBC7B9" stroke-linecap="round" stroke-linejoin="round" d="m89.776 75.97-29.93-1.544s-3.58.297-5.352-2.802c-.255-.446-.686-.622-.973-.457-.287.164-.535.076-.686-.26-.151-.336-1.03-1.909-1.925-1.802-.895.106-.612.61-.826.596-.213-.015-.625-1.497-1.771-1.42-1.146.076-1.207.946-1.329.9-.122-.046-.321-1.115-1.3-1.143-.977-.029-1.401.722-1.788 1.223-.106.138-.488-.228-.503-.336-.015-.107-.444-.55-1.36.092-.916.641-1.1 1.42-1.299 1.588-.199.168-.397-.03-.473-.274-.077-.244-.306-.536-.84-.245-.536.29-2.623 1.277-3.21 4.767-.334 1.985 1.986 5.09 3.153 4.878.63-.114.39-.572.724-.552.334.02.61 1.29 1.127 1.715.25.208 1.184.779 1.91.136.187-.167.333.375.395.501s.387.834 1.576.71c1.19-.126 1.18-.992 1.258-.909.079.084.572.948 1.293.923.722-.025 1.42-.293 1.806-.902.198-.313.343.439.48.48.135.041.95.281 1.69-.762.742-1.043.86-1.163 1.16-1.103.298.06.427.27.594.24.114-.022.732-.582 1.221-1.017.258-.228.5-.473.738-.722.343-.363 1.219-.967 3.133-.849 2.703.167 31.416 1.556 31.564 1.59.149.035.769 1.183 1.63 1.318.86.135 2.828.24 3.707-1.085.687-1.03.75-2.385-.1-3.392-1.007-1.192-2.844-1.862-5.04-.223-.13.1-.29.15-.454.143v0Z"/>
  <path stroke="#DBC7B9" stroke-linecap="round" stroke-linejoin="round" d="M40.261 70.33s1.39 3.403-.367 8.952m3.804-10.037c.303.337 1.702 5.546-.554 11.78m3.839-11.84s1.633 6.51-.647 12.153m3.636-11.73s2.493 5.784-.514 11.75m3.43-10.347s1.617 4.902-.63 9.221m2.176-8.704s1.435 4.729-.582 8.326"/>
</svg>
