<svg xmlns="http://www.w3.org/2000/svg" width="88" height="85" fill="none" viewBox="0 0 88 85">
  <path stroke="#DBC7B9" stroke-linecap="round" stroke-linejoin="round" d="M32.502 57.676c5.357.088 9.622 1.676 9.622 3.621s-4.519 3.625-10.096 3.625h-.055m-3.669-6.997c-3.725.534-6.361 1.839-6.361 3.372s2.507 2.772 6.092 3.31"/>
  <path stroke="#DBC7B9" stroke-linecap="round" stroke-linejoin="round" d="M32.528 57.536c5.515.106 9.883 1.772 9.883 3.813 0 2.106-4.67 3.812-10.43 3.812-5.762 0-10.428-1.706-10.428-3.812 0-1.636 2.81-3.03 6.754-3.574"/>
  <path stroke="#333" stroke-linecap="round" stroke-linejoin="round" d="M40.83 24.846s3.854-.026 3.677 3.677c-.176 3.702-4.934 3.158-4.934 3.158m-20.216-1.349s.876 3.676 6.479 5.85"/>
  <path stroke="#333" stroke-linecap="round" stroke-linejoin="round" d="M16.608 28.773s.9 8.824 9.868 9.471"/>
  <path stroke="#000" stroke-linecap="round" stroke-linejoin="round" d="M23.181 29.696s1.011 2.886 2.133 3.676"/>
  <path stroke="#333" stroke-linecap="round" stroke-linejoin="round" d="M51.07 36.02c.026 0 1.044 0 1.026.367-.063 1.048-1.313 1.871-1.313 1.871-2.53 1.729-8.482 2.574-15.442 2.942M1 40.432s13.236 1.03 26.23.96"/>
  <path stroke="#333" stroke-linecap="round" stroke-linejoin="round" d="M51.007 36.09c.313.11.633.286.306.547-1.618 1.287-7.32 1.949-14.204 2.254M4.84 38.707s10.724.464 21.92.416"/>
  <path stroke="#333" stroke-linecap="round" stroke-linejoin="round" d="M51.827 18.511s-.327 15.145-.426 16.571a1.71 1.71 0 0 1-.331.938v0l-.055.07a1.446 1.446 0 0 1-.585.422c-3.25 1.004-7.89 1.57-12.927 1.857M7.52 37.928s8.949.666 19.082.699"/>
  <path fill="#F2A679" d="M39.565 31.689c-.005.99-.083 1.98-.232 2.96-.268 1.334-.996 2.573-1.838 3.72-.129.177-.257.368-.386.522-.603.798-1.232 1.556-1.765 2.287a10.93 10.93 0 0 0-.893 1.408c-.706 1.38-1.445 8.99-1.93 14.95v.14c-.324 4.015-.53 7.246-.53 7.246h-.29s.83-13 1.228-17.446c.397-4.445 1.19-6.158 2.662-7.72 1.47-1.563 2.9-5.203 2.86-5.6-.04-.397-1.033.636-1.15.875-.118.239-1.909 3.018-1.909 3.018-1.666 2.622-2.463 4.684-2.78 5.957-.316 1.272-1.39 20.894-1.39 20.894a25.479 25.479 0 0 1-3.18-.287c.14-2.47.228-4.695.269-6.698v-.151c.206-10.126-.692-14.527-1.074-16.384a8.782 8.782 0 0 1-.169-.93 6.49 6.49 0 0 0-.305-1.342c-.048-.158-.103-.323-.158-.492-.056-.17-.081-.254-.125-.368-.217-.654-.456-1.364-.64-2.063a9.997 9.997 0 0 1-.28-1.445c-.053-.46-.134-.917-.242-1.367a32.52 32.52 0 0 0-1.103-3.677c.392.029.771.155 1.103.368 2.107 1.687 4.199 2.456 7.236 2.28 3.037-.177 5.147-2.413 6.21-4.292.286-.503.555-.94.794-1.327-.026 0 .066 2.618.007 4.964Z"/>
  <path stroke="#000" stroke-linecap="round" stroke-linejoin="round" d="M23.094 27.258a1.987 1.987 0 0 1-1.967 2.01c-.384 0-.758-.113-1.077-.326h-.019a1.996 1.996 0 0 1-.853-1.408 2.02 2.02 0 0 1-.018-.261 1.911 1.911 0 0 1 0-.206 1.985 1.985 0 0 1 1.956-1.806h.022c.184 0 .368.028.544.081a2.012 2.012 0 0 1 1.412 1.916Z"/>
  <path stroke="#333" stroke-linecap="round" stroke-linejoin="round" d="M21.747 25.332a1.977 1.977 0 0 0-.577-.085h-.022a2.008 2.008 0 0 0-1.978 1.802 1.911 1.911 0 0 0 0 .206 2.007 2.007 0 0 0 .912 1.684h-.04a2.01 2.01 0 0 1 .921-3.904c.284.045.555.15.795.308l-.01-.011Zm-3.605-1.611c1.224-3.632 5.449-6.206 5.449-6.206"/>
  <path stroke="#333" stroke-linecap="round" stroke-linejoin="round" d="M24.822 15.92a10.733 10.733 0 0 0-7.883 8.404"/>
  <path fill="#F2E4D8" d="M38.443 34.166c.04.397-1.39 4.045-2.86 5.6-1.47 1.555-2.265 3.258-2.662 7.721-.397 4.463-1.228 17.446-1.228 17.446h-.478s1.073-19.623 1.39-20.895c.316-1.272 1.103-3.334 2.78-5.956 0 0 1.786-2.78 1.907-3.019.122-.239 1.11-1.294 1.151-.897Z"/>
  <path stroke="#DBC7B9" stroke-linecap="round" stroke-linejoin="round" d="M21.16 68.735c0 2.107 4.846 3.817 10.824 3.817 5.979 0 10.813-1.725 10.813-3.817"/>
  <path stroke="#DBC7B9" stroke-linecap="round" stroke-linejoin="round" d="M42.797 68.334a1.765 1.765 0 0 1 .65 1.261c0 2.107-5.187 3.817-11.585 3.817-6.397 0-11.581-1.71-11.581-3.817a1.93 1.93 0 0 1 .867-1.448"/>
  <path stroke="#DBC7B9" stroke-linecap="round" stroke-linejoin="round" d="M21.553 64.922c0 2.107 4.67 3.813 10.431 3.813 5.761 0 10.445-1.706 10.445-3.813"/>
  <path stroke="#DBC7B9" stroke-linecap="round" stroke-linejoin="round" d="M42.429 64.099c.247.3.386.674.397 1.062 0 2.188-4.85 3.96-10.824 3.96-5.975 0-10.824-1.772-10.824-3.96a1.75 1.75 0 0 1 .393-1.062"/>
  <path stroke="#333" stroke-linecap="round" stroke-linejoin="round" d="M52.022 17.18c-.18-.176-1.28-2.323.735-4.629l-.367.133c-1.026.367-4.622 1.643-6.424 2.294l-.934.342c-.937.367-2.055-.713-3.573-.805-1.519-.092-2.813 1.297-3.93 1.103-1.118-.195-4.2-2.769-8.222-2.206a7.721 7.721 0 0 0-4.489 2.474c-.46.492-.873 1.028-1.232 1.6a6.058 6.058 0 0 0-.621 1.242c-.224.757-1.47 3.574-2.548 4.155-.57.309-1.47.504-2.28.805a4.91 4.91 0 0 0-1.202.603c-.232.162-.43.366-.584.603-.412.64-.578 2.504.253 3.846a2.942 2.942 0 0 0 1.625 1.29 6.31 6.31 0 0 0 1.125.269c1.765.246 2.923-.43 3.519-.581.096-.022.198-.04.305-.055.338-.04.68-.04 1.019 0 .392.029.771.155 1.103.367 2.106 1.688 4.198 2.456 7.235 2.28 3.037-.177 5.148-2.412 6.21-4.29.287-.505.556-.942.794-1.328.563-.89 1-1.47 1.298-1.879l.144-.187c.4-.537 2.993-1.655 3.93-1.787.938-.133.982-2.011 1.338-2.28.357-.268 7.063-2.625 7.063-2.625a2.206 2.206 0 0 1-1.29-.754v0ZM21.138 29.27c-.384 0-.759-.115-1.078-.328h-.018a2.011 2.011 0 1 1 1.717-3.596 1.976 1.976 0 0 0-.577-.084h-.022c.184 0 .367.027.544.08a2.011 2.011 0 0 1 1.4 1.927 1.989 1.989 0 0 1-1.977 2.011l.01-.01Zm32.167-11.303c1.206.346 3.548.434 8.122-.787 3.677-.974 2.618-2.551 10.081-1.592C80.334 16.728 86.612 4.79 86.612 4.79m-33.859 7.761a7.11 7.11 0 0 1 .864-.827c3.015-2.482 6.942-2.941 9.964-3.31l.393-.047c3.07-.368 7.813-4.54 7.813-4.54"/>
  <path stroke="#333" stroke-linecap="round" stroke-linejoin="round" d="M45.97 14.978s.716-4.875 1.562-6.1c.846-1.224.434-2.28.864-3.129.629-1.239 5.496-4.78 5.496-4.78m-1.498 11.718a3.702 3.702 0 0 0 1.103-2.823 8.64 8.64 0 0 0 3.548-1.545c1.081-.76 1.912-3.022 1.912-3.022"/>
  <path stroke="#333" stroke-linecap="round" stroke-linejoin="round" d="M58.316 6.702A4.81 4.81 0 0 0 61.5 4.054m2.082 4.368a15.505 15.505 0 0 1 .265-5.04s-.206 3.76-3.938 5.04m-3.306 3.861a2.14 2.14 0 0 1 1.365 1.408s.584 2.346-.39 3.096"/>
  <path stroke="#DBC7B9" stroke-linecap="round" stroke-linejoin="round" d="M21.553 61.348v3.574m20.858-3.574v3.574m-21.251.239v3.577m21.649-3.577v3.577m-22.517.862v2.198M43.459 69.6v2.389"/>
  <path stroke="#333" stroke-linecap="round" stroke-linejoin="round" d="M20.759 83.729s-2.622-4.07-2.703-4.63c-.08-.558-2.007-1.867-1.952-2.646.055-.78.736-4.35 2.817-5.074.735-.25 1.687.643 2.632 2.033.21.309 1.548.39 3.247 1.897 1.698 1.508 5.993 7.247 10.537 7.416 4.544.17 6.107-.169 6.497-.978.39-.809 1.044-2.033.577-2.618a3.46 3.46 0 0 1-.522-2.621c.195-.92 1.235-4.71 1.97-4.909.736-.198 1.236 1.758 4.023 2.986 2.787 1.228 2.677 4.46 2.647 4.71-.03.25-.949.78-.835 1.228.148 1.127.204 2.264.166 3.4"/>
  <path stroke="#333" stroke-linecap="round" stroke-linejoin="round" d="M16.693 77.507s-2.155 2.82-2.1 4.24c.056 1.419.114 2.176.114 2.176m24.587-.496s1.643.08 2.69.915"/>
  <path stroke="#DBC7B9" stroke-linecap="round" stroke-linejoin="round" d="M28.035 64.624c1.308.187 2.628.287 3.949.298"/>
</svg>
