<svg xmlns="http://www.w3.org/2000/svg" width="113" height="100" fill="none" viewBox="0 0 113 100">
  <path stroke="#C87F33" stroke-linecap="round" stroke-linejoin="round" stroke-width="1.8" d="M19.986 49.949 2.77 62.137a2.34 2.34 0 0 0-.945 1.849v.135a2.372 2.372 0 0 0 1.874 2.244l6.405 1.312 24.788 5.082 23.94 5.093a14.227 14.227 0 0 0 11.191-2.309l25.563-18.12a6.328 6.328 0 0 1 2.196-.998c3.577-.859 6.364-1.743 8.475-2.642 3.748-1.6 5.354-3.239 5.45-4.872v-.278c-.223-4.859-13.656-9.54-23.412-12.304"/>
  <path stroke="#C87F33" stroke-linecap="round" stroke-linejoin="round" stroke-width="1.8" d="m49.431 86.594 9.394 2.002a14.238 14.238 0 0 0 11.192-2.31L95.58 68.164a6.38 6.38 0 0 1 2.196-.999c10.322-2.472 14.065-5.169 13.925-7.806V48.91c-.096 1.628-1.702 3.273-5.45 4.872-2.111.9-4.898 1.783-8.475 2.642a6.328 6.328 0 0 0-2.196.997L70.017 75.543a14.225 14.225 0 0 1-11.192 2.31l-23.934-5.094-24.78-5.075-6.404-1.312a2.372 2.372 0 0 1-1.883-2.244v10.574A2.38 2.38 0 0 0 3.7 77.114l7.47 1.53"/>
  <path stroke="#CB6566" stroke-linecap="round" stroke-linejoin="round" stroke-width="1.8" d="M85.358 34.846c0 2.773-2.003 5.35-5.426 7.474-2.225 1.382-5.047 2.573-8.31 3.51-.72.205-1.46.398-2.22.579-1.206.284-2.273.917-3.302 1.607a.432.432 0 0 1-.06.032.683.683 0 0 1-.484-.035 8.085 8.085 0 0 0-3.544-.36 71.09 71.09 0 0 1-7.537.395 71.36 71.36 0 0 1-6.9-.33c-1.392-.135-2.69-.675-3.874-1.426a.701.701 0 0 0-.158-.075c-.34-.11-.791.36-1.215.77-.32.308-.623.58-.853.54-.23-.039-.866-.49-1.6-1.044-1.08-.81-2.346-1.848-2.665-2.107-.21-.171-.968-.154-1.873-.092a8.42 8.42 0 0 1-4.34-.858 24.545 24.545 0 0 1-1.976-1.1c-3.422-2.125-5.425-4.701-5.425-7.475 0-2.45 1.564-4.747 4.289-6.713a8.435 8.435 0 0 0 2.184-2.381c.088-.146.192-.281.309-.405.405-.405 1.929-.287 3.056-.154.627.074 1.13.154 1.243.154.112 0 .477-.405.885-.93.675-.852 1.473-2.003 1.62-2.197.051-.069.27-.024.564.089a8.415 8.415 0 0 0 4.506.418 67.891 67.891 0 0 1 12.226-1.08c9.005 0 17.109 1.647 22.753 4.275a7.383 7.383 0 0 0 3.374.655c.308-.011.555.03.697.172.552.555 1.046 1.293 1.29 1.477.098.134.169.286.208.447a8.73 8.73 0 0 0 1.2 2.294c.882 1.218 1.358 2.521 1.358 3.874Z"/>
  <path stroke="#CB6566" stroke-linecap="round" stroke-linejoin="round" stroke-width="1.8" d="M82.787 55.015c.497.164 1.764-.072 2.565-.073v1.861c0 2.775-2.003 5.35-5.426 7.476-5.569 3.458-14.893 5.724-25.457 5.724s-19.882-2.266-25.45-5.725c-3.422-2.126-5.425-4.701-5.425-7.476v-3.148c.452-.047.927-.119 1.244-.071.635.09.226-1.266-.317-1.584a6.072 6.072 0 0 1-.927-.718c-.463-.42-.872-.898-.794-1.135.052-.159.382-.345.794-.513.642-.263 1.484-.48 1.787-.48.497 0 2.487-.135 1.764-.454-.724-.318-.633-.902-2.578-1.356-.41-.11-.76-.376-.973-.742V34.846c0 2.774 2.003 5.35 5.426 7.475.614.381 1.273.748 1.976 1.1a8.422 8.422 0 0 0 4.339.858c.905-.063 1.664-.08 1.873.092.319.26 1.582 1.293 2.664 2.107.735.553 1.385 1.005 1.601 1.044.216.04.54-.23.853-.54.425-.404.876-.88 1.215-.77a.72.72 0 0 1 .157.076c1.184.746 2.484 1.291 3.876 1.425 2.219.216 4.528.33 6.9.33a70.522 70.522 0 0 0 7.536-.395 8.057 8.057 0 0 1 3.543.36.675.675 0 0 0 .486.035c.02-.009.04-.02.06-.032 1.028-.69 2.097-1.321 3.302-1.607.758-.18 1.498-.373 2.219-.58 3.263-.932 6.086-2.122 8.31-3.509 3.423-2.124 5.426-4.7 5.426-7.474v17.736c-.115.26-.288.491-.505.675-.806.594-2.782 1.522-2.064 1.763Z"/>
  <path stroke="#CB6566" stroke-linecap="round" stroke-linejoin="round" stroke-width="1.8" d="M36.192 63.435s3.698 2.804 9.527 2.635c5.83-.169 5.382-1.954 5.998-1.313.617.641 2.49 1.495 2.758 1.32M71.367 52.46a35.31 35.31 0 0 1-4.868 1.094m7.544-2.03c3.272-1.317 4.955-2.667 4.955-2.667m-7.631 3.603c.51-.893.977-1.971 1.38-1.971.35 0 .841.58 1.296 1.035"/>
  <path stroke="#333" stroke-linecap="round" stroke-linejoin="round" stroke-width="1.8" d="M96.829 69.99c-.27.674-.556 1.34-.859 1.995M8.861 52.487c.174-15.551 8.13-29.24 20.155-37.338m.683 76.165a45.62 45.62 0 0 0 56.708-5.729M48.153 7.822a46.076 46.076 0 0 1 6.322-.434c18.54 0 34.494 11.06 41.631 26.94"/>
  <path stroke="#5B4535" stroke-linecap="round" stroke-linejoin="round" stroke-width="1.8" d="M35.172 15.008c.946-.406 1.166-2.007.492-3.575-.675-1.569-1.988-2.51-2.934-2.103-.945.406-1.165 2.007-.49 3.575.673 1.568 1.987 2.51 2.932 2.103Zm7.508.144c.048-1.139-.47-2.086-1.158-2.115-.688-.028-1.283.872-1.33 2.012-.048 1.14.47 2.086 1.158 2.115.687.028 1.283-.872 1.33-2.012ZM31.38 3.714c.26-.637-.386-1.503-1.442-1.934-1.056-.43-2.122-.264-2.382.373-.26.637.385 1.503 1.44 1.934 1.057.43 2.124.264 2.384-.373ZM43.837 6.6c.39-.567-.055-1.551-.994-2.198-.94-.647-2.017-.712-2.407-.146-.39.567.054 1.55.994 2.198.939.647 2.017.712 2.407.145Z"/>
  <path stroke="#9D9D9D" stroke-linecap="round" stroke-linejoin="round" stroke-width="1.8" d="M30.866 78.39c-2.227-1.8-5.115-3.148-8.435-3.133-4.176.017-6.452 4.058-10.468 7.07-4.017 3.01-13.19 1.145-10.466 3.87 1.62 1.62 11.803 1.868 20.546 1.719"/>
  <path fill="#CD3B1F" d="M101.643 79.735c-3.24-2.43-5.076-5.689-8.447-5.705-7.864-.035-12.719 9.043-9.943 9.383 2.777.34 12.94.277 16.047.22 3.459-.063 5.582-1.468 2.343-3.898Zm-14.442-1.62c-.21.364-.63.515-.945.335-.314-.18-.39-.618-.18-.981.211-.363.633-.514.946-.335.313.18.396.62.186.983l-.007-.002Zm1.612.442a.423.423 0 1 1-.116-.633.459.459 0 0 1 .122.634l-.006-.001Zm-.135-1.417c-.263.209-.623.197-.802-.027-.18-.225-.108-.575.155-.786.263-.21.622-.198.8.027.176.225.115.576-.148.787l-.005-.001Zm7.628-.052a.344.344 0 1 1-.148-.42.315.315 0 0 1 .183.301.315.315 0 0 1-.03.12h-.005Zm.266-.664a.496.496 0 1 1 .023-.642.456.456 0 0 1-.023.642Z"/>
  <path fill="#5B4535" d="M35.5 78.337c-3.883.019-6 3.78-9.732 6.574-3.732 2.796-1.287 4.418 2.7 4.49 3.582.067 15.292.147 18.49-.253 3.2-.4-2.394-10.852-11.458-10.811Zm-7.572 6.914c-.212.212-.497.27-.637.135s-.082-.426.135-.637c.217-.21.497-.27.637-.135s.08.426-.135.637Zm4.567-3.582c-.241.42-.664.63-.944.47-.281-.16-.308-.632-.067-1.053.242-.42.666-.63.945-.468.28.162.31.63.066 1.051Zm1.401-.037c-.212.212-.496.27-.637.135-.14-.135-.082-.426.135-.638.218-.211.497-.27.637-.134.14.134.077.423-.135.637Zm-.121-1.129c-.312.216-.675.224-.823.018-.149-.207-.007-.55.305-.765.311-.216.674-.225.823-.018.148.207.001.55-.305.765Zm10.22 4.02c-.207-.12-.31-.327-.231-.463.078-.137.31-.15.515-.031.206.118.31.325.231.461-.078.137-.306.151-.515.033Zm1.05 1.06c-.135.091-.345 0-.48-.19-.137-.19-.136-.426-.012-.517.125-.09.345 0 .48.192.137.192.141.426.012.516Zm.388-.901c-.18.086-.429-.064-.558-.333-.13-.27-.09-.56.09-.644.18-.085.43.063.557.333.129.27.09.559-.089.644Z"/>
  <path fill="#E2AA1D" stroke="#E2AA1D" stroke-linecap="round" stroke-linejoin="round" stroke-width="1.8" d="M54.478 19.66c-7.756 0-14.037 4.77-14.037 10.655v.27c.016.493.076.983.18 1.465.851 2.844 4.513 5.162 9.36 6.064.923-.343 1.932-.675 2.374-.636.325.026 1.08.245 1.907.514.484.157 1.003.33 1.484.493.957.327 1.764.605 1.89.605.125 0 .173-.367.235-.8.017-.136.038-.27.06-.405.094-.562.24-1.073.596-.922.355.15.958.55 1.781.854 4.17-1.053 7.241-3.196 8.008-5.769.105-.481.166-.971.182-1.464v-.27c.015-5.883-6.268-10.654-14.02-10.654Zm-5.695 10.958c-.747.603-1.636.74-1.984.31-.348-.43-.024-1.27.724-1.873.747-.603 1.634-.741 1.982-.31.349.433.025 1.27-.722 1.873Zm-.191-2.75c-1.741 1.74-3.843 2.462-4.693 1.612-.85-.85-.128-2.952 1.613-4.693 1.74-1.741 3.842-2.463 4.693-1.62.85.844.128 2.959-1.613 4.7Z"/>
</svg>
