<svg xmlns="http://www.w3.org/2000/svg" width="99" height="84" fill="none" viewBox="0 0 99 84">
  <path stroke="#F2A679" stroke-linecap="round" stroke-linejoin="round" d="M87.93 7.191 76.235 9.735l-37.93-4.37.814 2.439 37.22 4.066 21.373-4.718M68.008.944l-29.701 4.42"/>
  <path stroke="#F2A679" stroke-linecap="round" stroke-linejoin="round" d="m76.236 9.735.104 2.135v10.474l21.72-5.316M41.322 8.044v8.895l2.83.437 32.188 4.969v22.704l15.56-4.574M44.245 25.056l-.093-7.68M76.34 45.05l-29.15-7.341"/>
  <path stroke="#F2A679" stroke-linecap="round" stroke-linejoin="round" d="m46.445 38.372 29.895 7.813 15.733-4.811"/>
  <path stroke="#F2A679" stroke-linecap="round" stroke-linejoin="round" d="m44.522 40.754.193.054 31.625 8.795.366-.111 17.055-5.216m1.214 19.254-18.27 6.295L57.3 63.86m-12.397-9.085-.187-13.967m31.989 29.017V49.49M64.9 12.748 51.28 10.98m14.356 3.988-14.73-1.98"/>
  <path fill="#DBC7B9" stroke="#DBC7B9" stroke-linecap="round" stroke-linejoin="round" d="M64.127 23.656v2.723l-9.103-2.064v-2.418l9.103 1.759Z"/>
  <path stroke="#F2A679" stroke-linecap="round" stroke-linejoin="round" d="M64.697 29.018v3.955l-11.603-2.901v-3.525l11.603 2.471Zm0 3.955 1.587-.254v-3.933l-1.587.232m1.587-.232c-.598-.065-11.259-2.408-11.259-2.408l-1.93.169"/>
  <path stroke="#F2A679" stroke-linecap="round" stroke-linejoin="round" d="M65.274 32.88v1.705L54.67 31.888v-1.422"/>
  <path fill="#DBC7B9" stroke="#DBC7B9" stroke-linecap="round" stroke-linejoin="round" d="M64.78 48.643v2.712l-9.36-2.712v-2.415l9.36 2.415Z"/>
  <path stroke="#F2A679" stroke-linecap="round" stroke-linejoin="round" d="m60.829 58.2 2.758.889v2.142l-3.912-1.358"/>
  <path stroke="#F2A679" stroke-linecap="round" stroke-linejoin="round" d="m63.586 61.231 2.648-1.573v-2.203l-2.648 1.634m2.648-1.634-2.329-.72-6.165-1.906m-4.56-.104 1.54-.827.756.232m1.96-.361 6.47 1.906v1.06M94.409 68.03l-17.704 6.358-.365-.118-21.33-6.864"/>
  <path stroke="#F2A679" stroke-linecap="round" stroke-linejoin="round" d="m94.556 64.95-17.85 6.15-19.922-6.237M76.34 74.27v8.745l21.132-7.738m-44.156-6.43 22.168 7.272-5.47 5.352-31.08-10.64 3.356-3.21"/>
  <path stroke="#F2A679" stroke-linecap="round" stroke-linejoin="round" d="M75.484 76.12v2.317l-5.23 5.055-30.844-10.82-.477-1.84m31.321 12.659-.24-2.02m6.691-7.083v-3.292m-.365-21.494v-3.417m0 36.83-3.995-1.544"/>
  <path stroke="#333" stroke-linecap="round" stroke-linejoin="round" d="M31.718 38.082c.634-.126 3.493-.699 2.221-1.906-1.271-1.207-2.414 1.651-8.382 2.15-5.968.497-7.939 1.017-9.081 1.142-1.143.126-8.372 3.744-9.594 6.036-.946 1.792-2.221 2.54-.76 3.748 1.462 1.207 4.127-1.845 4.636-1.845.509 0 5.08-1.204 5.334-1.713.255-.508 1.587-.129 2.225-.254.637-.125 1.841-1.207 2.665-1.841.824-.634 1.906-2.264 3.876-2.816m1.39-8.973s-6.032-1.018-7.114-1.208c-1.082-.19-5.969-.634-6.477-.634-.509 0-6.678-.326-7.66-.162-.98.165-5.233-.218-3.646 2.003a12.237 12.237 0 0 0 4.636 4.088c1.837.927 3.46 1.719 3.9 1.79.976.18 1.97.231 2.96.155.562-.08 3.485-1.791 4.127-1.945 1.59-.359 4.32-1.104 7.748-.405m11.814 8.855c.168.889 1.268 1.394 1.308 3.378.039 1.985-1.982 5.062-1.39 4.765.59-.297.462 0 1.687-3.626 1.225-3.625-.846-6.71-.97-7.257-.126-.548.801-.509 1.264-.548.462-.04 1.562 1.178 1.898 1.178.337 0 1.35-.97 2.508-3.453 0 0 .716-1.945.337-3.224-.38-1.28 0-1.476 1.014-1.433 1.013.043 5.373-.34 7.469-4.095"/>
  <path stroke="#333" stroke-linecap="round" stroke-linejoin="round" d="M17.633 38.45c.172-.716 3.583-2.754 7.09-2.973 0 0-.505-3.059 2.364-3.94 2.87-.881 4.822-1.397 5.86-.76 1.946 1.193 3.866 5.07 2.799 9.29m-1.108 2.98c-.125.3.175 1.139.716 2.113.635 1.14 2.017 1.605 1.63 3.164 0 0-.616 4.556-3.99 5.656"/>
  <path stroke="#333" stroke-linecap="round" stroke-linejoin="round" d="m35.397 47.693-2.404-2.744c-.297-.337-1.268-.082-1.268.548s-.716 4.353-2.106 5.732c-.212.211 1.898.802 1.938 2.744.04 1.942.691 4.732-.666 5.528-.434.25-.208-.591 0-.717.207-.125.795-.928.247-1.14-.548-.21.125-1.432.125-1.432m-1.662-11.6s-.616 1.985-2.644 1.985c-.25 0-.745 2.826-.716 3.965.028 1.14-1.738 5.016-3.045 5.528-1.308.512-2.866 1.307-5.105-.591-2.239-1.899-3.106-3.497-2.97-5.57 0 0 3.35 4.41 8.54 1.816m18.908-15.279c0 1.727-1.433 3.962-2.107 3.962-.673 0 .337-3.048.337-3.715 0-.666-.358-1.855.294-1.855.652 0 1.476.953 1.476 1.608ZM45.102 26.3s1.075 4.144-2.532 6.161c-.38.212.125 1.053 0 1.347-.126.294-.76-1.221-1.645-1.264m-6.426-1.831s2.611-.093 4.299 1.214c1.687 1.308.455 6.345-1.003 7.133"/>
  <path stroke="#333" stroke-linecap="round" stroke-linejoin="round" d="M15.54 47.213s1.526 2.565 8.038 2.045"/>
  <path stroke="#333" stroke-linecap="round" stroke-linejoin="round" stroke-width=".5" d="M50.798 59.751c.268-.053 1.48-.297.938-.81-.54-.512-1.02.717-3.55.918-2.529.2-3.364.43-3.847.483-.484.054-3.547 1.587-4.063 2.558-.4.752-.942 1.075-.322 1.587.62.512 1.748-.78 1.963-.78.215 0 2.15-.513 2.26-.717.112-.205.674-.054.943-.108.268-.054.78-.512 1.128-.78.348-.27.806-.957 1.64-1.194m.596-3.815-3.017-.509c-.454-.082-2.529-.272-2.744-.272-.215 0-2.826-.136-3.242-.068-.415.068-2.217-.093-1.547.85a5.219 5.219 0 0 0 1.967 1.733c.531.292 1.083.545 1.651.76.414.073.835.095 1.254.064.236-.036 1.476-.767 1.748-.824a7.308 7.308 0 0 1 3.281-.172m5.02 3.762c.072.376.537.59.555 1.432.018.842-.838 2.15-.59 2.02.246-.128.196 0 .716-1.536.52-1.537-.358-2.84-.412-3.073-.054-.233.34-.215.537-.233.197-.018.663.501.806.501.143 0 .57-.412 1.053-1.465a2.7 2.7 0 0 0 .144-1.361c-.162-.538 0-.624.43-.61.43.015 2.267-.143 3.163-1.733"/>
  <path stroke="#333" stroke-linecap="round" stroke-linejoin="round" stroke-width=".5" d="M44.833 59.913c.072-.301 1.519-1.165 3.002-1.258 0 0-.215-1.297 1.003-1.673 1.218-.376 2.042-.591 2.483-.322.824.505 1.637 2.15 1.185 3.94m-.469 1.261c.01.323.115.635.305.896.269.483.852.677.688 1.34 0 0-.262 1.93-1.691 2.396"/>
  <path stroke="#333" stroke-linecap="round" stroke-linejoin="round" stroke-width=".5" d="m52.36 63.828-1.021-1.16a.358.358 0 0 0-.534.232c0 .269-.308 1.842-.896 2.429-.09.09.806.34.824 1.164.018.824.29 2.006-.283 2.34-.186.107-.09-.248 0-.301.09-.054.337-.394.104-.484-.233-.09.054-.609.054-.609m-.705-4.915a1.218 1.218 0 0 1-1.118.838c-.108 0-.319 1.2-.301 1.684.018.484-.738 2.124-1.29 2.34-.551.214-1.218.555-2.15-.251-.93-.806-1.317-1.48-1.257-2.358a2.902 2.902 0 0 0 3.615.77m7.995-6.469c0 .716-.612 1.676-.895 1.676-.283 0 .143-1.293.143-1.572 0-.28-.154-.788.125-.788a.791.791 0 0 1 .627.684v0Zm1.071-4.313s.458 1.759-1.075 2.611c-.161.09.054.445 0 .57-.053.125-.322-.516-.716-.534m-2.701-.777a3.188 3.188 0 0 1 1.816.515c.717.552.19 2.687-.426 3.02"/>
  <path stroke="#333" stroke-linecap="round" stroke-linejoin="round" stroke-width=".5" d="M43.944 63.631s.649 1.075 3.407.863"/>
</svg>
