<svg xmlns="http://www.w3.org/2000/svg" width="99" height="85" fill="none" viewBox="0 0 99 85">
  <path stroke="#DBC7B9" stroke-linecap="round" stroke-linejoin="round" stroke-width=".15" d="m31.665 37.768-.92.039-.415.77.507.739.927-.029.412-.774-.512-.745Zm-9.405 3.614-.938.014-.462.714.48.7.944-.004.454-.721-.479-.703Zm.025 1.622-.945.007-.465.707.483.706.951.004.462-.71-.486-.714Zm1.559-2.471-.93.022-.455.72.483.707.938-.01.45-.729-.486-.71Zm.042 1.644-.94.01-.459.718.487.713h.948l.454-.724-.49-.717Zm1.526-2.51-.926.025-.444.735.486.71.934-.014.44-.739-.49-.717Zm.058 1.662-.938.014-.447.728.49.717.944-.004.444-.735-.493-.72Zm.055 1.661-.944.004-.454.724.493.724.955.004.447-.728-.497-.728Zm1.442-4.207-.923.032-.437.742.493.717.93-.021.434-.75-.497-.72Zm.073 1.679-.93.021-.44.739.493.724.94-.01.437-.746-.5-.728Zm.07 1.683-.942.007-.443.735.5.728h.945l.443-.739-.504-.73Zm1.484-2.567-.927.025-.433.75.5.727.934-.014.43-.756-.504-.732Zm.084 1.697-.933.014-.437.746.5.735.945-.008.433-.749-.508-.738Zm.086 1.701-.945.003-.44.739.508.738.951.007.437-.745-.511-.742Zm1.375-4.303-.927.032-.422.76.504.735.93-.022.419-.767-.504-.738Zm.095 1.718-.93.022-.43.756.508.738.94-.01.423-.76-.511-.746Zm.099 1.719-.937.01-.433.749.511.745h.948l.43-.756-.519-.749Zm1.445-2.62-.93.024-.42.767.512.742.937-.014.416-.77-.515-.75Zm.11 1.735-.933.014-.423.76.515.75.944-.008.42-.763-.523-.753Zm.117 1.733-.948.007-.426.753.522.756.951.004.423-.76-.522-.76Zm2.83-5.315-.92.036-.4.788.517.756.927-.028.401-.792-.525-.76Zm1.498-.958-.916.042-.394.799.525.76.923-.032.391-.802-.529-.767Zm1.654.831-.92.039-.39.802.533.77.93-.024.383-.81-.536-.777Zm1.483-.974-.915.043-.38.813.536.778.923-.036.376-.816-.54-.782Zm1.471-.997-.912.05-.373.823.543.781.916-.039.37-.827-.544-.788Zm.199 1.846-.92.036-.376.82.547.788.927-.025.372-.827-.55-.792Zm1.47-.994-.916.043-.37.83.551.792.923-.032.366-.834-.554-.8Zm1.456-1.012-.912.046-.359.842.554.798.916-.039.359-.845-.558-.802Zm.228 1.882-.92.035-.362.838.558.803.926-.029.362-.838-.564-.81Zm-10.972 1.299-.923.032-.412.778.515.75.933-.022.405-.781-.518-.757Zm.128 1.754-.934.021-.412.77.518.757.941-.01.412-.778-.525-.76Zm.128 1.754-.94.01-.42.767.526.76h.948l.416-.77-.53-.767Zm1.399-2.677-.927.029-.408.78.525.76.934-.014.405-.788-.529-.767Zm.143 1.775-.934.014-.412.778.53.767.94-.007.409-.781-.533-.77Zm.14 1.772-.944.003-.416.77.533.775.955.003.408-.774-.536-.777Zm1.23-4.484-.923.032-.398.792.529.767.93-.022.394-.799-.532-.77Zm.155 1.789-.93.021-.405.788.533.77.94-.01.399-.791-.537-.778Zm.156 1.793-.937.01-.408.782.536.777h.948l.404-.788-.543-.78Zm1.358-2.734-.927.028-.394.796.536.777.934-.014.39-.806-.54-.781Zm.169 1.812-.933.014-.401.795.543.78.944-.006.394-.796-.547-.788Zm.174 1.81-.944.003-.405.788.547.788.951.004.398-.792-.547-.792Zm1.155-4.577-.923.032-.387.806.543.784.93-.025.38-.813-.543-.784Zm.184 1.829-.93.017-.39.806.546.785.938-.01.386-.807-.55-.791Zm.187 1.824-.94.011-.395.799.55.791h.949l.39-.802-.554-.799Zm1.311-2.786-.927.028-.383.813.55.792.937-.015.377-.82-.554-.799Zm.201 1.846-.937.018-.387.806.554.798.944-.003.384-.817-.557-.802Zm.2 1.846-.944.007-.39.802.557.803.952.007.387-.81-.561-.81Zm1.083-4.666-.923.029-.373.827.554.795.93-.021.37-.827-.558-.803Zm.213 1.864-.93.018-.376.82.557.806.941-.01.373-.828-.565-.805Zm.216 1.865-.941.01-.38.814.561.81h.948l.38-.821-.568-.813Zm1.268-2.845-.926.03-.37.826.562.81.937-.014.366-.838-.569-.813Zm.231 1.886-.937.014-.373.824.568.816.94-.007.374-.83-.572-.817Zm.227 1.882-.944.003-.376.82.571.82.952.004.373-.824-.576-.823Zm-22.665 1.746-.952-.007-.472.703.486.714.963.014.465-.706-.49-.718Zm.029 1.626-.962-.017-.476.696.494.72.965.025.473-.7-.494-.724Zm.025 1.626-.97-.028-.478.692.497.72.976.04.476-.696-.501-.728Zm1.562-4.062h-.952l-.461.71.49.721.958.007.458-.717-.493-.72Zm.039 1.645-.955-.01-.47.706.498.724.966.018.461-.71-.5-.728Zm.043 1.644-.966-.022-.472.7.5.731.974.029.468-.703-.504-.735Zm1.573-2.457-.955-.008-.458.721.5.728.96.014.453-.72-.5-.736Zm.052 1.664-.958-.017-.462.71.5.735.97.025.458-.714-.508-.738Zm.058 1.662-.97-.028-.465.706.508.739.976.039.462-.714-.511-.742Zm1.486-4.154h-.947l-.451.728.504.731.955.011.447-.731-.507-.739Zm.072 1.68-.958-.01-.451.723.508.739.962.021.45-.727-.51-.746Zm.071 1.682-.966-.024-.458.717.511.745.973.032.454-.72-.514-.75Zm1.526-2.513-.952-.004-.447.731.515.746.958.014.44-.738-.514-.75Zm.085 1.7-.962-.017-.448.727.515.75.97.028.443-.735-.518-.753Zm.086 1.701-.97-.028-.454.72.522.757.976.035.451-.724-.525-.76Zm1.416-4.246h-.951l-.437.742.519.749.955.01.433-.749-.518-.752Zm.1 1.718-.959-.014-.44.739.518.756.966.021.437-.742-.522-.76Zm.1 1.715-.97-.021-.443.735.525.76.973.032.44-.739-.525-.767Zm1.482-2.567-.955-.004-.43.75.523.76.962.014.43-.753-.53-.767Zm.115 1.736-.962-.017-.437.745.529.767.97.025.432-.75-.532-.77Zm.113 1.736-.97-.028-.44.742.533.77.976.035.437-.741-.536-.778Zm-9.951 1.328-.98-.039-.482.685.5.728.987.05.48-.692-.505-.732Zm.029 1.622-.987-.046-.487.678.5.735.995.057.483-.681-.504-.742Zm.023 1.627-.994-.06-.49.678.505.738 1.004.068.487-.678-.512-.746Zm1.605-4.005-.976-.032-.472.696.5.731.984.043.469-.7-.505-.738Zm.041 1.644-.984-.042-.476.688.508.739.987.053.476-.696-.511-.742Zm.041 1.644-.99-.054-.483.686.511.742.998.063.48-.688-.515-.75Zm1.616-2.4-.98-.04-.47.7.512.746.987.046.465-.703-.515-.75Zm.057 1.66-.987-.049-.476.696.515.75.994.06.472-.703-.518-.753Zm.053 1.663-.995-.06-.48.692.523.756 1 .068.477-.696-.526-.76Zm1.53-4.098-.973-.035-.461.714.514.749.984.042.458-.717-.522-.753Zm.07 1.68-.983-.043-.465.707.522.756.99.05.462-.71-.526-.76Zm.072 1.679-.99-.053-.473.703.526.76.997.064.469-.707-.529-.767Zm1.573-2.457-.98-.035-.458.717.525.76.987.05.451-.725-.525-.767Zm.085 1.701-.987-.05-.461.714.529.767.994.057.454-.717-.529-.77Zm.082 1.7-.994-.06-.465.706.533.77 1 .072.462-.714-.536-.774Zm1.458-4.192-.972-.032-.45.728.528.767.984.042.443-.731-.532-.774Zm.1 1.718-.983-.042-.451.724.532.77.991.054.447-.728-.536-.778Zm.1 1.719-.991-.053-.458.717.536.774 1.001.064.451-.721-.54-.781Zm1.53-2.514-.98-.035-.444.73.536.778.987.05.44-.738-.54-.785Zm.114 1.736-.987-.047-.451.728.543.781.994.06.444-.734-.543-.788Zm.113 1.736-.998-.06-.45.724.543.788 1.004.068.447-.728-.546-.792Zm1.019-9.526-.948-.003-.423.763.53.763.954.011.42-.763-.533-.77Zm.132 1.755-.959-.015-.426.757.533.773.962.018.426-.76-.536-.773Zm.127 1.753-.966-.021-.433.75.536.777.973.032.43-.757-.54-.78Zm1.441-2.62-.955-.007-.419.763.54.778.959.018.415-.77-.54-.782Zm.144 1.772-.963-.018-.422.76.54.78.968.03.423-.768-.547-.784Zm.14 1.771-.969-.028-.43.756.547.788.977.036.426-.76-.55-.792Zm1.27-4.427-.948-.004-.411.778.54.781.958.01.408-.78-.547-.785Zm.158 1.789-.955-.01-.415.77.543.788.965.022.412-.778-.55-.792Zm.16 1.793-.966-.025-.422.767.55.792.973.032.415-.77-.55-.796Zm1.396-2.681-.952-.003-.408.781.55.792.962.018.402-.788-.554-.8Zm.173 1.812-.962-.018-.412.777.553.8.97.024.408-.781-.557-.802Zm.169 1.81-.969-.028-.415.77.557.806.977.036.411-.778-.56-.806Zm1.202-4.523h-.952l-.397.795.553.795.956.011.397-.795-.557-.806Zm.184 1.828-.958-.01-.402.788.558.802.966.021.397-.791-.56-.81Zm.185 1.829-.966-.022-.405.781.561.81.973.032.405-.788-.568-.813Zm1.356-2.73-.951-.007-.398.799.565.81.958.013.39-.802-.564-.813Zm.199 1.846-.96-.018-.4.792.568.813.969.028.394-.798-.572-.817Zm.201 1.846-.969-.028-.405.784.572.82.976.04.401-.792-.575-.824Zm1.127-4.616h-.948l-.387.81.568.813.955.01.383-.812-.571-.82Zm.216 1.865-.959-.01-.39.802.571.82.966.021.384-.806-.572-.827Zm.213 1.867-.966-.025-.394.8.575.823.973.035.39-.806-.578-.827Zm1.313-2.787-.955-.007-.38.813.576.827.958.014.38-.82-.579-.827Zm.228 1.881-.962-.017-.384.81.579.83.97.025.379-.813-.582-.835Zm.23 1.882-.97-.025-.39.803.582.834.977.04.387-.81-.586-.842Zm-11.578.53-.976-.033-.437.746.543.78.98.044.433-.75-.543-.788Zm.128 1.757-.983-.046-.44.738.547.788.987.053.436-.742-.547-.791Zm.128 1.753-.99-.056-.448.735.55.791.998.064.444-.738-.554-.795Zm1.485-2.566-.976-.039-.433.75.55.79.984.05.43-.756-.555-.795Zm.142 1.771-.987-.05-.437.746.558.799.99.057.433-.75-.557-.802Zm.141 1.772-.994-.057-.44.738.557.802 1.005.068.437-.742-.565-.81Zm1.314-4.374-.972-.032-.423.76.554.798.98.043.422-.767-.56-.802Zm.16 1.793-.983-.046-.43.756.562.802.987.054.426-.76-.561-.806Zm.156 1.789-.99-.053-.434.75.565.809.997.064.426-.757-.564-.813Zm1.442-2.62-.98-.039-.419.767.564.81.984.046.415-.77-.564-.814Zm.17 1.807-.987-.05-.423.764.568.813.994.06.42-.767-.572-.82Zm.174 1.811-.998-.06-.426.755.572.82 1.001.068.423-.76-.572-.823Zm1.24-4.466-.973-.032-.412.774.568.816.98.043.408-.781-.571-.82Zm.188 1.828-.984-.043-.416.77.572.82.987.054.412-.777-.572-.824Zm.184 1.829-.99-.057-.42.767.575.823.998.064.415-.77-.578-.828Zm1.399-2.677-.98-.04-.405.782.575.827.984.046.404-.788-.578-.827Zm.199 1.846-.987-.05-.409.778.579.827.994.06.405-.78-.582-.835Zm.201 1.846-.994-.06-.419.77.586.834 1.001.071.412-.777-.586-.838Zm1.169-4.559-.973-.032-.398.792.579.83.98.043.394-.798-.582-.835Zm.213 1.864-.98-.043-.405.788.586.835.99.053.398-.792-.59-.841Zm.217 1.864-.99-.053-.409.78.59.842.997.064.405-.788-.593-.845Zm1.356-2.73-.98-.04-.394.8.59.837.983.05.39-.802-.589-.845Zm.227 1.882-.987-.05-.398.791.593.849.994.057.394-.796-.596-.852Zm.231 1.881-.994-.06-.405.788.596.852 1.002.07.4-.794-.6-.856Zm-.82-19.839-.91.053-.35.852.557.803.916-.043.348-.855-.561-.81Zm.242 1.903-.913.039-.358.848.564.81.923-.036.352-.848-.568-.813Zm1.441-1.033-.913.046-.347.856.567.816.92-.039.34-.862-.567-.817Zm.259 1.917-.92.039-.351.852.568.817.927-.025.348-.856-.572-.827Zm1.164-2.969-.906.054-.34.866.571.82.916-.042.334-.873-.575-.824Zm.274 1.94-.916.042-.341.863.575.824.923-.032.337-.867-.578-.83Zm1.14-3.008-.902.057-.334.88.575.824.913-.05.327-.88-.58-.831Zm.287 1.957-.913.046-.333.873.578.83.92-.035.33-.88-.582-.834Zm.288 1.956-.92.035-.34.87.582.834.926-.024.338-.874-.586-.841Zm1.121-3.025-.905.053-.327.884.583.838.916-.046.323-.888-.59-.841Zm.301 1.978-.913.039-.333.88.589.841.923-.032.327-.883-.593-.846Zm1.097-3.065-.905.057-.316.895.585.841.913-.046.312-.902-.589-.845Zm.317 1.992-.912.05-.323.888.593.848.92-.039.319-.895-.597-.852Zm.315 1.995-.92.036-.326.884.596.852.927-.029.323-.887-.6-.856Zm.75-5.09-.898.063-.31.906.594.845.905-.054.305-.909-.596-.852Zm.33 2.012-.905.05-.316.902.597.852.916-.043.308-.905-.6-.856Zm.331 2.01-.912.042-.32.895.6.86.923-.036.312-.899-.603-.862Zm1.05-3.117-.901.057-.306.912.6.856.913-.046.301-.916-.607-.863Zm.347 2.031-.912.046-.308.905.603.863.92-.04.305-.908-.607-.866Zm.345 2.03-.92.036-.315.898.61.87.927-.028.309-.906-.61-.87Zm-10.917 1.37-.923.032-.359.842.565.813.93-.021.359-.845-.572-.82Zm.246 1.904-.93.017-.366.838.571.82.938-.01.362-.842-.575-.824Zm.245 1.9-.941.01-.37.83.576.824h.948l.365-.834-.578-.83Zm1.225-2.898-.93.025-.355.848.575.824.934-.014.355-.852-.58-.831Zm.258 1.921-.938.014-.362.841.583.831.94-.007.36-.845-.583-.834Zm.255 1.917-.944.007-.362.834.582.838.952.004.362-.842-.59-.841Zm.938-4.85-.924.032-.347.856.578.83.934-.02.344-.864-.585-.834Zm.273 1.939-.93.021-.351.849.582.838.94-.011.349-.856-.59-.841Zm.272 1.938-.94.01-.355.846.586.841h.948l.355-.852-.593-.845Zm1.184-2.954-.926.025-.344.863.585.841.938-.018.337-.866-.59-.845Zm.288 1.957-.938.014-.348.859.593.845.945-.004.344-.862-.596-.852Zm.286 1.956-.944.003-.352.852.593.852.952.008.351-.86-.6-.855Zm.865-4.942-.923.028-.334.874.593.848.93-.021.33-.877-.596-.852Zm.301 1.974-.93.02-.341.867.596.852.941-.01.334-.874-.6-.855Zm.303 1.973-.937.01-.345.864.6.855h.948l.341-.866-.607-.863Zm1.138-3.006-.927.024-.334.88.604.857.934-.018.326-.88-.603-.863Zm.317 1.991-.938.018-.333.873.603.863.944-.007.33-.877-.606-.87Zm.315 1.996-.944.003-.341.866.61.87.952.004.337-.87-.614-.873Zm.796-5.039-.927.032-.32.891.604.863.93-.021.32-.895-.607-.87Zm.329 2.014-.934.021-.327.884.611.866.937-.01.323-.888-.61-.873Zm.331 2.013-.941.007-.33.88.61.874h.948l.327-.884-.614-.877Zm1.093-3.064-.926.024-.32.895.614.873.934-.014.316-.902-.618-.877Zm.345 2.031-.934.014-.323.888.618.88.94-.007.32-.895-.62-.88Zm.344 2.027-.945.007-.326.884.621.884.955.003.323-.887-.628-.891Zm-.333-11.251-.899.06-.298.923.607.863.905-.053.292-.927-.607-.866Zm.358 2.048-.906.05-.302.916.607.87.916-.043.298-.923-.614-.87Zm.359 2.049-.913.039-.305.912.61.873.924-.032.301-.916-.617-.877Zm.357 2.027-.923.032-.308.905.614.88.934-.024.305-.909-.622-.884Zm.36 2.049-.93.021-.316.898.621.885.941-.011.309-.902-.625-.891Zm.358 2.048-.938.01-.319.895.625.888h.948l.316-.898-.632-.895Zm-12.671 2.052h-.948l-.373.823.579.831.955.01.37-.83-.583-.834Zm.245 1.903-.959-.01-.376.816.582.838.966.021.373-.824-.586-.841Zm.244 1.899-.965-.02-.384.816.59.838.972.032.377-.817-.59-.849Zm1.268-2.84-.955-.007-.369.83.59.842.958.014.366-.834-.59-.845Zm.26 1.918-.962-.015-.373.824.59.849.969.025.369-.831-.593-.852Zm.256 1.92-.97-.025-.376.817.597.852.976.039.373-.824-.6-.859Zm.984-4.796h-.952l-.359.841.593.845.955.01.355-.844-.593-.852Zm.273 1.938-.959-.01-.365.834.596.852.966.021.358-.841-.596-.856Zm.269 1.939-.966-.022-.37.831.604.856.973.032.362-.835-.603-.862Zm1.225-2.897-.952-.007-.355.845.6.859.959.014.351-.849-.603-.862Zm.287 1.956-.962-.018-.359.841.604.863.969.025.358-.845-.61-.866Zm.288 1.956-.97-.028-.365.838.61.866.977.035.362-.837-.614-.874Zm.908-4.888h-.947l-.348.855.603.863.959.01.34-.862-.606-.866Zm.303 1.973-.955-.01-.355.852.611.866.966.021.348-.856-.614-.873Zm.301 1.978-.966-.025-.355.848.61.874.973.032.355-.852-.617-.877Zm1.183-2.955-.955-.006-.34.862.61.874.962.014.341-.866-.618-.877Zm.317 1.992-.962-.014-.348.856.617.88.97.025.344-.862-.621-.885Zm.315 1.996-.97-.029-.351.853.621.884.977.035.347-.855-.624-.888Zm.837-4.981h-.951l-.334.873.618.877.955.011.33-.877-.618-.884Zm.33 2.013-.958-.015-.341.87.625.884.962.022.337-.874-.625-.887Zm.331 2.01-.965-.022-.345.862.625.888.973.032.34-.866-.628-.895Zm1.136-3.008-.952-.007-.33.88.625.888.959.018.33-.884-.632-.895Zm.347 2.031-.961-.018-.338.874.632.894.97.025.33-.877-.632-.898Zm.345 2.031-.969-.029-.34.867.635.901.976.036.334-.873-.636-.902Zm-11.52.6-.977-.032-.383.81.59.844.983.043.38-.813-.593-.852Zm.24 1.903-.98-.047-.39.806.596.852.99.054.384-.81-.6-.855Zm.247 1.899-.99-.054-.395.8.6.855.998.064.39-.803-.603-.862Zm1.308-2.786-.976-.04-.383.817.604.855.983.047.38-.817-.607-.863Zm.26 1.92-.987-.05-.384.81.604.862.994.057.383-.813-.61-.866Zm.26 1.92-.993-.06-.391.803.607.866 1.005.071.387-.81-.614-.87Zm1.026-4.743-.977-.035-.372.827.603.863.984.042.369-.83-.607-.867Zm.27 1.939-.98-.046-.38.82.611.87.99.053.373-.827-.614-.87Zm.273 1.938-.99-.056-.38.816.61.873 1.001.064.377-.82-.618-.877Zm1.267-2.844-.977-.038-.369.83.61.874.988.046.365-.834-.617-.877Zm.289 1.957-.987-.05-.373.827.618.877.994.06.369-.83-.621-.884Zm.287 1.956-.994-.06-.376.82.621.883 1.001.071.373-.827-.625-.887Zm.951-4.833-.973-.035-.362.842.618.88.983.043.355-.849-.621-.88Zm.302 1.975-.98-.043-.366.834.621.885.991.053.358-.842-.624-.887Zm.302 1.975-.99-.054-.37.83.625.888 1.001.064.366-.834-.632-.895Zm1.225-2.898-.977-.04-.358.846.625.891.987.05.351-.852-.628-.895Zm.315 1.991-.987-.046-.359.838.629.895.994.06.358-.845-.635-.902Zm.316 1.996-.994-.06-.366.834.636.901 1 .068.363-.838-.639-.905Zm.881-4.928-.973-.032-.348.86.629.894.983.043.344-.863-.635-.902Zm.33 2.013-.98-.043-.355.852.636.899.99.053.349-.856-.64-.905Zm.33 2.013-.99-.056-.355.848.639.905.998.064.351-.852-.643-.909Zm1.183-2.954-.977-.039-.344.863.635.905.987.046.341-.866-.642-.909Zm.343 2.031-.987-.05-.348.856.643.913.994.056.345-.859-.647-.916Zm.344 2.027-.994-.057-.352.849.647.92 1 .067.352-.856-.653-.923ZM59.79 43.87h-.952l-.323.888.632.895.955.01.32-.894-.632-.898Zm.358 2.049-.959-.01-.326.883.635.898.966.022.32-.888-.636-.905Zm.361 2.049-.966-.022-.33.877.639.905.973.032.326-.884-.642-.908Zm.354 2.027-.973-.032-.333.873.642.913.98.042.334-.88-.65-.916Zm.361 2.048L60.242 52l-.337.87.646.916.987.053.337-.873-.65-.923Zm.358 2.049-.99-.054-.344.863.653.923.997.064.338-.87-.654-.926Zm-39.106.269-1.005-.07-.493.67.511.746 1.009.078.493-.674-.515-.75Zm.026 1.626-1.012-.082-.497.664.515.753 1.018.089.497-.668-.521-.756Zm.028 1.626-1.019-.092-.504.66.518.753 1.03.103.497-.664-.522-.76Zm1.644-3.951-.998-.064-.486.678.515.753 1.008.07.483-.684-.522-.753Zm.042 1.644-1.008-.074-.49.674.519.756 1.015.082.49-.678-.526-.76Zm.043 1.644-1.015-.085-.497.667.525.763 1.023.096.49-.674-.526-.767Zm1.658-2.347-1.005-.071-.483.685.526.763 1.012.079.479-.69-.53-.766Zm.056 1.661-1.011-.078-.49.678.529.767 1.019.09.486-.686-.533-.77Zm.054 1.666-1.019-.093-.49.675.533.77 1.026.103.486-.681-.536-.774Zm1.575-4.044-1-.068-.477.696.53.767 1.008.074.468-.699-.529-.77Zm.068 1.679-1.005-.074-.479.688.533.774 1.015.082.472-.692-.536-.778Zm.071 1.68-1.015-.086-.483.686.536.777 1.023.096.479-.689-.54-.784Zm1.616-2.401-1.005-.07-.469.703.536.777 1.012.078.465-.706-.54-.782Zm.085 1.701-1.012-.082-.475.696.543.781 1.019.093.468-.703-.543-.785Zm.086 1.697-1.022-.092-.476.692.543.788 1.03.1.472-.696-.547-.792Zm1.501-4.136-1.002-.064-.461.714.543.78 1.005.075.458-.717-.543-.788Zm.099 1.718-1.008-.075-.465.707.543.788 1.015.085.462-.713-.547-.792Zm.096 1.719-1.016-.085-.468.699.55.792 1.023.096.465-.707-.554-.795Zm1.574-2.457-1.002-.071-.458.717.547.795 1.012.078.454-.724-.553-.795Zm.112 1.736-1.01-.082-.462.714.554.795 1.02.092.457-.717-.557-.802Zm.114 1.736-1.019-.093-.465.707.557.802 1.026.103.462-.713-.56-.806Zm-10.466.667-1.03-.103-.507.653.522.76 1.037.114.504-.66-.526-.764Zm.025 1.623-1.037-.11-.511.646.529.767 1.043.12.508-.65-.532-.773Zm.028 1.626-1.047-.12-.515.642.532.77 1.051.132.515-.647-.536-.777Zm1.688-3.894-1.023-.097-.5.664.528.764 1.034.106.493-.667-.532-.77Zm.041 1.643-1.033-.107-.504.657.533.77 1.04.118.5-.664-.536-.774Zm.043 1.644-1.04-.117-.512.653.54.774 1.047.127.504-.656-.54-.781Zm1.701-2.294-1.03-.1-.493.668.536.778 1.036.11.49-.675-.54-.78Zm.056 1.665-1.036-.113-.501.664.54.78 1.047.125.493-.671-.543-.785Zm.058 1.662-1.047-.124-.505.66.547.785 1.051.135.5-.664-.546-.792Zm1.616-3.99-1.026-.097-.486.682.543.781 1.03.107.482-.686-.543-.788Zm.07 1.682-1.033-.106-.494.674.547.785 1.04.117.487-.678-.547-.792Zm.068 1.68-1.04-.117-.494.67.547.792 1.05.128.49-.674-.553-.8Zm1.658-2.347-1.027-.103-.482.685.55.795 1.033.11.48-.689-.555-.798Zm.085 1.7-1.037-.113-.487.681.554.796 1.044.124.483-.685-.557-.803Zm.084 1.697-1.044-.124-.493.678.56.803 1.052.131.486-.678-.561-.81Zm1.543-4.079-1.022-.096-.476.696.554.799 1.033.106.469-.703-.558-.802Zm.1 1.719-1.033-.11-.475.692.557.802 1.04.117.472-.696-.56-.806Zm.101 1.714-1.04-.117-.483.686.561.809 1.05.128.48-.689-.568-.817Zm1.615-2.4-1.03-.103-.468.703.56.81 1.037.11.465-.707-.564-.813Zm.113 1.736-1.036-.113-.476.695.568.817 1.044.12.472-.699-.572-.82Zm.115 1.736-1.044-.124-.48.693.572.816 1.051.135.476-.696-.575-.824Zm1.107-9.418-.998-.064-.447.728.554.799 1.004.074.448-.735-.561-.802Zm.131 1.757-1.008-.078-.455.724.558.802 1.015.086.45-.728-.56-.806Zm.128 1.753-1.015-.088-.458.72.56.806 1.023.096.455-.72-.565-.814Zm1.527-2.512-1.005-.071-.444.735.565.809 1.008.078.44-.738-.564-.813Zm.142 1.771-1.012-.078-.447.728.568.813 1.019.092.444-.735-.572-.82Zm.143 1.775-1.02-.093-.45.724.568.817 1.03.103.447-.728-.575-.823Zm1.359-4.321-1.001-.064-.437.746.568.813 1.005.074.433-.749-.568-.82Zm.156 1.793-1.008-.078-.44.742.57.817 1.016.085.437-.742-.575-.824Zm.156 1.789-1.016-.085-.444.732.575.827 1.023.096.44-.739-.578-.83Zm1.483-2.566-1.001-.071-.433.749.575.827 1.012.078.426-.753-.579-.83Zm.175 1.811-1.011-.082-.437.745.579.827 1.018.093.434-.75-.583-.834Zm.171 1.806-1.02-.092-.44.742.583.834 1.026.1.436-.742-.585-.842Zm1.284-4.409-1-.064-.423.76.578.83 1.009.071.419-.763-.583-.834Zm.185 1.828-1.008-.078-.426.756.582.835 1.015.085.423-.76-.586-.838Zm.184 1.825-1.015-.085-.43.749.586.841 1.023.096.43-.753-.594-.848Zm1.443-2.62-1.002-.071-.419.767.586.84 1.012.079.415-.77-.593-.845Zm.202 1.846-1.012-.081-.423.76.59.848 1.019.089.422-.767-.596-.849Zm.198 1.846-1.019-.092-.43.756.597.852 1.03.1.422-.76-.6-.856Zm1.215-4.505-1.002-.064-.408.778.59.845 1.008.074.405-.78-.593-.853Zm.213 1.867-1.009-.078-.412.774.593.848 1.016.086.412-.774-.6-.856Zm.216 1.864-1.015-.088-.423.767.604.859 1.022.096.416-.77-.604-.864Zm1.398-2.677-1.004-.07-.409.78.604.86 1.008.078.405-.788-.604-.86Zm.228 1.882-1.01-.082-.413.778.607.862 1.02.09.404-.782-.607-.866Zm.23 1.882-1.022-.09-.415.771.61.866 1.027.103.411-.777-.61-.873Zm-12.182-.238-1.023-.096-.462.71.569.817 1.03.106.457-.717-.571-.82Zm.129 1.753-1.033-.106-.465.707.568.82 1.04.117.462-.714-.572-.824Zm.128 1.754-1.043-.117-.469.703.575.823 1.047.128.47-.706-.58-.83Zm1.569-2.456-1.026-.1-.458.718.575.824 1.034.11.454-.721-.579-.83Zm.142 1.775-1.037-.114-.458.714.58.827 1.043.124.458-.717-.586-.834Zm.147 1.771-1.047-.124-.466.707.583.837 1.054.132.462-.71-.586-.842Zm1.397-4.264-1.025-.095-.447.728.578.83 1.033.103.444-.731-.582-.834Zm.158 1.79-1.034-.107-.45.724.582.835 1.04.117.45-.728-.588-.841Zm.156 1.793-1.04-.12-.459.72.59.838 1.047.127.455-.72-.593-.845Zm1.53-2.514-1.03-.103-.444.735.586.841 1.037.11.44-.738-.59-.845Zm.17 1.811-1.037-.114-.447.728.59.849 1.043.12.447-.734-.596-.849Zm.17 1.807-1.043-.12-.455.72.597.852 1.054.135.447-.728-.6-.86Zm1.329-4.357-1.023-.095-.437.745.593.846 1.03.106.433-.75-.596-.851Zm.188 1.83-1.033-.107-.44.738.596.852 1.04.117.437-.745-.6-.856Zm.184 1.828-1.04-.117-.444.731.6.86 1.048.127.44-.738-.604-.863Zm1.484-2.568-1.027-.102-.433.749.6.859 1.037.11.426-.756-.603-.86Zm.203 1.847-1.037-.114-.437.746.604.863 1.044.12.433-.749-.607-.866Zm.198 1.846-1.044-.124-.44.738.607.87 1.055.131.437-.742-.615-.873Zm1.258-4.448-1.026-.096-.422.76.603.862 1.033.107.42-.767-.608-.866Zm.212 1.863-1.034-.106-.426.756.607.866 1.04.117.426-.76-.614-.873Zm.217 1.864-1.04-.117-.434.75.615.873 1.047.128.426-.753-.614-.88Zm1.441-2.619-1.03-.103-.419.767.614.873 1.034.11.415-.77-.614-.877Zm.228 1.881-1.036-.114-.423.76.618.88 1.044.121.419-.763-.622-.884Zm.229 1.881-1.047-.124-.426.756.62.884 1.055.135.423-.76-.625-.89Zm-25.088-1.331-1.05-.135-.523.64.537.777 1.061.142.518-.643-.543-.78Zm.028 1.626-1.061-.145-.526.632.54.78 1.072.157.522-.636-.547-.788Zm.029 1.626-1.073-.156-.529.628.547.785 1.076.166.525-.632-.546-.791Zm1.732-3.841-1.051-.128-.511.646.54.781 1.057.139.508-.654-.543-.784Zm.038 1.644-1.058-.142-.515.646.543.784 1.069.15.511-.647-.55-.791Zm.042 1.643-1.065-.149-.522.636.55.791 1.073.16.518-.642-.554-.796Zm1.745-2.236-1.055-.135-.504.653.547.796 1.062.142.504-.657-.554-.799Zm.057 1.661-1.062-.145-.511.65.554.798 1.068.153.508-.653-.557-.803Zm.056 1.662-1.072-.153-.515.643.557.802 1.08.163.51-.646-.56-.81Zm1.659-3.934-1.048-.128-.5.664.553.799 1.058.138.494-.667-.557-.806Zm.07 1.683-1.058-.139-.504.657.557.803 1.069.149.497-.664-.561-.806Zm.07 1.679-1.065-.15-.508.654.56.81 1.073.16.504-.661-.564-.813Zm1.701-2.29-1.05-.135-.498.671.561.806 1.062.146.493-.675-.568-.813Zm.086 1.701-1.06-.146-.501.664.568.813 1.068.153.497-.668-.571-.816Zm.085 1.697-1.073-.156-.5.66.568.82 1.08.163.5-.663-.575-.824Zm1.587-4.026-1.048-.128-.486.682.564.813 1.058.138.483-.685-.571-.82Zm.1 1.718-1.058-.138-.49.674.571.82 1.066.15.486-.682-.575-.824Zm.098 1.719-1.065-.153-.497.67.575.825 1.076.16.49-.675-.579-.827Zm1.66-2.348-1.055-.135-.483.686.575.823 1.062.146.479-.692-.579-.828Zm.111 1.737-1.061-.146-.486.678.578.831 1.069.156.483-.685-.583-.834Zm.115 1.735-1.069-.155-.493.674.586.835 1.076.166.486-.681-.586-.838Zm-10.987.004-1.08-.163-.532.621.55.792 1.087.174.529-.625-.554-.799Zm1.831-.532-1.075-.163-.526.632.554.798 1.083.17.518-.635-.554-.802Zm.039 1.644-1.083-.174-.529.628.557.802 1.09.181.526-.631-.561-.806Zm1.828-.54-1.076-.167-.522.64.561.809 1.087.174.518-.643-.568-.813Zm1.818-.553-1.076-.16-.511.65.564.812 1.083.17.508-.652-.568-.82Zm.068 1.682-1.083-.174-.514.643.571.82 1.09.181.511-.646-.575-.824Zm1.817-.557-1.08-.167-.507.653.575.827 1.087.174.504-.657-.579-.83Zm1.8-.572-1.076-.163-.5.667.578.828 1.083.17.497-.668-.582-.834Zm.1 1.718-1.084-.174-.504.66.582.835 1.09.18.5-.663-.585-.838Zm1.8-.574-1.079-.167-.493.67.585.838 1.087.178.49-.675-.59-.845Zm.113 1.735-1.086-.177-.5.664.592.845 1.094.188.497-.671-.597-.849Zm1.311-7.569-1.047-.13-.476.695.578.83 1.058.14.469-.7-.582-.835Zm.126 1.754-1.058-.142-.476.692.583.835 1.065.152.475-.696-.589-.84Zm.132 1.754-1.069-.15-.482.686.589.841 1.072.16.48-.692-.59-.845Zm1.612-2.404-1.054-.134-.47.703.59.84 1.058.146.469-.706-.593-.849Zm.142 1.776-1.061-.146-.472.696.589.845 1.072.156.469-.703-.597-.849Zm.146 1.771-1.073-.156-.479.692.596.852 1.08.164.476-.696-.6-.856Zm1.442-4.211-1.051-.128-.458.714.59.845 1.057.139.458-.718-.596-.852ZM39 67.089l-1.059-.138-.465.706.596.852 1.066.15.461-.714-.6-.856Zm.16 1.789-1.07-.149-.468.703.6.856 1.072.16.469-.707-.604-.863Zm1.569-2.456-1.055-.135-.458.72.604.856 1.061.142.451-.72-.603-.863Zm.171 1.811-1.062-.146-.462.713.608.863 1.068.153.458-.717-.61-.867Zm.172 1.81L40 69.887l-.465.707.607.866 1.08.167.46-.714-.61-.87Zm1.372-4.303-1.051-.127-.448.727.604.863 1.058.138.444-.734-.608-.867Zm.184 1.828-1.058-.142-.45.724.606.87 1.065.15.451-.728-.614-.874Zm.188 1.829-1.069-.152-.454.72.61.87L42.98 71l.451-.725-.614-.877Zm1.527-2.514-1.054-.134-.444.735.614.873 1.062.142.44-.739-.618-.877Zm.199 1.847-1.062-.146-.447.727.617.881 1.07.153.443-.732-.621-.884Zm.202 1.846-1.072-.157-.451.725.621.884 1.076.163.45-.728-.624-.887Zm1.3-4.392-1.051-.132-.437.746.618.88 1.058.139.433-.753-.621-.88Zm.213 1.864-1.058-.138-.44.738.621.884 1.065.15.437-.746-.625-.888Zm.216 1.864-1.065-.15-.448.732.625.891 1.076.16.44-.739-.628-.894Zm1.483-2.568L46.9 67.21l-.43.749.626.89 1.061.143.426-.753-.628-.895Zm.232 1.882-1.065-.145-.433.745.628.895 1.069.156.433-.749-.632-.902Zm.226 1.886-1.069-.156-.44.738.632.898 1.08.167.436-.745-.639-.902ZM35.627 70.1l-1.076-.16-.486.682.593.845 1.083.17.483-.685-.597-.852Zm.128 1.757-1.083-.174-.49.675.597.852 1.09.181.486-.678-.6-.856Zm1.785-.592-1.079-.167-.48.685.6.856 1.087.177.476-.692-.603-.86Zm.145 1.771-1.09-.177-.486.681.603.863 1.097.184.483-.685-.607-.866Zm1.627-2.382-1.073-.16-.475.696.603.863 1.083.17.472-.703-.61-.866Zm.159 1.789-1.082-.17-.48.692.607.866 1.09.181.476-.695-.61-.874Zm1.772-.61-1.079-.164-.472.7.614.873 1.087.178.465-.707-.615-.88Zm.171 1.81-1.087-.177-.475.696.617.88 1.094.185.472-.7-.621-.884ZM43 71.207l-1.075-.163-.462.714.618.877 1.08.17.457-.717-.617-.88Zm.185 1.829-1.083-.174-.465.707.621.884 1.09.18.462-.71-.625-.887Zm1.757-.632-1.08-.167-.457.72.625.889 1.086.173.455-.72-.629-.895Zm.198 1.846-1.086-.177-.461.713.628.895 1.097.184.458-.717-.635-.898Zm1.546-2.492-1.076-.16-.447.728.628.895 1.083.17.444-.735-.632-.898Zm.212 1.864-1.082-.17-.451.724.632.898 1.09.18.45-.727-.639-.905Zm.217 1.868-1.093-.185-.455.717.636.905 1.1.192.455-.72-.643-.91Zm1.528-2.515-1.08-.166-.443.735.639.905 1.086.174.44-.739-.642-.909Zm.229 1.883-1.09-.178-.447.731.643.91 1.093.188.447-.735-.646-.916Zm-.659-19.634-1-.064-.398.792.607.863 1.004.074.394-.799-.607-.866Zm.244 1.899-1.008-.074-.401.788.607.866 1.015.086.398-.792-.61-.873Zm.241 1.904-1.015-.086-.405.781.611.874 1.026.096.401-.788-.618-.877Zm1.357-2.734-1.005-.071-.394.799.614.873 1.012.082.387-.806-.614-.877Zm.259 1.92-1.012-.081-.398.795.614.877 1.02.089.394-.796-.618-.884Zm.256 1.921-1.018-.092-.402.788.622.884 1.026.1.397-.792-.624-.888Zm1.069-4.69-.998-.064-.387.81.618.88 1.005.071.383-.813-.621-.884Zm.272 1.939-1.008-.075-.39.803.62.884 1.016.085.387-.806-.625-.891Zm.274 1.937-1.015-.084-.394.798.625.888 1.022.096.39-.803-.628-.894Zm1.31-2.785-1.004-.072-.38.817.625.888 1.012.081.376-.82-.629-.895Zm.289 1.956-1.012-.082-.387.81.632.894 1.02.093.379-.817-.632-.898Zm.286 1.956-1.019-.092-.39.806.632.898 1.03.103.383-.81-.636-.905Zm.994-4.779-.997-.064-.373.824.628.895 1.005.074.373-.827-.636-.902Zm.303 1.974-1.008-.075-.376.82.635.902 1.012.082.377-.824-.64-.905Zm.3 1.978-1.015-.09-.38.817.636.905 1.026.096.376-.82-.643-.909Zm1.268-2.844-1.001-.072-.37.831.636.906 1.012.078.365-.835-.642-.908Zm.317 1.991-1.012-.082-.373.828.643.909 1.019.092.369-.83-.646-.917Zm.316 1.996-1.02-.093-.376.82.647.916 1.026.1.372-.824-.65-.92Zm.922-4.871-.997-.064-.362.841.642.91 1.009.074.355-.845-.646-.916Zm.33 2.009-1.005-.074-.365.838.646.916 1.015.081.362-.838-.653-.923Zm.335 2.013-1.02-.085-.368.83.653.92 1.022.096.366-.834-.653-.927Zm1.221-2.897-1.001-.07-.359.844.653.923 1.009.078.355-.848-.657-.927Zm.348 2.031-1.016-.081-.358.84.656.928 1.02.088.354-.845-.656-.93Zm.344 2.027-1.023-.092-.362.838.657.93 1.03.103.358-.841-.66-.938Zm-12.128-.163-1.022-.1-.412.778.618.877 1.033.107.405-.782-.621-.88Zm.245 1.899-1.033-.106-.415.77.621.884 1.04.117.412-.777-.625-.888Zm.245 1.903-1.04-.12-.419.767.625.89 1.047.128.416-.773-.629-.892Zm1.399-2.681-1.03-.099-.408.781.629.888 1.033.113.404-.788-.628-.895Zm.255 1.921-1.037-.114-.412.778.632.895 1.044.124.408-.785-.635-.898Zm.26 1.921-1.044-.124-.415.77.632.902 1.054.132.412-.774-.64-.906Zm1.112-4.633-1.026-.096-.398.791.632.895 1.03.107.394-.8-.632-.897Zm.272 1.938-1.033-.106-.405.788.636.898 1.04.118.397-.792-.635-.905Zm.275 1.939-1.044-.117-.405.78.64.906 1.047.128.4-.788-.638-.91Zm1.351-2.734-1.03-.103-.393.799.639.905 1.036.114.39-.806-.642-.91Zm.288 1.957-1.037-.114-.397.795.642.91 1.044.123.394-.798-.646-.916Zm.288 1.956-1.048-.125-.401.788.646.916 1.054.135.398-.791-.65-.923Zm1.036-4.723-1.022-.099-.387.81.642.912 1.033.106.38-.816-.646-.913Zm.302 1.975-1.033-.106-.387.802.646.916 1.04.117.384-.81-.65-.919Zm.303 1.974-1.04-.117-.394.798.65.92 1.05.128.39-.803-.656-.926Zm1.312-2.788-1.03-.103-.383.817.654.92 1.033.11.38-.817-.654-.927Zm.317 1.992-1.037-.113-.387.81.653.926 1.044.124.383-.813-.657-.934Zm.316 1.995-1.047-.124-.39.802.66.934 1.05.132.387-.806-.66-.938Zm.964-4.817-1.025-.096-.373.824.657.927 1.03.106.369-.827-.657-.934Zm.331 2.013-1.033-.107-.376.817.657.933 1.04.118.373-.824-.66-.937Zm.33 2.013-1.04-.12-.383.812.664.941 1.047.124.38-.816-.668-.941Zm1.269-2.844-1.03-.103-.37.831.664.937 1.037.11.366-.834-.668-.94Zm.344 2.027-1.037-.11-.373.824.668.944 1.044.121.369-.83-.671-.949Zm.343 2.031-1.043-.124-.377.82.671.948 1.051.135.377-.824-.679-.955Zm-.159-11.031-.997-.064-.348.856.653.926 1.008.075.345-.863-.66-.93Zm.359 2.049-1.005-.075-.352.853.657.93 1.016.085.348-.856-.664-.937Zm.362 2.048-1.016-.085-.358.845.664.938 1.022.095.355-.852-.667-.94Zm.355 2.028-1.026-.096-.359.841.668.944 1.033.107.355-.849-.671-.947Zm.358 2.048-1.033-.107-.362.838.671.948 1.04.117.362-.841-.678-.955Zm.363 2.049-1.044-.117-.366.83.675.956 1.047.127.366-.837-.678-.96Zm-14.06.294-1.048-.131-.426.763.632.895 1.055.138.422-.767-.635-.898Zm.245 1.899-1.058-.138-.43.757.636.898 1.065.149.426-.76-.64-.905Zm.246 1.904-1.069-.153-.43.753.636.905 1.076.16.426-.757-.64-.908Zm1.437-2.624-1.051-.135-.42.767.636.906 1.062.145.415-.774-.642-.909Zm.259 1.921-1.061-.145-.423.76.643.912 1.069.152.419-.763-.647-.916Zm.259 1.92-1.068-.156-.43.753.646.92 1.08.162.422-.76-.65-.919Zm1.155-4.579-1.051-.128-.409.778.643.909 1.054.138.409-.781-.646-.916Zm.272 1.938-1.058-.139-.415.77.646.917 1.065.149.412-.774-.65-.923Zm.274 1.938-1.069-.149-.419.767.654.92 1.072.16.415-.77-.653-.928Zm1.395-2.677-1.051-.135-.409.781.65.924 1.062.145.404-.788-.656-.927Zm.287 1.957-1.061-.145-.412.777.657.927 1.068.152.408-.78-.66-.93Zm.288 1.956-1.069-.156-.415.774.657.93 1.08.167.411-.778-.664-.937Zm1.083-4.669-1.051-.127-.398.791.657.927 1.055.138.394-.799-.657-.93Zm.302 1.975-1.058-.139-.401.788.657.93 1.065.15.4-.792-.663-.937Zm.303 1.977-1.066-.153-.408.785.664.937 1.072.16.405-.788-.668-.941Zm1.352-2.734-1.05-.135-.395.799.66.937 1.062.142.39-.802-.667-.941Zm.316 1.992-1.062-.146-.398.795.668.941 1.069.156.397-.799-.674-.947Zm.315 1.995-1.069-.156-.404.788.674.948 1.076.163.401-.792-.678-.951Zm1.011-4.76-1.05-.132-.384.81.668.944 1.054.138.383-.813-.67-.948Zm.332 2.009-1.058-.138-.39.802.67.948 1.066.149.387-.806-.675-.955Zm.329 2.013-1.065-.15-.394.796.674.955 1.076.16.39-.803-.681-.958Zm1.31-2.788-1.05-.135-.384.814.678.954 1.058.142.38-.816-.682-.959Zm.348 2.032-1.065-.146-.383.81.678.954 1.072.157.38-.813-.682-.962Zm.345 2.027-1.073-.156-.39.805.685.963 1.08.166.386-.81-.688-.968Zm-12.732-.938-1.076-.16-.436.746.642.909 1.083.17.433-.749-.646-.916Zm.241 1.903-1.083-.17-.44.738.646.916 1.094.181.436-.745-.653-.92Zm.246 1.9-1.09-.181-.444.735.65.92 1.097.194.44-.742-.653-.926Zm1.484-2.568-1.08-.166-.43.753.65.92 1.087.177.43-.757-.657-.926Zm.259 1.921-1.087-.177-.436.745.653.927 1.097.185.433-.75-.66-.93Zm1.456-2.602-1.076-.16-.422.76.653.927 1.083.17.419-.767-.657-.93Zm.272 1.938-1.082-.17-.43.752.66.934 1.09.181.426-.76-.663-.937Zm.274 1.939-1.093-.185-.433.753.664.937 1.1.192.43-.757-.668-.94Zm1.439-2.624-1.075-.167-.423.767.664.938 1.086.177.416-.774-.668-.94Zm.287 1.957-1.086-.178-.423.76.667.945 1.094.188.419-.767-.671-.948Zm1.412-2.656-1.076-.164-.408.778.667.944 1.08.17.408-.78-.671-.948Zm.304 1.974-1.084-.174-.415.774.671.948 1.09.181.412-.777-.675-.952Zm.301 1.974-1.09-.181-.422.767.678.951 1.097.192.415-.77-.678-.959Zm1.399-2.676-1.08-.167-.409.78.679.956 1.086.174.401-.785-.678-.959Zm.315 1.99-1.09-.177-.408.777.678.959 1.097.188.405-.78-.682-.967Zm.315 1.995-1.097-.187-.415.77.685.966 1.104.195.412-.774-.689-.97Zm1.053-4.707-1.073-.16-.4.792.68.959 1.084.17.394-.795-.685-.966Zm.33 2.013-1.083-.174-.4.788.684.966 1.09.181.398-.791-.689-.97Zm.329 2.01-1.09-.181-.405.78.686.97 1.1.192.401-.785-.692-.976Zm1.357-2.73-1.08-.167-.394.799.69.97 1.086.173.39-.802-.692-.973Zm.344 2.027-1.087-.178-.397.796.692.972 1.094.188.394-.798-.696-.98Zm.345 2.031-1.094-.188-.405.788.7.98 1.1.198.402-.791-.703-.987Zm-.072-10.921-1.05-.128-.374.824.682.958 1.055.139.369-.827-.682-.966Zm.359 2.048-1.058-.138-.376.82.685.962 1.065.15.373-.824-.689-.97Zm.358 2.049-1.065-.15-.38.814.689.969 1.072.16.376-.817-.692-.976Zm.36 2.03-1.076-.163-.387.81.696.976 1.08.17.382-.812-.695-.98Zm.357 2.05-1.082-.175-.39.806.698.98 1.09.181.384-.81-.7-.983Zm.358 2.048-1.09-.185-.394.799.7.987 1.1.192.39-.803-.706-.99Z"/>
  <path stroke="#DBC7B9" stroke-linecap="round" stroke-linejoin="round" d="M20.839 40.34v30.288l45.426 10.967-7.733-50.58L20.84 40.34Z"/>
  <path stroke="#333" stroke-linecap="round" stroke-linejoin="round" stroke-width=".3" d="M11.33 52.839c.09-.046.48-.242.25-.355-.232-.114-.285.334-1.13.646-.845.313-1.107.465-1.267.53-.16.063-1.065.876-1.147 1.256-.067.295-.22.458.04.571.258.114.521-.43.596-.45.259-.117.498-.272.71-.462 0-.082.227-.082.312-.124.122-.108.227-.234.313-.373.1-.225.254-.422.447-.575m-.164-1.357-1.064.11c-.164 0-.888.146-.962.167-.075.021-.98.216-1.115.28-.135.064-.767.178-.448.437.24.204.527.343.835.405.21.048.421.084.635.106a1.68 1.68 0 0 0 .437-.099c.078-.032.43-.398.518-.444.337-.2.714-.321 1.104-.355m2.053.799c.06.12.238.153.323.437.085.284-.085.813 0 .745.085-.067.068 0 .1-.593a1.466 1.466 0 0 0-.43-1.012c-.039-.074.096-.103.16-.127.064-.025.273.106.323.092.05-.014.156-.192.223-.597a.96.96 0 0 0-.081-.479c-.107-.17-.057-.213.089-.248a1.31 1.31 0 0 0 .92-.892"/>
  <path stroke="#333" stroke-linecap="round" stroke-linejoin="round" stroke-width=".3" d="M9.31 53.453c.204-.34.527-.593.905-.71a.529.529 0 0 1 .185-.665c.38-.244.643-.397.82-.355a1.332 1.332 0 0 1 .774 1.233m-.038.475c0 .05.07.16.188.277.117.117.355.153.355.394 0 0 .092.686-.355.977"/>
  <path stroke="#333" stroke-linecap="round" stroke-linejoin="round" stroke-width=".3" d="m12.25 54.081-.458-.302c-.057-.035-.184.04-.16.132.055.305.028.62-.078.912-.021.04.31.043.39.32.082.277.292.66.125.827-.053.053-.053-.078-.028-.103.024-.025.078-.167 0-.174-.079-.007-.04-.213-.04-.213m-.713-1.615a.436.436 0 0 1-.302.394c-.021.203-.003.407.053.603.04.323-.038.65-.22.92a.622.622 0 0 1-.76.12c-.4-.184-.589-.383-.653-.688a1.027 1.027 0 0 0 1.307-.078m2.127-2.966c.07.25-.05.633-.146.658-.096.024-.075-.455-.1-.55-.024-.096-.127-.256-.031-.281a.278.278 0 0 1 .276.174v0Zm-.04-1.579a.835.835 0 0 1-.12.99c-.046.047.06.15.053.196-.007.046-.16-.146-.287-.117m-1.006-.004a1.14 1.14 0 0 1 .668 0c.295.12.32.902.142 1.065"/>
  <path stroke="#333" stroke-linecap="round" stroke-linejoin="round" stroke-width=".3" d="M9.357 54.805s.323.31 1.246-.025m61.825 8.08c-.096-.02-.522-.117-.327-.294.196-.178.355.255 1.25.355.895.1 1.19.181 1.36.202.17.022 1.246.59 1.42.938.138.27.327.39.103.564-.224.174-.614-.287-.689-.291a2.81 2.81 0 0 1-.795-.273c-.04-.079-.238-.025-.334-.047a1.628 1.628 0 0 1-.394-.287 1.57 1.57 0 0 0-.572-.433m-.181-1.342 1.065-.156c.163-.025.898-.078.973-.075.075.004 1.005-.028 1.15 0 .146.029.788 0 .543.313a1.893 1.893 0 0 1-.71.6c-.191.098-.39.183-.593.255a1.882 1.882 0 0 1-.443 0c-.086 0-.519-.284-.615-.309a2.677 2.677 0 0 0-1.16-.085m-1.795 1.292c-.028.132-.195.203-.206.5-.01.299.28.768.192.71-.089-.056-.068 0-.242-.55a1.47 1.47 0 0 1 .17-1.086c.022-.081-.116-.078-.187-.085-.071-.007-.238.17-.288.17-.05 0-.202-.152-.355-.529a.96.96 0 0 1-.043-.483c.064-.188 0-.22-.145-.216a1.32 1.32 0 0 1-1.108-.64"/>
  <path stroke="#333" stroke-linecap="round" stroke-linejoin="round" stroke-width=".3" d="M74.54 62.96a1.637 1.637 0 0 0-1.066-.468.529.529 0 0 0-.355-.6c-.43-.142-.71-.224-.877-.135a1.336 1.336 0 0 0-.45 1.388m.182.451a.575.575 0 0 1-.118.316c-.096.167-.305.23-.252.468 0 0 .075.686.579.863"/>
  <path stroke="#333" stroke-linecap="round" stroke-linejoin="round" stroke-width=".3" d="m71.842 64.292.355-.405c.046-.05.192 0 .188.085.024.31.127.61.299.87.032.032-.288.114-.299.405-.01.29-.12.71.082.83.064.04.032-.085 0-.106-.032-.021-.114-.142-.032-.17.082-.029 0-.217 0-.217m.289-1.736a.433.433 0 0 0 .39.305c.07.19.101.393.093.596.044.324.2.622.44.842a.624.624 0 0 0 .767-.071.962.962 0 0 0 .465-.827 1.033 1.033 0 0 1-1.289.245m-2.781-2.354c0 .256.202.596.301.6.1.004-.039-.458-.039-.557 0-.1.06-.28-.039-.28a.273.273 0 0 0-.223.237v0Zm-.354-1.537a.838.838 0 0 0 .355.934c.057.032-.021.156 0 .202.021.046.117-.181.252-.185m.972-.255a1.13 1.13 0 0 0-.646.17c-.256.188-.089.952.128 1.065"/>
  <path stroke="#333" stroke-linecap="round" stroke-linejoin="round" stroke-width=".3" d="M74.824 64.284s-.238.38-1.215.28m-5.346-24.109c-.075 0-.408.025-.302-.146.107-.17.316.11.99 0 .675-.11.91-.124 1.041-.142.438.028.862.16 1.239.384.156.167.32.213.195.39-.124.178-.51-.081-.568-.067a2.04 2.04 0 0 1-.642-.032c-.043-.046-.178.035-.252.039a1.318 1.318 0 0 1-.355-.124 1.178 1.178 0 0 0-.512-.2m-.419-.972.749-.355c.113-.053.642-.248.71-.262.067-.015.71-.235.841-.245.132-.011.576-.178.465.113a1.42 1.42 0 0 1-.394.59c-.118.113-.243.22-.376.316a1.358 1.358 0 0 1-.323.102c-.067 0-.44-.095-.515-.092-.3-.007-.598.056-.87.185m-1.05 1.356c0 .103-.099.191-.046.412.054.22.355.5.295.486-.06-.014-.053 0-.295-.355a1.125 1.125 0 0 1-.106-.83c0-.068-.103-.036-.156-.026-.054.01-.139.178-.174.189-.036.01-.181-.068-.38-.31a.753.753 0 0 1-.132-.355c0-.149-.042-.163-.156-.127a.99.99 0 0 1-.944-.231"/>
  <path stroke="#333" stroke-linecap="round" stroke-linejoin="round" stroke-width=".3" d="M69.833 40.079a1.229 1.229 0 0 0-.874-.117.408.408 0 0 0-.38-.355c-.355 0-.575 0-.67.089a1.026 1.026 0 0 0-.036 1.11m.213.284a.44.44 0 0 1-.018.256c-.035.146-.174.238-.085.398 0 0 .202.486.607.507"/>
  <path stroke="#333" stroke-linecap="round" stroke-linejoin="round" stroke-width=".3" d="M68.139 41.626s.131-.27.184-.355a.095.095 0 0 1 .127-.013c.012.009.022.02.03.035.081.223.22.42.4.575.033 0-.184.142-.13.355.053.213.063.547.237.593.053 0 0-.071-.021-.078-.021-.007-.117-.082-.06-.121.056-.04-.057-.156-.057-.156m-.171-1.346a.33.33 0 0 0 .355.142c.09.125.157.266.195.416.028.128.355.508.5.522a.479.479 0 0 0 .547-.217.728.728 0 0 0 .164-.71.784.784 0 0 1-.891.454m-2.534-1.125c.05.192.277.398.355.376.078-.02-.128-.326-.15-.4-.02-.075 0-.217-.088-.196a.213.213 0 0 0-.117.22v0Zm-.581-1.051a.643.643 0 0 0 .461.607c.05 0 0 .12.043.149.042.028.046-.156.142-.188m.655-.394a.856.856 0 0 0-.437.263c-.146.192.138.71.323.76"/>
  <path stroke="#333" stroke-linecap="round" stroke-linejoin="round" stroke-width=".3" d="M70.322 41.006s-.092.33-.83.465"/>
  <path stroke="#333" stroke-linecap="round" stroke-linejoin="round" d="M17.942 41.715s-1.171 1.616-1.906 1.665a4.616 4.616 0 0 1-2.13-.44 5.757 5.757 0 0 0-2.29-.262"/>
  <path stroke="#333" stroke-linecap="round" stroke-linejoin="round" d="M13.078 36.834a4.093 4.093 0 0 0 3 2.151c2.2.355 3.149 1.754 3.621 1.637l2.315-.572s.454-.603-1.065-1.86c-1.52-1.257-2.84-3.22-5.589-2.784-2.747.437-2.325.533-3.244 2.805-.92 2.272-2.226 3.945-2.106 4.477.121.533 2.485 3.55 3.728 4.26 1.243.71 3.621 1.96 5.766.945"/>
  <path stroke="#333" stroke-linecap="round" stroke-linejoin="round" d="M19.497 43.157s-1.254 2.002-2.397 2.94"/>
  <path stroke="#F2A679" stroke-linecap="round" stroke-linejoin="round" d="M19.497 69.184 1.85 72.532m17.647-5.102L1.85 71.63M1 70.86l18.497-3.91m46.767 14.645-7.732-50.58M69.058 82.27l-8.319-49.586M19.497 70.306V40.672m1.342 29.957V40.34m38.641-9.549-39.983 9.88-1.619-.184.09 1.683 1.53.103m44.643-9.59h-4.224l-.568-2.616 1.391-.11"/>
  <path stroke="#333" stroke-linecap="round" stroke-linejoin="round" d="M64.142 32.45s-.06.876 1.65 1.089c1.712.213 4.162-.28 4.52-.547.359-.266 3.195-4.171 3.377-4.59.475-1.065 1.047-5.897.976-6.327m-4.236-5.137s-5.759 3.195-5.507 4.686c.252 1.491 1.214 1.175.888 3.834"/>
  <path stroke="#333" stroke-linecap="round" stroke-linejoin="round" d="M69.407 33.29s.738 1.7 2.332 1.747c1.594.046 3.806-.83 4.044-1.065.238-.234 2.9-2.57 3.327-4.14.383-1.348.662-2.724.834-4.114"/>
  <path stroke="#333" stroke-linecap="round" stroke-linejoin="round" d="M74.668 34.476s.355 1.257 2.159.565c1.804-.693 4.204-1.974 4.463-2.358.259-.383 1.945-2.098 1.97-4.196a17.49 17.49 0 0 0 0-1.946"/>
  <path stroke="#333" stroke-linecap="round" stroke-linejoin="round" d="M75.947 35.247s.778 1.004 3.785-.206 4.15-2.457 4.203-3.494c.053-1.036.856-8.165.519-8.432-.338-.266-5.429-5.574-7.055-6.273-1.626-.7-7.704-2.379-10.846-2.379-3.142 0-4.47 3.76-4.661 4.424-.192.664-1.52 4.012-1.52 4.012s-1.775 2.258-1.736 3.113c.039.856 4.136 5.947 4.494 6.09.36.141.902.667 1.545.12.642-.547 2.325-5.208 1.59-6.23-.734-1.023-3.706-3.14-3.468-4.02.238-.88 1.64-2.808 1.64-2.808"/>
  <path stroke="#333" stroke-linecap="round" stroke-linejoin="round" d="M61.224 20.73s-1.928-5.081-1.53-5.919c.397-.838 1.232-2.077 4.2-2.077m13.504 4.108s.075-4.75-1.065-6.231c-1.14-1.48-7.512-8.897-13.636-9.192"/>
  <path stroke="#333" stroke-linecap="round" stroke-linejoin="round" d="M54.496 6.805c.199-.198 7.001-3.419 11.77-2.485 4.767.934 9.035 8.943 9.035 8.943m-15.615 1.548s0-.71-1.828-.99c-1.829-.28-7.513-2.52-7.711-3.26"/>
  <path stroke="#333" stroke-linecap="round" stroke-linejoin="round" d="M66.264 12.684s4.133-.603 6.249-.177a.266.266 0 0 0 .28-.401c-.92-1.53-3.678-5.6-7.278-6.242M20.224 37.547c.025-.71-.028-5.294-.326-5.556-.298-.263-2.485-.26-3.298-.26-.813 0 .166-1.242.674-1.274.508-.032 4.832 1.722 5.432 1.775.6.053 1.346 1.008 1.498.412.153-.597.224-3.71.185-4.907M10.003 42.688s-.987-3.55-.987-6.16V31.32c0-.873-.454-7.38 0-7.456.454-.074 1.136-.529 1.512-.45m.001 15.266s.795-4.157 3.149-5.634"/>
  <path stroke="#333" stroke-linecap="round" stroke-linejoin="round" d="M9.997 34.87s3.007-4.42 5.68-5.204"/>
  <path stroke="#F2A679" stroke-linecap="round" stroke-linejoin="round" d="m69.556 83.91 28.296-13.558M75.069 83.907c.142-.142 21.728-10.768 21.728-10.768M70.2 75.212l10.174 2.13m-10.616-4.821 7.921 1.332m-6.998 3.646 7.417 1.732-7.889 3.316-53.127-12.823m-2.605 1.434c.469.234 40.874 11.89 40.874 11.89m-38.766-9.196 29.748 9.196m24.853-1.538-7.92-48.826"/>
  <path fill="#F2A679" d="M44.86 34.281c.262-.053.433.408.479 1.232.046.824-.838 2.088.49 2.272 1.328.185.792-1.349.557-1.864-.234-.514-.323-1.21.117-1.21s.437.188.66.419c.225.23.74.092.786-.093.046-.184-.072-1.026.326-1.189.398-.163.817-.277 1.118 0 .302.277.767 1.001.767 1.445 0 .444.21.838.536.817.327-.022.561-.235.537-1.374-.025-1.14.301-1.374.71-1.42.408-.047.77.354 1.118.443.348.089.745-.93 1.047-.955.302-.025 1.065-.28 1.143-.607.079-.327-.095-.579-.355-.511-.259.067-4.555.511-5.325.77-.77.26-1.97.728-2.634.91-.327.08-4.47 1.366-2.077.915ZM25.798 38.96s.057-.103.21.231c.216.764.32 1.556.312 2.35 0 .892.45 7.957.437 8.248-.015.29-.391.958 0 1.25.39.29.653.184.76.092.106-.093.184-.71-.132-1.84-.316-1.128-.675-10.231-.45-10.451.223-.22.46-.064.631.053a.926.926 0 0 0 .753 0c.124-.1.529-.565.77-.565.242 0 .543 0 .841.593.299.593.597.813.519 1.254-.078.44-.252.66-.064.894.188.234.59.195.646.053a1.065 1.065 0 0 0-.117-.859c-.217-.458-.181-1.746.035-1.935.217-.188.402-.4.554-.301.129.086.227.21.28.355a.76.76 0 0 1-.08.436.405.405 0 0 0 .141.515c.242.12.511 0 .401-.48-.11-.479-.355-.517-.259-.794a2.07 2.07 0 0 1 .48-.746c.124-.085-.189-.185-.377-.15-.188.036-2.166.608-2.318.636-.153.029-2.027.299-2.84.682-.267.131-2.216.61-1.133.48Z"/>
</svg>
