<svg xmlns="http://www.w3.org/2000/svg" fill="none" viewBox="0 0 205 205">
  <path stroke="#333" stroke-miterlimit="10" stroke-width="3" d="M21.349 99.92c-.283 8.597-.678 22.751 7.961 31.25 9.84 9.676 39.34 20.694 74.786 20.078 29.947-.52 60.439-5.65 74.319-19.728a20.956 20.956 0 0 0 5.933-14.736v-18.77c0-4.586-2.187-8.985-5.345-12.307-3.066-3.227-8.035-6.306-16.047-7.264-18.85-2.26-36.394-7.481-43.791-12.038-7.396-4.557-26.602-15.804-55.068-11.566-17.87 2.67-33.79 11.66-40.785 24.89-1.099 2.079-1.802 5.353-1.963 7.698 0 .006.107 9.224 0 12.493Z"/>
  <path fill="#333" d="M160.419 85.605c-19.367-4.461-39.979-7.317-51.585-15.841-10.391-7.628-30.583-7.645-30.583-7.645s-21.607-1.599-36.298 8.727C27.263 81.172 29.183 92.134 29.398 93.2c.215 1.065 2.235 17.982 27.885 23.305 25.65 5.323 46.508 9.151 78.755 3.514 32.246-5.636 38.987-15.318 40.227-19.375.577-1.847 3.538-10.574-15.846-15.038ZM76.369 96.55c-9.243 0-16.722-3.755-16.722-8.374 0-4.62 7.493-8.383 16.737-8.383 9.244 0 16.739 3.752 16.739 8.383 0 4.63-7.51 8.374-16.753 8.374Z"/>
  <path stroke="#333" stroke-miterlimit="10" stroke-width="3" d="M102.59 203C158.045 203 203 158.045 203 102.59S158.045 2.18 102.59 2.18 2.18 47.135 2.18 102.59 47.135 203 102.59 203Z"/>
</svg>
